G04 Layer: TopPasteMaskLayer*
G04 EasyEDA v6.2.43, 2019-09-14T08:05:40+03:00*
G04 099efe80dd8e4075b8cc61d203687640,04130c9be27c403289d01f1062dd982b,10*
G04 Gerber Generator version 0.2*
G04 Scale: 100 percent, Rotated: No, Reflected: No *
G04 Dimensions in millimeters *
G04 leading zeros omitted , absolute positions ,3 integer and 3 decimal *
%FSLAX33Y33*%
%MOMM*%
G90*
G71D02*

%ADD15R,1.999996X1.016000*%
%ADD16R,1.016000X1.999996*%
%ADD17R,0.399999X1.524000*%
%ADD18R,1.501140X2.399995*%
%ADD19R,1.500988X2.399995*%
%ADD20R,3.799840X2.399995*%

%LPD*%
G54D15*
G01X14986Y3556D03*
G01X14986Y4826D03*
G01X14986Y6096D03*
G01X14986Y7366D03*
G01X14986Y8636D03*
G01X14986Y9906D03*
G01X14986Y11176D03*
G01X14986Y12446D03*
G01X14986Y13716D03*
G01X14986Y14986D03*
G01X14986Y16256D03*
G01X14986Y17526D03*
G01X14986Y18796D03*
G01X14986Y20066D03*
G01X14986Y21336D03*
G01X14986Y22606D03*
G01X14986Y23876D03*
G01X14986Y25146D03*
G01X14986Y26416D03*
G01X14986Y27686D03*
G54D16*
G01X20066Y28956D03*
G01X21336Y28956D03*
G01X22606Y28956D03*
G01X23876Y28956D03*
G01X25146Y28956D03*
G01X26416Y28956D03*
G01X27686Y28956D03*
G54D15*
G01X32766Y3556D03*
G01X32766Y4826D03*
G01X32766Y6096D03*
G01X32766Y7366D03*
G01X32766Y8636D03*
G01X32766Y9906D03*
G01X32766Y11176D03*
G01X32766Y12446D03*
G01X32766Y13716D03*
G01X32766Y14986D03*
G01X32766Y16256D03*
G01X32766Y17526D03*
G01X32766Y18796D03*
G01X32766Y20066D03*
G01X32766Y21336D03*
G01X32766Y22606D03*
G01X32766Y23876D03*
G01X32766Y25146D03*
G01X32766Y26416D03*
G01X32766Y27686D03*
G54D17*
G01X25154Y34359D03*
G54D18*
G01X37084Y34417D03*
G36*
G01X38874Y35615D02*
G01X40373Y35615D01*
G01X40373Y33218D01*
G01X38874Y33218D01*
G01X38874Y35615D01*
G37*
G54D19*
G01X42164Y34417D03*
G54D20*
G01X39624Y41783D03*
M00*
M02*
