G04 Layer: TopSolderMaskLayer*
G04 EasyEDA v6.2.43, 2019-09-14T08:05:40+03:00*
G04 099efe80dd8e4075b8cc61d203687640,04130c9be27c403289d01f1062dd982b,10*
G04 Gerber Generator version 0.2*
G04 Scale: 100 percent, Rotated: No, Reflected: No *
G04 Dimensions in millimeters *
G04 leading zeros omitted , absolute positions ,3 integer and 3 decimal *
%FSLAX33Y33*%
%MOMM*%
G90*
G71D02*

%ADD35C,1.617980*%
%ADD36C,2.108200*%
%ADD37C,2.003196*%
%ADD38C,1.803197*%
%ADD39C,1.778000*%
%ADD41C,1.203198*%

%LPD*%
G36*
G01X13886Y2948D02*
G01X13886Y4163D01*
G01X16085Y4163D01*
G01X16085Y2948D01*
G01X13886Y2948D01*
G37*
G36*
G01X13886Y4218D02*
G01X13886Y5433D01*
G01X16085Y5433D01*
G01X16085Y4218D01*
G01X13886Y4218D01*
G37*
G36*
G01X13886Y5488D02*
G01X13886Y6703D01*
G01X16085Y6703D01*
G01X16085Y5488D01*
G01X13886Y5488D01*
G37*
G36*
G01X13886Y6758D02*
G01X13886Y7973D01*
G01X16085Y7973D01*
G01X16085Y6758D01*
G01X13886Y6758D01*
G37*
G36*
G01X13886Y8028D02*
G01X13886Y9243D01*
G01X16085Y9243D01*
G01X16085Y8028D01*
G01X13886Y8028D01*
G37*
G36*
G01X13886Y9298D02*
G01X13886Y10513D01*
G01X16085Y10513D01*
G01X16085Y9298D01*
G01X13886Y9298D01*
G37*
G36*
G01X13886Y10568D02*
G01X13886Y11783D01*
G01X16085Y11783D01*
G01X16085Y10568D01*
G01X13886Y10568D01*
G37*
G36*
G01X13886Y11838D02*
G01X13886Y13053D01*
G01X16085Y13053D01*
G01X16085Y11838D01*
G01X13886Y11838D01*
G37*
G36*
G01X13886Y13108D02*
G01X13886Y14323D01*
G01X16085Y14323D01*
G01X16085Y13108D01*
G01X13886Y13108D01*
G37*
G36*
G01X13886Y14378D02*
G01X13886Y15593D01*
G01X16085Y15593D01*
G01X16085Y14378D01*
G01X13886Y14378D01*
G37*
G36*
G01X13886Y15648D02*
G01X13886Y16863D01*
G01X16085Y16863D01*
G01X16085Y15648D01*
G01X13886Y15648D01*
G37*
G36*
G01X13886Y16918D02*
G01X13886Y18133D01*
G01X16085Y18133D01*
G01X16085Y16918D01*
G01X13886Y16918D01*
G37*
G36*
G01X13886Y18188D02*
G01X13886Y19403D01*
G01X16085Y19403D01*
G01X16085Y18188D01*
G01X13886Y18188D01*
G37*
G36*
G01X13886Y19458D02*
G01X13886Y20673D01*
G01X16085Y20673D01*
G01X16085Y19458D01*
G01X13886Y19458D01*
G37*
G36*
G01X13886Y20728D02*
G01X13886Y21943D01*
G01X16085Y21943D01*
G01X16085Y20728D01*
G01X13886Y20728D01*
G37*
G36*
G01X13886Y21998D02*
G01X13886Y23213D01*
G01X16085Y23213D01*
G01X16085Y21998D01*
G01X13886Y21998D01*
G37*
G36*
G01X13886Y23268D02*
G01X13886Y24483D01*
G01X16085Y24483D01*
G01X16085Y23268D01*
G01X13886Y23268D01*
G37*
G36*
G01X13886Y24538D02*
G01X13886Y25753D01*
G01X16085Y25753D01*
G01X16085Y24538D01*
G01X13886Y24538D01*
G37*
G36*
G01X13886Y25808D02*
G01X13886Y27023D01*
G01X16085Y27023D01*
G01X16085Y25808D01*
G01X13886Y25808D01*
G37*
G36*
G01X13886Y27078D02*
G01X13886Y28293D01*
G01X16085Y28293D01*
G01X16085Y27078D01*
G01X13886Y27078D01*
G37*
G36*
G01X19458Y27856D02*
G01X19458Y30055D01*
G01X20673Y30055D01*
G01X20673Y27856D01*
G01X19458Y27856D01*
G37*
G36*
G01X20728Y27856D02*
G01X20728Y30055D01*
G01X21943Y30055D01*
G01X21943Y27856D01*
G01X20728Y27856D01*
G37*
G36*
G01X21998Y27856D02*
G01X21998Y30055D01*
G01X23213Y30055D01*
G01X23213Y27856D01*
G01X21998Y27856D01*
G37*
G36*
G01X23268Y27856D02*
G01X23268Y30055D01*
G01X24483Y30055D01*
G01X24483Y27856D01*
G01X23268Y27856D01*
G37*
G36*
G01X24538Y27856D02*
G01X24538Y30055D01*
G01X25753Y30055D01*
G01X25753Y27856D01*
G01X24538Y27856D01*
G37*
G36*
G01X25808Y27856D02*
G01X25808Y30055D01*
G01X27023Y30055D01*
G01X27023Y27856D01*
G01X25808Y27856D01*
G37*
G36*
G01X27078Y27856D02*
G01X27078Y30055D01*
G01X28293Y30055D01*
G01X28293Y27856D01*
G01X27078Y27856D01*
G37*
G36*
G01X31666Y2948D02*
G01X31666Y4163D01*
G01X33865Y4163D01*
G01X33865Y2948D01*
G01X31666Y2948D01*
G37*
G36*
G01X31666Y4218D02*
G01X31666Y5433D01*
G01X33865Y5433D01*
G01X33865Y4218D01*
G01X31666Y4218D01*
G37*
G36*
G01X31666Y5488D02*
G01X31666Y6703D01*
G01X33865Y6703D01*
G01X33865Y5488D01*
G01X31666Y5488D01*
G37*
G36*
G01X31666Y6758D02*
G01X31666Y7973D01*
G01X33865Y7973D01*
G01X33865Y6758D01*
G01X31666Y6758D01*
G37*
G36*
G01X31666Y8028D02*
G01X31666Y9243D01*
G01X33865Y9243D01*
G01X33865Y8028D01*
G01X31666Y8028D01*
G37*
G36*
G01X31666Y9298D02*
G01X31666Y10513D01*
G01X33865Y10513D01*
G01X33865Y9298D01*
G01X31666Y9298D01*
G37*
G36*
G01X31666Y10568D02*
G01X31666Y11783D01*
G01X33865Y11783D01*
G01X33865Y10568D01*
G01X31666Y10568D01*
G37*
G36*
G01X31666Y11838D02*
G01X31666Y13053D01*
G01X33865Y13053D01*
G01X33865Y11838D01*
G01X31666Y11838D01*
G37*
G36*
G01X31666Y13108D02*
G01X31666Y14323D01*
G01X33865Y14323D01*
G01X33865Y13108D01*
G01X31666Y13108D01*
G37*
G36*
G01X31666Y14378D02*
G01X31666Y15593D01*
G01X33865Y15593D01*
G01X33865Y14378D01*
G01X31666Y14378D01*
G37*
G36*
G01X31666Y15648D02*
G01X31666Y16863D01*
G01X33865Y16863D01*
G01X33865Y15648D01*
G01X31666Y15648D01*
G37*
G36*
G01X31666Y16918D02*
G01X31666Y18133D01*
G01X33865Y18133D01*
G01X33865Y16918D01*
G01X31666Y16918D01*
G37*
G36*
G01X31666Y18188D02*
G01X31666Y19403D01*
G01X33865Y19403D01*
G01X33865Y18188D01*
G01X31666Y18188D01*
G37*
G36*
G01X31666Y19458D02*
G01X31666Y20673D01*
G01X33865Y20673D01*
G01X33865Y19458D01*
G01X31666Y19458D01*
G37*
G36*
G01X31666Y20728D02*
G01X31666Y21943D01*
G01X33865Y21943D01*
G01X33865Y20728D01*
G01X31666Y20728D01*
G37*
G36*
G01X31666Y21998D02*
G01X31666Y23213D01*
G01X33865Y23213D01*
G01X33865Y21998D01*
G01X31666Y21998D01*
G37*
G36*
G01X31666Y23268D02*
G01X31666Y24483D01*
G01X33865Y24483D01*
G01X33865Y23268D01*
G01X31666Y23268D01*
G37*
G36*
G01X31666Y24538D02*
G01X31666Y25753D01*
G01X33865Y25753D01*
G01X33865Y24538D01*
G01X31666Y24538D01*
G37*
G36*
G01X31666Y25808D02*
G01X31666Y27023D01*
G01X33865Y27023D01*
G01X33865Y25808D01*
G01X31666Y25808D01*
G37*
G36*
G01X31666Y27078D02*
G01X31666Y28293D01*
G01X33865Y28293D01*
G01X33865Y27078D01*
G01X31666Y27078D01*
G37*
G54D35*
G01X39700Y26035D03*
G01X46913Y26035D03*
G54D36*
G01X48133Y12065D03*
G01X40513Y12065D03*
G01X40513Y16510D03*
G01X48133Y16510D03*
G54D37*
G01X32258Y38076D03*
G01X32258Y35075D03*
G01X46990Y38076D03*
G01X46990Y35075D03*
G54D38*
G01X40850Y6858D03*
G01X48049Y6858D03*
G54D39*
G01X47117Y2413D03*
G01X44577Y2413D03*
G36*
G01X41148Y1524D02*
G01X41148Y3302D01*
G01X42926Y3302D01*
G01X42926Y1524D01*
G01X41148Y1524D01*
G37*
G54D41*
G01X5461Y4191D03*
G01X5461Y5461D03*
G01X5461Y8001D03*
G01X5461Y9271D03*
G01X5461Y10541D03*
G01X5461Y11811D03*
G01X5461Y19431D03*
G01X5461Y20701D03*
G01X5461Y21971D03*
G01X5461Y24511D03*
G01X5461Y25781D03*
G01X5461Y27051D03*
G01X5461Y23241D03*
G01X5461Y18161D03*
G01X5461Y16891D03*
G01X5461Y15621D03*
G01X5461Y14351D03*
G01X5461Y13081D03*
G01X5461Y6731D03*
G01X5461Y2921D03*
G01X4191Y2921D03*
G01X4191Y6731D03*
G01X4191Y13081D03*
G01X4191Y14351D03*
G01X4191Y15621D03*
G01X4191Y16891D03*
G01X4191Y18161D03*
G01X4191Y23241D03*
G36*
G01X3589Y26449D02*
G01X3589Y27652D01*
G01X4792Y27652D01*
G01X4792Y26449D01*
G01X3589Y26449D01*
G37*
G01X4191Y25781D03*
G01X4191Y24511D03*
G01X4191Y21971D03*
G01X4191Y20701D03*
G01X4191Y19431D03*
G01X4191Y11811D03*
G01X4191Y10541D03*
G01X4191Y9271D03*
G01X4191Y8001D03*
G01X4191Y5461D03*
G01X4191Y4191D03*
G36*
G01X24851Y33494D02*
G01X24851Y35222D01*
G01X25455Y35222D01*
G01X25455Y33494D01*
G01X24851Y33494D01*
G37*
G36*
G01X36233Y33116D02*
G01X36233Y35717D01*
G01X37937Y35717D01*
G01X37937Y33116D01*
G01X36233Y33116D01*
G37*
G36*
G01X38773Y33116D02*
G01X38773Y35717D01*
G01X40474Y35717D01*
G01X40474Y33116D01*
G01X38773Y33116D01*
G37*
G36*
G01X41313Y33116D02*
G01X41313Y35717D01*
G01X43014Y35717D01*
G01X43014Y33116D01*
G01X41313Y33116D01*
G37*
G36*
G01X37622Y40482D02*
G01X37622Y43083D01*
G01X41625Y43083D01*
G01X41625Y40482D01*
G01X37622Y40482D01*
G37*
M00*
M02*
