G04 Layer: TopLayer*
G04 EasyEDA v6.2.43, 2019-09-14T08:05:40+03:00*
G04 099efe80dd8e4075b8cc61d203687640,04130c9be27c403289d01f1062dd982b,10*
G04 Gerber Generator version 0.2*
G04 Scale: 100 percent, Rotated: No, Reflected: No *
G04 Dimensions in millimeters *
G04 leading zeros omitted , absolute positions ,3 integer and 3 decimal *
%FSLAX33Y33*%
%MOMM*%
G90*
G71D02*

%ADD10C,0.254000*%
%ADD11C,0.999998*%
%ADD12C,0.299999*%
%ADD13C,0.619760*%
%ADD14C,0.610006*%
%ADD15R,1.999996X1.016000*%
%ADD16R,1.016000X1.999996*%
%ADD17R,0.399999X1.524000*%
%ADD18R,1.501140X2.399995*%
%ADD19R,1.500988X2.399995*%
%ADD20R,3.799840X2.399995*%
%ADD21C,1.414780*%
%ADD22C,1.905000*%
%ADD23C,1.799996*%
%ADD24C,1.599997*%
%ADD25C,1.574800*%
%ADD26R,1.574800X1.574800*%
%ADD27R,0.999998X0.999998*%

%LPD*%
G36*
G01X49921Y46720D02*
G01X28549Y46720D01*
G01X28535Y46719D01*
G01X28520Y46716D01*
G01X28507Y46711D01*
G01X28494Y46704D01*
G01X28483Y46695D01*
G01X28472Y46685D01*
G01X28464Y46674D01*
G01X28457Y46661D01*
G01X28452Y46647D01*
G01X28449Y46633D01*
G01X28448Y46619D01*
G01X28448Y33655D01*
G01X25709Y33655D01*
G01X25694Y33653D01*
G01X25680Y33650D01*
G01X25666Y33645D01*
G01X25653Y33638D01*
G01X25642Y33629D01*
G01X25631Y33618D01*
G01X25623Y33607D01*
G01X25616Y33594D01*
G01X25611Y33580D01*
G01X25608Y33565D01*
G01X25603Y33539D01*
G01X25596Y33513D01*
G01X25586Y33487D01*
G01X25573Y33464D01*
G01X25558Y33441D01*
G01X25549Y33427D01*
G01X25542Y33412D01*
G01X25538Y33396D01*
G01X25537Y33380D01*
G01X25537Y30314D01*
G01X25538Y30299D01*
G01X25541Y30285D01*
G01X25546Y30271D01*
G01X25553Y30259D01*
G01X25562Y30247D01*
G01X25572Y30237D01*
G01X25584Y30228D01*
G01X25596Y30221D01*
G01X25610Y30216D01*
G01X25624Y30213D01*
G01X25639Y30212D01*
G01X25654Y30212D01*
G01X25677Y30211D01*
G01X25700Y30208D01*
G01X25722Y30203D01*
G01X25744Y30195D01*
G01X25762Y30190D01*
G01X25781Y30189D01*
G01X25799Y30190D01*
G01X25817Y30195D01*
G01X25839Y30203D01*
G01X25861Y30208D01*
G01X25884Y30211D01*
G01X25908Y30212D01*
G01X26098Y30212D01*
G01X26098Y29519D01*
G01X26012Y29519D01*
G01X25997Y29518D01*
G01X25983Y29515D01*
G01X25969Y29510D01*
G01X25957Y29503D01*
G01X25945Y29494D01*
G01X25935Y29484D01*
G01X25926Y29472D01*
G01X25919Y29460D01*
G01X25914Y29446D01*
G01X25911Y29432D01*
G01X25910Y29417D01*
G01X25910Y28494D01*
G01X25911Y28479D01*
G01X25914Y28465D01*
G01X25919Y28451D01*
G01X25926Y28439D01*
G01X25935Y28427D01*
G01X25945Y28417D01*
G01X25957Y28408D01*
G01X25969Y28401D01*
G01X25983Y28396D01*
G01X25997Y28393D01*
G01X26012Y28392D01*
G01X26098Y28392D01*
G01X26098Y27699D01*
G01X25908Y27699D01*
G01X25884Y27700D01*
G01X25861Y27703D01*
G01X25839Y27708D01*
G01X25817Y27716D01*
G01X25799Y27721D01*
G01X25781Y27722D01*
G01X25762Y27721D01*
G01X25744Y27716D01*
G01X25722Y27708D01*
G01X25700Y27703D01*
G01X25677Y27700D01*
G01X25654Y27699D01*
G01X24638Y27699D01*
G01X24614Y27700D01*
G01X24591Y27703D01*
G01X24569Y27708D01*
G01X24547Y27716D01*
G01X24529Y27721D01*
G01X24511Y27722D01*
G01X24492Y27721D01*
G01X24474Y27716D01*
G01X24452Y27708D01*
G01X24430Y27703D01*
G01X24407Y27700D01*
G01X24384Y27699D01*
G01X23368Y27699D01*
G01X23344Y27700D01*
G01X23321Y27703D01*
G01X23299Y27708D01*
G01X23277Y27716D01*
G01X23259Y27721D01*
G01X23241Y27722D01*
G01X23222Y27721D01*
G01X23204Y27716D01*
G01X23182Y27708D01*
G01X23160Y27703D01*
G01X23137Y27700D01*
G01X23114Y27699D01*
G01X22098Y27699D01*
G01X22074Y27700D01*
G01X22051Y27703D01*
G01X22029Y27708D01*
G01X22007Y27716D01*
G01X21989Y27721D01*
G01X21971Y27722D01*
G01X21952Y27721D01*
G01X21934Y27716D01*
G01X21912Y27708D01*
G01X21890Y27703D01*
G01X21867Y27700D01*
G01X21844Y27699D01*
G01X21653Y27699D01*
G01X21653Y28392D01*
G01X21739Y28392D01*
G01X21754Y28393D01*
G01X21768Y28396D01*
G01X21782Y28401D01*
G01X21794Y28408D01*
G01X21806Y28417D01*
G01X21816Y28427D01*
G01X21825Y28439D01*
G01X21832Y28451D01*
G01X21837Y28465D01*
G01X21840Y28479D01*
G01X21841Y28494D01*
G01X21841Y29417D01*
G01X21840Y29432D01*
G01X21837Y29446D01*
G01X21832Y29460D01*
G01X21825Y29472D01*
G01X21816Y29484D01*
G01X21806Y29494D01*
G01X21794Y29503D01*
G01X21782Y29510D01*
G01X21768Y29515D01*
G01X21754Y29518D01*
G01X21739Y29519D01*
G01X21653Y29519D01*
G01X21653Y30212D01*
G01X21844Y30212D01*
G01X21867Y30211D01*
G01X21890Y30208D01*
G01X21912Y30203D01*
G01X21934Y30195D01*
G01X21952Y30190D01*
G01X21971Y30189D01*
G01X21989Y30190D01*
G01X22007Y30195D01*
G01X22029Y30203D01*
G01X22051Y30208D01*
G01X22074Y30211D01*
G01X22098Y30212D01*
G01X23114Y30212D01*
G01X23137Y30211D01*
G01X23160Y30208D01*
G01X23182Y30203D01*
G01X23204Y30195D01*
G01X23222Y30190D01*
G01X23241Y30189D01*
G01X23259Y30190D01*
G01X23277Y30195D01*
G01X23299Y30203D01*
G01X23321Y30208D01*
G01X23344Y30211D01*
G01X23368Y30212D01*
G01X24384Y30212D01*
G01X24407Y30211D01*
G01X24430Y30208D01*
G01X24452Y30203D01*
G01X24474Y30195D01*
G01X24492Y30190D01*
G01X24511Y30189D01*
G01X24529Y30190D01*
G01X24547Y30195D01*
G01X24569Y30203D01*
G01X24591Y30208D01*
G01X24614Y30211D01*
G01X24638Y30212D01*
G01X24660Y30212D01*
G01X24675Y30213D01*
G01X24689Y30216D01*
G01X24703Y30221D01*
G01X24715Y30228D01*
G01X24727Y30237D01*
G01X24737Y30247D01*
G01X24746Y30259D01*
G01X24753Y30271D01*
G01X24758Y30285D01*
G01X24761Y30299D01*
G01X24762Y30314D01*
G01X24762Y33391D01*
G01X24761Y33406D01*
G01X24757Y33421D01*
G01X24751Y33436D01*
G01X24744Y33449D01*
G01X24730Y33470D01*
G01X24719Y33493D01*
G01X24710Y33516D01*
G01X24703Y33541D01*
G01X24699Y33565D01*
G01X24696Y33580D01*
G01X24691Y33594D01*
G01X24684Y33607D01*
G01X24676Y33618D01*
G01X24665Y33629D01*
G01X24654Y33638D01*
G01X24641Y33645D01*
G01X24627Y33650D01*
G01X24613Y33653D01*
G01X24598Y33655D01*
G01X370Y33655D01*
G01X356Y33653D01*
G01X342Y33650D01*
G01X328Y33645D01*
G01X315Y33638D01*
G01X304Y33630D01*
G01X294Y33619D01*
G01X285Y33608D01*
G01X278Y33595D01*
G01X273Y33582D01*
G01X270Y33567D01*
G01X269Y33553D01*
G01X269Y370D01*
G01X270Y356D01*
G01X273Y342D01*
G01X278Y328D01*
G01X285Y315D01*
G01X294Y304D01*
G01X304Y294D01*
G01X315Y285D01*
G01X328Y278D01*
G01X342Y273D01*
G01X356Y270D01*
G01X370Y269D01*
G01X2997Y269D01*
G01X3011Y270D01*
G01X3026Y273D01*
G01X3039Y278D01*
G01X3052Y285D01*
G01X3063Y294D01*
G01X3074Y304D01*
G01X3082Y315D01*
G01X3089Y328D01*
G01X3094Y342D01*
G01X3097Y356D01*
G01X3099Y370D01*
G01X3097Y386D01*
G01X3094Y402D01*
G01X3087Y416D01*
G01X3079Y430D01*
G01X3069Y442D01*
G01X1548Y1962D01*
G01X1510Y2006D01*
G01X1494Y2030D01*
G01X1479Y2055D01*
G01X1466Y2081D01*
G01X1455Y2108D01*
G01X1446Y2135D01*
G01X1439Y2164D01*
G01X1434Y2192D01*
G01X1430Y2221D01*
G01X1429Y2250D01*
G01X1429Y7170D01*
G01X1430Y7199D01*
G01X1434Y7228D01*
G01X1439Y7256D01*
G01X1446Y7284D01*
G01X1455Y7312D01*
G01X1466Y7339D01*
G01X1479Y7365D01*
G01X1494Y7390D01*
G01X1510Y7414D01*
G01X1529Y7436D01*
G01X1548Y7457D01*
G01X3413Y9322D01*
G01X3424Y9334D01*
G01X3432Y9348D01*
G01X3438Y9363D01*
G01X3442Y9379D01*
G01X3449Y9419D01*
G01X3458Y9458D01*
G01X3468Y9496D01*
G01X3481Y9534D01*
G01X3496Y9572D01*
G01X3513Y9608D01*
G01X3532Y9643D01*
G01X3553Y9678D01*
G01X3575Y9711D01*
G01X3599Y9743D01*
G01X3625Y9773D01*
G01X3653Y9803D01*
G01X3682Y9830D01*
G01X3693Y9843D01*
G01X3702Y9857D01*
G01X3709Y9872D01*
G01X3713Y9889D01*
G01X3715Y9906D01*
G01X3713Y9922D01*
G01X3709Y9939D01*
G01X3702Y9954D01*
G01X3693Y9968D01*
G01X3682Y9981D01*
G01X3653Y10008D01*
G01X3626Y10037D01*
G01X3601Y10067D01*
G01X3577Y10098D01*
G01X3555Y10130D01*
G01X3534Y10164D01*
G01X3516Y10199D01*
G01X3499Y10234D01*
G01X3484Y10271D01*
G01X3471Y10308D01*
G01X3459Y10346D01*
G01X3450Y10384D01*
G01X3443Y10423D01*
G01X3438Y10462D01*
G01X3435Y10501D01*
G01X3434Y10540D01*
G01X3433Y10556D01*
G01X3429Y10572D01*
G01X3423Y10586D01*
G01X3415Y10600D01*
G01X3404Y10612D01*
G01X2359Y11658D01*
G01X2339Y11679D01*
G01X2321Y11701D01*
G01X2304Y11725D01*
G01X2289Y11750D01*
G01X2276Y11776D01*
G01X2265Y11803D01*
G01X2256Y11831D01*
G01X2249Y11859D01*
G01X2244Y11887D01*
G01X2241Y11916D01*
G01X2240Y11945D01*
G01X2240Y28082D01*
G01X2241Y28111D01*
G01X2244Y28140D01*
G01X2249Y28168D01*
G01X2256Y28196D01*
G01X2265Y28224D01*
G01X2276Y28251D01*
G01X2289Y28277D01*
G01X2304Y28302D01*
G01X2321Y28325D01*
G01X2339Y28348D01*
G01X2359Y28369D01*
G01X6263Y32273D01*
G01X6284Y32293D01*
G01X6307Y32311D01*
G01X6330Y32328D01*
G01X6355Y32343D01*
G01X6381Y32356D01*
G01X6408Y32367D01*
G01X6436Y32376D01*
G01X6464Y32383D01*
G01X6492Y32388D01*
G01X6521Y32391D01*
G01X6550Y32392D01*
G01X15756Y32392D01*
G01X15773Y32394D01*
G01X15790Y32398D01*
G01X15807Y32406D01*
G01X15821Y32416D01*
G01X15849Y32438D01*
G01X15878Y32458D01*
G01X15909Y32476D01*
G01X15941Y32493D01*
G01X15973Y32507D01*
G01X16007Y32519D01*
G01X16041Y32529D01*
G01X16076Y32537D01*
G01X16111Y32543D01*
G01X16146Y32546D01*
G01X16182Y32547D01*
G01X16216Y32546D01*
G01X16250Y32543D01*
G01X16283Y32538D01*
G01X16316Y32531D01*
G01X16349Y32522D01*
G01X16381Y32511D01*
G01X16412Y32498D01*
G01X16443Y32483D01*
G01X16472Y32466D01*
G01X16501Y32448D01*
G01X16528Y32428D01*
G01X16554Y32406D01*
G01X16579Y32383D01*
G01X16602Y32358D01*
G01X16624Y32332D01*
G01X16644Y32305D01*
G01X16662Y32276D01*
G01X16679Y32247D01*
G01X16694Y32216D01*
G01X16707Y32185D01*
G01X16718Y32153D01*
G01X16727Y32120D01*
G01X16734Y32087D01*
G01X16739Y32053D01*
G01X16742Y32020D01*
G01X16743Y31986D01*
G01X16742Y31952D01*
G01X16739Y31918D01*
G01X16734Y31884D01*
G01X16727Y31851D01*
G01X16718Y31819D01*
G01X16707Y31787D01*
G01X16694Y31755D01*
G01X16679Y31725D01*
G01X16662Y31695D01*
G01X16644Y31667D01*
G01X16624Y31639D01*
G01X16602Y31613D01*
G01X16579Y31589D01*
G01X16554Y31565D01*
G01X16528Y31544D01*
G01X16501Y31524D01*
G01X16472Y31505D01*
G01X16443Y31488D01*
G01X16412Y31474D01*
G01X16381Y31461D01*
G01X16349Y31450D01*
G01X16316Y31440D01*
G01X16283Y31433D01*
G01X16250Y31428D01*
G01X16216Y31425D01*
G01X16182Y31424D01*
G01X16146Y31425D01*
G01X16111Y31429D01*
G01X16076Y31434D01*
G01X16041Y31442D01*
G01X16007Y31452D01*
G01X15973Y31464D01*
G01X15941Y31479D01*
G01X15909Y31495D01*
G01X15878Y31513D01*
G01X15849Y31533D01*
G01X15807Y31566D01*
G01X15790Y31573D01*
G01X15773Y31578D01*
G01X15756Y31579D01*
G01X6761Y31579D01*
G01X6745Y31578D01*
G01X6729Y31574D01*
G01X6715Y31568D01*
G01X6701Y31560D01*
G01X6689Y31549D01*
G01X4406Y29266D01*
G01X4395Y29254D01*
G01X4387Y29241D01*
G01X4381Y29226D01*
G01X4377Y29210D01*
G01X4376Y29194D01*
G01X4377Y29180D01*
G01X4380Y29166D01*
G01X4385Y29152D01*
G01X4392Y29139D01*
G01X4401Y29128D01*
G01X4411Y29118D01*
G01X4423Y29109D01*
G01X4435Y29102D01*
G01X4449Y29097D01*
G01X4463Y29094D01*
G01X4477Y29093D01*
G01X18780Y29093D01*
G01X18814Y29091D01*
G01X18848Y29087D01*
G01X18881Y29080D01*
G01X18914Y29070D01*
G01X18930Y29066D01*
G01X18947Y29065D01*
G01X18963Y29065D01*
G01X18997Y29064D01*
G01X19031Y29061D01*
G01X19065Y29056D01*
G01X19098Y29048D01*
G01X19131Y29039D01*
G01X19163Y29028D01*
G01X19194Y29015D01*
G01X19225Y29000D01*
G01X19254Y28984D01*
G01X19283Y28965D01*
G01X19310Y28945D01*
G01X19336Y28923D01*
G01X19361Y28900D01*
G01X19384Y28875D01*
G01X19406Y28849D01*
G01X19426Y28822D01*
G01X19444Y28794D01*
G01X19461Y28764D01*
G01X19475Y28734D01*
G01X19488Y28702D01*
G01X19499Y28670D01*
G01X19508Y28638D01*
G01X19516Y28604D01*
G01X19521Y28571D01*
G01X19524Y28537D01*
G01X19525Y28503D01*
G01X19525Y28494D01*
G01X19526Y28479D01*
G01X19529Y28465D01*
G01X19534Y28451D01*
G01X19541Y28439D01*
G01X19549Y28427D01*
G01X19560Y28417D01*
G01X19571Y28408D01*
G01X19584Y28401D01*
G01X19598Y28396D01*
G01X19612Y28393D01*
G01X19626Y28392D01*
G01X19748Y28392D01*
G01X19748Y27699D01*
G01X19558Y27699D01*
G01X19534Y27700D01*
G01X19511Y27703D01*
G01X19488Y27709D01*
G01X19465Y27716D01*
G01X19444Y27725D01*
G01X19423Y27737D01*
G01X19404Y27750D01*
G01X19386Y27765D01*
G01X19369Y27782D01*
G01X19354Y27800D01*
G01X19340Y27819D01*
G01X19329Y27839D01*
G01X19319Y27861D01*
G01X19311Y27883D01*
G01X19306Y27906D01*
G01X19302Y27921D01*
G01X19295Y27935D01*
G01X19287Y27948D01*
G01X19276Y27960D01*
G01X19264Y27970D01*
G01X19251Y27977D01*
G01X19237Y27983D01*
G01X19222Y27987D01*
G01X19206Y27988D01*
G01X19187Y27986D01*
G01X19169Y27981D01*
G01X19136Y27969D01*
G01X19102Y27959D01*
G01X19068Y27952D01*
G01X19033Y27946D01*
G01X18998Y27943D01*
G01X18963Y27942D01*
G01X18928Y27943D01*
G01X18893Y27946D01*
G01X18859Y27952D01*
G01X18825Y27959D01*
G01X18791Y27969D01*
G01X18758Y27981D01*
G01X18726Y27994D01*
G01X18695Y28010D01*
G01X18665Y28028D01*
G01X18636Y28047D01*
G01X18608Y28068D01*
G01X18582Y28091D01*
G01X18557Y28116D01*
G01X18533Y28142D01*
G01X18512Y28169D01*
G01X18492Y28198D01*
G01X18474Y28228D01*
G01X18465Y28241D01*
G01X18455Y28252D01*
G01X18443Y28262D01*
G01X18430Y28269D01*
G01X18415Y28275D01*
G01X18401Y28279D01*
G01X18385Y28280D01*
G01X16344Y28280D01*
G01X16329Y28279D01*
G01X16315Y28276D01*
G01X16301Y28271D01*
G01X16289Y28264D01*
G01X16277Y28255D01*
G01X16267Y28245D01*
G01X16258Y28233D01*
G01X16251Y28220D01*
G01X16246Y28207D01*
G01X16243Y28193D01*
G01X16242Y28178D01*
G01X16242Y28003D01*
G01X15549Y28003D01*
G01X15549Y28178D01*
G01X15548Y28193D01*
G01X15545Y28207D01*
G01X15540Y28220D01*
G01X15533Y28233D01*
G01X15524Y28245D01*
G01X15514Y28255D01*
G01X15502Y28264D01*
G01X15490Y28271D01*
G01X15476Y28276D01*
G01X15462Y28279D01*
G01X15447Y28280D01*
G01X14524Y28280D01*
G01X14509Y28279D01*
G01X14495Y28276D01*
G01X14481Y28271D01*
G01X14469Y28264D01*
G01X14457Y28255D01*
G01X14447Y28245D01*
G01X14438Y28233D01*
G01X14431Y28220D01*
G01X14426Y28207D01*
G01X14423Y28193D01*
G01X14422Y28178D01*
G01X14422Y28003D01*
G01X13729Y28003D01*
G01X13729Y28178D01*
G01X13728Y28193D01*
G01X13725Y28207D01*
G01X13720Y28220D01*
G01X13713Y28233D01*
G01X13704Y28245D01*
G01X13694Y28255D01*
G01X13682Y28264D01*
G01X13670Y28271D01*
G01X13656Y28276D01*
G01X13642Y28279D01*
G01X13627Y28280D01*
G01X4394Y28280D01*
G01X4378Y28278D01*
G01X4362Y28275D01*
G01X4348Y28269D01*
G01X4334Y28260D01*
G01X4322Y28250D01*
G01X4053Y27980D01*
G01X4043Y27968D01*
G01X4034Y27955D01*
G01X4028Y27940D01*
G01X4025Y27925D01*
G01X4023Y27909D01*
G01X4024Y27894D01*
G01X4028Y27880D01*
G01X4033Y27866D01*
G01X4040Y27854D01*
G01X4048Y27842D01*
G01X4058Y27832D01*
G01X4070Y27823D01*
G01X4083Y27816D01*
G01X4096Y27811D01*
G01X4111Y27808D01*
G01X4125Y27807D01*
G01X4690Y27807D01*
G01X4715Y27806D01*
G01X4738Y27803D01*
G01X4762Y27797D01*
G01X4785Y27789D01*
G01X4807Y27779D01*
G01X4828Y27767D01*
G01X4848Y27753D01*
G01X4866Y27738D01*
G01X4883Y27720D01*
G01X4908Y27690D01*
G01X4920Y27679D01*
G01X4934Y27671D01*
G01X4949Y27665D01*
G01X4964Y27661D01*
G01X4980Y27660D01*
G01X4995Y27661D01*
G01X5010Y27664D01*
G01X5024Y27670D01*
G01X5037Y27677D01*
G01X5071Y27699D01*
G01X5107Y27719D01*
G01X5144Y27737D01*
G01X5181Y27754D01*
G01X5219Y27768D01*
G01X5259Y27780D01*
G01X5298Y27789D01*
G01X5338Y27797D01*
G01X5379Y27803D01*
G01X5420Y27806D01*
G01X5461Y27807D01*
G01X5500Y27806D01*
G01X5540Y27803D01*
G01X5579Y27798D01*
G01X5618Y27791D01*
G01X5656Y27781D01*
G01X5694Y27770D01*
G01X5732Y27757D01*
G01X5768Y27742D01*
G01X5804Y27725D01*
G01X5839Y27706D01*
G01X5873Y27685D01*
G01X5905Y27663D01*
G01X5937Y27638D01*
G01X5967Y27613D01*
G01X6023Y27557D01*
G01X6048Y27527D01*
G01X6073Y27495D01*
G01X6095Y27463D01*
G01X6116Y27429D01*
G01X6135Y27394D01*
G01X6152Y27358D01*
G01X6167Y27322D01*
G01X6180Y27284D01*
G01X6191Y27246D01*
G01X6201Y27208D01*
G01X6208Y27169D01*
G01X6213Y27130D01*
G01X6216Y27090D01*
G01X6217Y27051D01*
G01X6216Y27011D01*
G01X6213Y26972D01*
G01X6208Y26933D01*
G01X6201Y26894D01*
G01X6192Y26856D01*
G01X6180Y26818D01*
G01X6167Y26781D01*
G01X6152Y26744D01*
G01X6135Y26709D01*
G01X6117Y26674D01*
G01X6096Y26641D01*
G01X6074Y26608D01*
G01X6050Y26577D01*
G01X6025Y26547D01*
G01X5998Y26518D01*
G01X5969Y26491D01*
G01X5958Y26478D01*
G01X5949Y26464D01*
G01X5942Y26449D01*
G01X5938Y26432D01*
G01X5936Y26415D01*
G01X5938Y26399D01*
G01X5942Y26382D01*
G01X5949Y26367D01*
G01X5958Y26353D01*
G01X5969Y26340D01*
G01X5998Y26313D01*
G01X6025Y26284D01*
G01X6050Y26254D01*
G01X6074Y26223D01*
G01X6096Y26190D01*
G01X6117Y26157D01*
G01X6135Y26122D01*
G01X6152Y26087D01*
G01X6167Y26050D01*
G01X6180Y26013D01*
G01X6192Y25975D01*
G01X6201Y25937D01*
G01X6208Y25898D01*
G01X6213Y25859D01*
G01X6216Y25820D01*
G01X6217Y25780D01*
G01X6216Y25741D01*
G01X6213Y25702D01*
G01X6208Y25663D01*
G01X6201Y25624D01*
G01X6192Y25586D01*
G01X6180Y25548D01*
G01X6167Y25511D01*
G01X6152Y25474D01*
G01X6135Y25439D01*
G01X6117Y25404D01*
G01X6096Y25371D01*
G01X6074Y25338D01*
G01X6050Y25307D01*
G01X6025Y25277D01*
G01X5998Y25248D01*
G01X5969Y25221D01*
G01X5958Y25208D01*
G01X5949Y25194D01*
G01X5942Y25179D01*
G01X5938Y25162D01*
G01X5936Y25145D01*
G01X5938Y25129D01*
G01X5942Y25112D01*
G01X5949Y25097D01*
G01X5958Y25083D01*
G01X5969Y25070D01*
G01X5998Y25043D01*
G01X6025Y25014D01*
G01X6050Y24984D01*
G01X6074Y24953D01*
G01X6096Y24920D01*
G01X6117Y24887D01*
G01X6135Y24852D01*
G01X6152Y24817D01*
G01X6167Y24780D01*
G01X6180Y24743D01*
G01X6192Y24705D01*
G01X6201Y24667D01*
G01X6208Y24628D01*
G01X6213Y24589D01*
G01X6216Y24550D01*
G01X6217Y24510D01*
G01X6216Y24471D01*
G01X6213Y24432D01*
G01X6208Y24393D01*
G01X6201Y24354D01*
G01X6192Y24316D01*
G01X6180Y24278D01*
G01X6167Y24241D01*
G01X6152Y24204D01*
G01X6135Y24169D01*
G01X6117Y24134D01*
G01X6096Y24101D01*
G01X6074Y24068D01*
G01X6050Y24037D01*
G01X6025Y24007D01*
G01X5998Y23978D01*
G01X5969Y23951D01*
G01X5958Y23938D01*
G01X5949Y23924D01*
G01X5942Y23909D01*
G01X5938Y23892D01*
G01X5936Y23875D01*
G01X5938Y23859D01*
G01X5942Y23842D01*
G01X5949Y23827D01*
G01X5958Y23813D01*
G01X5969Y23800D01*
G01X5998Y23773D01*
G01X6025Y23744D01*
G01X6050Y23714D01*
G01X6074Y23683D01*
G01X6096Y23650D01*
G01X6117Y23617D01*
G01X6135Y23582D01*
G01X6152Y23547D01*
G01X6167Y23510D01*
G01X6180Y23473D01*
G01X6192Y23435D01*
G01X6201Y23397D01*
G01X6208Y23358D01*
G01X6213Y23319D01*
G01X6216Y23280D01*
G01X6217Y23240D01*
G01X6216Y23201D01*
G01X6213Y23162D01*
G01X6208Y23123D01*
G01X6201Y23084D01*
G01X6192Y23046D01*
G01X6180Y23008D01*
G01X6167Y22971D01*
G01X6152Y22934D01*
G01X6135Y22899D01*
G01X6117Y22864D01*
G01X6096Y22831D01*
G01X6074Y22798D01*
G01X6050Y22767D01*
G01X6025Y22737D01*
G01X5998Y22708D01*
G01X5969Y22681D01*
G01X5958Y22668D01*
G01X5949Y22654D01*
G01X5942Y22639D01*
G01X5938Y22622D01*
G01X5936Y22605D01*
G01X5938Y22589D01*
G01X5942Y22572D01*
G01X5949Y22557D01*
G01X5958Y22543D01*
G01X5969Y22530D01*
G01X5998Y22503D01*
G01X6025Y22474D01*
G01X6050Y22444D01*
G01X6074Y22413D01*
G01X6096Y22380D01*
G01X6117Y22347D01*
G01X6135Y22312D01*
G01X6152Y22277D01*
G01X6167Y22240D01*
G01X6180Y22203D01*
G01X6192Y22165D01*
G01X6201Y22127D01*
G01X6208Y22088D01*
G01X6213Y22049D01*
G01X6216Y22010D01*
G01X6217Y21970D01*
G01X6216Y21931D01*
G01X6213Y21892D01*
G01X6208Y21853D01*
G01X6201Y21814D01*
G01X6192Y21776D01*
G01X6180Y21738D01*
G01X6167Y21701D01*
G01X6152Y21664D01*
G01X6135Y21629D01*
G01X6117Y21594D01*
G01X6096Y21561D01*
G01X6074Y21528D01*
G01X6050Y21497D01*
G01X6025Y21467D01*
G01X5998Y21438D01*
G01X5969Y21411D01*
G01X5958Y21398D01*
G01X5949Y21384D01*
G01X5942Y21369D01*
G01X5938Y21352D01*
G01X5936Y21335D01*
G01X5938Y21319D01*
G01X5942Y21302D01*
G01X5949Y21287D01*
G01X5958Y21273D01*
G01X5969Y21260D01*
G01X5998Y21233D01*
G01X6025Y21204D01*
G01X6050Y21174D01*
G01X6074Y21143D01*
G01X6096Y21110D01*
G01X6117Y21077D01*
G01X6135Y21042D01*
G01X6152Y21007D01*
G01X6167Y20970D01*
G01X6180Y20933D01*
G01X6192Y20895D01*
G01X6201Y20857D01*
G01X6208Y20818D01*
G01X6213Y20779D01*
G01X6216Y20740D01*
G01X6217Y20700D01*
G01X6216Y20661D01*
G01X6213Y20622D01*
G01X6208Y20583D01*
G01X6201Y20544D01*
G01X6192Y20506D01*
G01X6180Y20468D01*
G01X6167Y20431D01*
G01X6152Y20394D01*
G01X6135Y20359D01*
G01X6117Y20324D01*
G01X6096Y20291D01*
G01X6074Y20258D01*
G01X6050Y20227D01*
G01X6025Y20197D01*
G01X5998Y20168D01*
G01X5969Y20141D01*
G01X5958Y20128D01*
G01X5949Y20114D01*
G01X5942Y20099D01*
G01X5938Y20082D01*
G01X5936Y20065D01*
G01X5938Y20049D01*
G01X5942Y20032D01*
G01X5949Y20017D01*
G01X5958Y20003D01*
G01X5969Y19990D01*
G01X5998Y19963D01*
G01X6025Y19934D01*
G01X6050Y19904D01*
G01X6074Y19873D01*
G01X6096Y19840D01*
G01X6117Y19807D01*
G01X6135Y19772D01*
G01X6152Y19737D01*
G01X6167Y19700D01*
G01X6180Y19663D01*
G01X6192Y19625D01*
G01X6201Y19587D01*
G01X6208Y19548D01*
G01X6213Y19509D01*
G01X6216Y19470D01*
G01X6217Y19430D01*
G01X6216Y19391D01*
G01X6213Y19352D01*
G01X6208Y19313D01*
G01X6201Y19274D01*
G01X6192Y19236D01*
G01X6180Y19198D01*
G01X6167Y19161D01*
G01X6152Y19124D01*
G01X6135Y19089D01*
G01X6117Y19054D01*
G01X6096Y19021D01*
G01X6074Y18988D01*
G01X6050Y18957D01*
G01X6025Y18927D01*
G01X5998Y18898D01*
G01X5969Y18871D01*
G01X5958Y18858D01*
G01X5949Y18844D01*
G01X5942Y18829D01*
G01X5938Y18812D01*
G01X5936Y18795D01*
G01X5938Y18779D01*
G01X5942Y18762D01*
G01X5949Y18747D01*
G01X5958Y18733D01*
G01X5969Y18720D01*
G01X6005Y18685D01*
G01X6039Y18648D01*
G01X6070Y18608D01*
G01X6081Y18596D01*
G01X6093Y18586D01*
G01X6106Y18578D01*
G01X6121Y18572D01*
G01X6136Y18568D01*
G01X6152Y18567D01*
G01X6881Y18567D01*
G01X6897Y18568D01*
G01X6912Y18572D01*
G01X6927Y18578D01*
G01X6940Y18586D01*
G01X6953Y18597D01*
G01X11249Y22893D01*
G01X11270Y22913D01*
G01X11293Y22931D01*
G01X11316Y22948D01*
G01X11341Y22962D01*
G01X11367Y22975D01*
G01X11394Y22986D01*
G01X11422Y22996D01*
G01X11450Y23003D01*
G01X11478Y23008D01*
G01X11507Y23011D01*
G01X11536Y23012D01*
G01X13627Y23012D01*
G01X13642Y23013D01*
G01X13656Y23016D01*
G01X13670Y23021D01*
G01X13682Y23028D01*
G01X13694Y23037D01*
G01X13704Y23047D01*
G01X13713Y23059D01*
G01X13720Y23071D01*
G01X13725Y23085D01*
G01X13728Y23099D01*
G01X13729Y23114D01*
G01X13730Y23137D01*
G01X13733Y23160D01*
G01X13738Y23182D01*
G01X13746Y23204D01*
G01X13751Y23222D01*
G01X13752Y23240D01*
G01X13751Y23259D01*
G01X13746Y23277D01*
G01X13738Y23299D01*
G01X13733Y23321D01*
G01X13730Y23344D01*
G01X13729Y23368D01*
G01X13729Y24384D01*
G01X13730Y24407D01*
G01X13733Y24430D01*
G01X13738Y24452D01*
G01X13746Y24474D01*
G01X13751Y24492D01*
G01X13752Y24510D01*
G01X13751Y24529D01*
G01X13746Y24547D01*
G01X13738Y24569D01*
G01X13733Y24591D01*
G01X13730Y24614D01*
G01X13729Y24638D01*
G01X13729Y25654D01*
G01X13730Y25677D01*
G01X13733Y25700D01*
G01X13738Y25722D01*
G01X13746Y25744D01*
G01X13751Y25762D01*
G01X13752Y25780D01*
G01X13751Y25799D01*
G01X13746Y25817D01*
G01X13738Y25839D01*
G01X13733Y25861D01*
G01X13730Y25884D01*
G01X13729Y25908D01*
G01X13729Y26924D01*
G01X13730Y26947D01*
G01X13733Y26970D01*
G01X13738Y26992D01*
G01X13746Y27014D01*
G01X13751Y27032D01*
G01X13752Y27050D01*
G01X13751Y27069D01*
G01X13746Y27087D01*
G01X13738Y27109D01*
G01X13733Y27131D01*
G01X13730Y27154D01*
G01X13729Y27178D01*
G01X13729Y27368D01*
G01X14422Y27368D01*
G01X14422Y27282D01*
G01X14423Y27267D01*
G01X14426Y27253D01*
G01X14431Y27239D01*
G01X14438Y27227D01*
G01X14447Y27215D01*
G01X14457Y27205D01*
G01X14469Y27196D01*
G01X14481Y27189D01*
G01X14495Y27184D01*
G01X14509Y27181D01*
G01X14524Y27180D01*
G01X15447Y27180D01*
G01X15462Y27181D01*
G01X15476Y27184D01*
G01X15490Y27189D01*
G01X15502Y27196D01*
G01X15514Y27205D01*
G01X15524Y27215D01*
G01X15533Y27227D01*
G01X15540Y27239D01*
G01X15545Y27253D01*
G01X15548Y27267D01*
G01X15549Y27282D01*
G01X15549Y27368D01*
G01X16242Y27368D01*
G01X16242Y27178D01*
G01X16241Y27154D01*
G01X16238Y27131D01*
G01X16233Y27109D01*
G01X16225Y27087D01*
G01X16220Y27069D01*
G01X16219Y27051D01*
G01X16220Y27032D01*
G01X16225Y27014D01*
G01X16233Y26992D01*
G01X16238Y26970D01*
G01X16241Y26947D01*
G01X16242Y26923D01*
G01X16242Y26648D01*
G01X16243Y26634D01*
G01X16246Y26620D01*
G01X16251Y26606D01*
G01X16258Y26593D01*
G01X16267Y26582D01*
G01X16277Y26572D01*
G01X16289Y26563D01*
G01X16301Y26556D01*
G01X16315Y26551D01*
G01X16329Y26548D01*
G01X16344Y26547D01*
G01X16360Y26548D01*
G01X16376Y26552D01*
G01X16392Y26559D01*
G01X16406Y26568D01*
G01X16418Y26579D01*
G01X16443Y26604D01*
G01X16470Y26628D01*
G01X16498Y26650D01*
G01X16527Y26670D01*
G01X16557Y26688D01*
G01X16589Y26704D01*
G01X16621Y26719D01*
G01X16655Y26731D01*
G01X16689Y26741D01*
G01X16724Y26749D01*
G01X16759Y26754D01*
G01X16794Y26757D01*
G01X16830Y26759D01*
G01X16863Y26758D01*
G01X16897Y26755D01*
G01X16931Y26749D01*
G01X16964Y26742D01*
G01X16997Y26733D01*
G01X17029Y26722D01*
G01X17060Y26709D01*
G01X17091Y26694D01*
G01X17120Y26678D01*
G01X17149Y26659D01*
G01X17176Y26639D01*
G01X17202Y26617D01*
G01X17227Y26594D01*
G01X17250Y26569D01*
G01X17272Y26543D01*
G01X17292Y26516D01*
G01X17310Y26488D01*
G01X17327Y26458D01*
G01X17342Y26428D01*
G01X17355Y26396D01*
G01X17366Y26364D01*
G01X17375Y26331D01*
G01X17382Y26298D01*
G01X17387Y26265D01*
G01X17390Y26231D01*
G01X17391Y26197D01*
G01X17390Y26161D01*
G01X17387Y26126D01*
G01X17381Y26091D01*
G01X17373Y26056D01*
G01X17363Y26022D01*
G01X17351Y25988D01*
G01X17337Y25956D01*
G01X17320Y25924D01*
G01X17302Y25894D01*
G01X17282Y25864D01*
G01X17260Y25836D01*
G01X17250Y25822D01*
G01X17242Y25806D01*
G01X17238Y25789D01*
G01X17236Y25771D01*
G01X17236Y21381D01*
G01X17237Y21365D01*
G01X17241Y21350D01*
G01X17247Y21335D01*
G01X17255Y21321D01*
G01X17266Y21309D01*
G01X18046Y20530D01*
G01X18058Y20519D01*
G01X18071Y20511D01*
G01X18086Y20505D01*
G01X18101Y20501D01*
G01X18117Y20500D01*
G01X18133Y20501D01*
G01X18148Y20505D01*
G01X18163Y20511D01*
G01X18176Y20519D01*
G01X18188Y20529D01*
G01X18199Y20541D01*
G01X18207Y20554D01*
G01X18213Y20568D01*
G01X18217Y20584D01*
G01X18224Y20617D01*
G01X18233Y20650D01*
G01X18244Y20682D01*
G01X18257Y20713D01*
G01X18272Y20744D01*
G01X18289Y20774D01*
G01X18307Y20802D01*
G01X18327Y20830D01*
G01X18349Y20856D01*
G01X18372Y20881D01*
G01X18397Y20904D01*
G01X18423Y20926D01*
G01X18450Y20946D01*
G01X18479Y20965D01*
G01X18508Y20981D01*
G01X18539Y20996D01*
G01X18570Y21009D01*
G01X18603Y21021D01*
G01X18635Y21030D01*
G01X18669Y21037D01*
G01X18702Y21042D01*
G01X18736Y21045D01*
G01X18770Y21046D01*
G01X18805Y21045D01*
G01X18839Y21042D01*
G01X18874Y21037D01*
G01X18908Y21029D01*
G01X18941Y21020D01*
G01X18974Y21008D01*
G01X19006Y20994D01*
G01X19037Y20979D01*
G01X19067Y20962D01*
G01X19095Y20942D01*
G01X19123Y20921D01*
G01X19149Y20899D01*
G01X19174Y20874D01*
G01X19198Y20849D01*
G01X19219Y20822D01*
G01X19239Y20793D01*
G01X19257Y20764D01*
G01X19274Y20733D01*
G01X19288Y20702D01*
G01X19300Y20669D01*
G01X19311Y20636D01*
G01X19319Y20602D01*
G01X19325Y20568D01*
G01X19329Y20534D01*
G01X19333Y20516D01*
G01X19339Y20500D01*
G01X19347Y20484D01*
G01X19359Y20471D01*
G01X21868Y17962D01*
G01X21880Y17951D01*
G01X21894Y17943D01*
G01X21908Y17937D01*
G01X21924Y17933D01*
G01X21940Y17932D01*
G01X31407Y17932D01*
G01X31422Y17933D01*
G01X31436Y17936D01*
G01X31450Y17941D01*
G01X31462Y17948D01*
G01X31474Y17957D01*
G01X31484Y17967D01*
G01X31493Y17979D01*
G01X31500Y17991D01*
G01X31505Y18005D01*
G01X31508Y18019D01*
G01X31509Y18034D01*
G01X31510Y18057D01*
G01X31513Y18080D01*
G01X31518Y18102D01*
G01X31526Y18124D01*
G01X31531Y18142D01*
G01X31532Y18160D01*
G01X31531Y18179D01*
G01X31526Y18197D01*
G01X31518Y18219D01*
G01X31513Y18241D01*
G01X31510Y18264D01*
G01X31509Y18288D01*
G01X31509Y19304D01*
G01X31510Y19327D01*
G01X31513Y19350D01*
G01X31518Y19372D01*
G01X31526Y19394D01*
G01X31531Y19412D01*
G01X31532Y19430D01*
G01X31531Y19449D01*
G01X31526Y19467D01*
G01X31518Y19489D01*
G01X31513Y19511D01*
G01X31510Y19534D01*
G01X31509Y19558D01*
G01X31509Y20574D01*
G01X31510Y20597D01*
G01X31513Y20620D01*
G01X31518Y20642D01*
G01X31526Y20664D01*
G01X31531Y20682D01*
G01X31532Y20700D01*
G01X31531Y20719D01*
G01X31526Y20737D01*
G01X31518Y20759D01*
G01X31513Y20781D01*
G01X31510Y20804D01*
G01X31509Y20828D01*
G01X31509Y21844D01*
G01X31510Y21867D01*
G01X31513Y21890D01*
G01X31518Y21912D01*
G01X31526Y21934D01*
G01X31531Y21952D01*
G01X31532Y21970D01*
G01X31531Y21989D01*
G01X31526Y22007D01*
G01X31518Y22029D01*
G01X31513Y22051D01*
G01X31510Y22074D01*
G01X31509Y22098D01*
G01X31509Y23114D01*
G01X31510Y23137D01*
G01X31513Y23160D01*
G01X31518Y23182D01*
G01X31526Y23204D01*
G01X31531Y23222D01*
G01X31532Y23240D01*
G01X31531Y23259D01*
G01X31526Y23277D01*
G01X31518Y23299D01*
G01X31513Y23321D01*
G01X31510Y23344D01*
G01X31509Y23368D01*
G01X31509Y24384D01*
G01X31510Y24407D01*
G01X31513Y24430D01*
G01X31518Y24452D01*
G01X31526Y24474D01*
G01X31531Y24492D01*
G01X31532Y24510D01*
G01X31531Y24529D01*
G01X31526Y24547D01*
G01X31518Y24569D01*
G01X31513Y24591D01*
G01X31510Y24614D01*
G01X31509Y24638D01*
G01X31509Y25654D01*
G01X31510Y25677D01*
G01X31513Y25700D01*
G01X31518Y25722D01*
G01X31526Y25744D01*
G01X31531Y25762D01*
G01X31532Y25780D01*
G01X31531Y25799D01*
G01X31526Y25817D01*
G01X31518Y25839D01*
G01X31513Y25861D01*
G01X31510Y25884D01*
G01X31509Y25908D01*
G01X31509Y26924D01*
G01X31510Y26947D01*
G01X31513Y26970D01*
G01X31518Y26992D01*
G01X31526Y27014D01*
G01X31531Y27032D01*
G01X31532Y27050D01*
G01X31531Y27069D01*
G01X31526Y27087D01*
G01X31518Y27109D01*
G01X31513Y27131D01*
G01X31510Y27154D01*
G01X31509Y27178D01*
G01X31509Y27368D01*
G01X32202Y27368D01*
G01X32202Y27282D01*
G01X32203Y27267D01*
G01X32206Y27253D01*
G01X32211Y27239D01*
G01X32218Y27227D01*
G01X32227Y27215D01*
G01X32237Y27205D01*
G01X32249Y27196D01*
G01X32261Y27189D01*
G01X32275Y27184D01*
G01X32289Y27181D01*
G01X32304Y27180D01*
G01X33227Y27180D01*
G01X33242Y27181D01*
G01X33256Y27184D01*
G01X33270Y27189D01*
G01X33282Y27196D01*
G01X33294Y27205D01*
G01X33304Y27215D01*
G01X33313Y27227D01*
G01X33320Y27239D01*
G01X33325Y27253D01*
G01X33328Y27267D01*
G01X33329Y27282D01*
G01X33329Y27368D01*
G01X34022Y27368D01*
G01X34022Y27178D01*
G01X34021Y27154D01*
G01X34018Y27131D01*
G01X34013Y27109D01*
G01X34005Y27087D01*
G01X34000Y27069D01*
G01X33999Y27051D01*
G01X34000Y27032D01*
G01X34005Y27014D01*
G01X34013Y26993D01*
G01X34018Y26970D01*
G01X34021Y26948D01*
G01X34022Y26925D01*
G01X34023Y26910D01*
G01X34026Y26896D01*
G01X34031Y26883D01*
G01X34038Y26870D01*
G01X34047Y26858D01*
G01X34057Y26848D01*
G01X34069Y26840D01*
G01X34082Y26833D01*
G01X34095Y26828D01*
G01X34109Y26825D01*
G01X34124Y26823D01*
G01X34140Y26825D01*
G01X34155Y26828D01*
G01X34170Y26835D01*
G01X34183Y26843D01*
G01X34195Y26853D01*
G01X39531Y32189D01*
G01X39542Y32201D01*
G01X39550Y32215D01*
G01X39556Y32229D01*
G01X39560Y32245D01*
G01X39561Y32261D01*
G01X39560Y32277D01*
G01X39556Y32292D01*
G01X39550Y32307D01*
G01X39542Y32320D01*
G01X39531Y32333D01*
G01X39335Y32529D01*
G01X39316Y32551D01*
G01X39298Y32573D01*
G01X39281Y32597D01*
G01X39266Y32622D01*
G01X39253Y32648D01*
G01X39242Y32675D01*
G01X39233Y32702D01*
G01X39226Y32730D01*
G01X39221Y32759D01*
G01X39218Y32787D01*
G01X39217Y32816D01*
G01X39217Y32859D01*
G01X39216Y32874D01*
G01X39213Y32888D01*
G01X39208Y32902D01*
G01X39201Y32914D01*
G01X39192Y32926D01*
G01X39182Y32936D01*
G01X39170Y32945D01*
G01X39158Y32952D01*
G01X39144Y32957D01*
G01X39130Y32960D01*
G01X39115Y32961D01*
G01X38874Y32961D01*
G01X38851Y32962D01*
G01X38827Y32965D01*
G01X38804Y32971D01*
G01X38782Y32978D01*
G01X38760Y32988D01*
G01X38739Y33000D01*
G01X38720Y33013D01*
G01X38701Y33028D01*
G01X38685Y33045D01*
G01X38669Y33063D01*
G01X38656Y33083D01*
G01X38645Y33103D01*
G01X38635Y33125D01*
G01X38627Y33147D01*
G01X38622Y33170D01*
G01X38619Y33194D01*
G01X38618Y33218D01*
G01X38618Y35615D01*
G01X38619Y35639D01*
G01X38622Y35663D01*
G01X38627Y35686D01*
G01X38635Y35708D01*
G01X38645Y35730D01*
G01X38656Y35750D01*
G01X38669Y35770D01*
G01X38685Y35788D01*
G01X38701Y35805D01*
G01X38720Y35820D01*
G01X38739Y35833D01*
G01X38760Y35845D01*
G01X38782Y35855D01*
G01X38804Y35862D01*
G01X38827Y35868D01*
G01X38851Y35871D01*
G01X38874Y35872D01*
G01X40373Y35872D01*
G01X40396Y35871D01*
G01X40420Y35868D01*
G01X40443Y35862D01*
G01X40465Y35855D01*
G01X40487Y35845D01*
G01X40508Y35833D01*
G01X40527Y35820D01*
G01X40546Y35805D01*
G01X40562Y35788D01*
G01X40578Y35770D01*
G01X40591Y35750D01*
G01X40602Y35730D01*
G01X40612Y35708D01*
G01X40620Y35686D01*
G01X40625Y35663D01*
G01X40628Y35639D01*
G01X40629Y35615D01*
G01X40629Y33218D01*
G01X40628Y33194D01*
G01X40625Y33170D01*
G01X40620Y33147D01*
G01X40612Y33125D01*
G01X40602Y33103D01*
G01X40591Y33083D01*
G01X40578Y33063D01*
G01X40562Y33045D01*
G01X40546Y33028D01*
G01X40527Y33013D01*
G01X40508Y33000D01*
G01X40487Y32988D01*
G01X40465Y32978D01*
G01X40443Y32971D01*
G01X40420Y32965D01*
G01X40396Y32962D01*
G01X40373Y32961D01*
G01X40297Y32961D01*
G01X40283Y32960D01*
G01X40269Y32957D01*
G01X40255Y32952D01*
G01X40243Y32945D01*
G01X40231Y32936D01*
G01X40221Y32926D01*
G01X40212Y32914D01*
G01X40205Y32902D01*
G01X40200Y32888D01*
G01X40197Y32874D01*
G01X40196Y32859D01*
G01X40197Y32844D01*
G01X40201Y32828D01*
G01X40207Y32813D01*
G01X40215Y32800D01*
G01X40225Y32788D01*
G01X40316Y32697D01*
G01X40329Y32686D01*
G01X40342Y32678D01*
G01X40357Y32672D01*
G01X40372Y32668D01*
G01X40388Y32667D01*
G01X45948Y32667D01*
G01X45964Y32668D01*
G01X45980Y32672D01*
G01X45994Y32678D01*
G01X46008Y32686D01*
G01X46020Y32696D01*
G01X47068Y33745D01*
G01X47473Y34151D01*
G01X47484Y34163D01*
G01X47492Y34177D01*
G01X47498Y34192D01*
G01X47502Y34207D01*
G01X47503Y34223D01*
G01X47503Y34562D01*
G01X47797Y34562D01*
G01X47812Y34563D01*
G01X47826Y34566D01*
G01X47839Y34571D01*
G01X47852Y34578D01*
G01X47864Y34587D01*
G01X47874Y34597D01*
G01X47883Y34609D01*
G01X47889Y34621D01*
G01X47895Y34635D01*
G01X47898Y34649D01*
G01X47899Y34663D01*
G01X47899Y35487D01*
G01X47898Y35502D01*
G01X47895Y35516D01*
G01X47883Y35542D01*
G01X47874Y35554D01*
G01X47864Y35564D01*
G01X47852Y35573D01*
G01X47839Y35580D01*
G01X47826Y35585D01*
G01X47812Y35588D01*
G01X47797Y35589D01*
G01X47503Y35589D01*
G01X47503Y36112D01*
G01X47552Y36086D01*
G01X47599Y36058D01*
G01X47645Y36028D01*
G01X47689Y35996D01*
G01X47732Y35962D01*
G01X47746Y35952D01*
G01X47762Y35945D01*
G01X47779Y35940D01*
G01X47797Y35939D01*
G01X47812Y35940D01*
G01X47826Y35943D01*
G01X47839Y35948D01*
G01X47852Y35955D01*
G01X47864Y35963D01*
G01X47874Y35974D01*
G01X47883Y35985D01*
G01X47895Y36011D01*
G01X47898Y36026D01*
G01X47899Y36040D01*
G01X47899Y36550D01*
G01X47897Y36566D01*
G01X47894Y36582D01*
G01X47888Y36597D01*
G01X47879Y36610D01*
G01X47869Y36622D01*
G01X47517Y36975D01*
G01X47504Y36985D01*
G01X47491Y36993D01*
G01X47476Y36999D01*
G01X47461Y37003D01*
G01X47445Y37004D01*
G01X47426Y37003D01*
G01X47408Y36997D01*
G01X47358Y36979D01*
G01X47307Y36963D01*
G01X47255Y36950D01*
G01X47202Y36939D01*
G01X47150Y36930D01*
G01X47096Y36924D01*
G01X47043Y36920D01*
G01X46990Y36919D01*
G01X46940Y36920D01*
G01X46891Y36923D01*
G01X46841Y36929D01*
G01X46792Y36936D01*
G01X46744Y36945D01*
G01X46696Y36957D01*
G01X46648Y36971D01*
G01X46601Y36986D01*
G01X46555Y37004D01*
G01X46509Y37023D01*
G01X46465Y37045D01*
G01X46421Y37068D01*
G01X46379Y37094D01*
G01X46337Y37121D01*
G01X46297Y37149D01*
G01X46258Y37180D01*
G01X46220Y37212D01*
G01X46184Y37246D01*
G01X46149Y37281D01*
G01X46116Y37318D01*
G01X46084Y37356D01*
G01X46054Y37395D01*
G01X46026Y37436D01*
G01X46000Y37478D01*
G01X45975Y37521D01*
G01X45952Y37565D01*
G01X45931Y37609D01*
G01X45924Y37622D01*
G01X45916Y37634D01*
G01X45905Y37645D01*
G01X45894Y37654D01*
G01X45881Y37661D01*
G01X45867Y37666D01*
G01X45853Y37669D01*
G01X45838Y37670D01*
G01X45633Y37670D01*
G01X45604Y37671D01*
G01X45575Y37674D01*
G01X45547Y37679D01*
G01X45519Y37687D01*
G01X45491Y37696D01*
G01X45464Y37707D01*
G01X45438Y37720D01*
G01X45413Y37735D01*
G01X45390Y37751D01*
G01X45367Y37769D01*
G01X45346Y37789D01*
G01X41953Y41179D01*
G01X41941Y41189D01*
G01X41928Y41198D01*
G01X41913Y41204D01*
G01X41897Y41208D01*
G01X41882Y41209D01*
G01X41867Y41208D01*
G01X41853Y41205D01*
G01X41839Y41200D01*
G01X41827Y41193D01*
G01X41815Y41184D01*
G01X41805Y41174D01*
G01X41796Y41162D01*
G01X41789Y41149D01*
G01X41784Y41136D01*
G01X41781Y41122D01*
G01X41780Y41107D01*
G01X41780Y40583D01*
G01X41779Y40559D01*
G01X41776Y40535D01*
G01X41770Y40512D01*
G01X41763Y40490D01*
G01X41753Y40468D01*
G01X41742Y40447D01*
G01X41728Y40428D01*
G01X41713Y40410D01*
G01X41696Y40393D01*
G01X41678Y40378D01*
G01X41658Y40364D01*
G01X41638Y40353D01*
G01X41616Y40343D01*
G01X41594Y40336D01*
G01X41571Y40330D01*
G01X41547Y40327D01*
G01X41523Y40326D01*
G01X37724Y40326D01*
G01X37700Y40327D01*
G01X37676Y40330D01*
G01X37653Y40336D01*
G01X37631Y40343D01*
G01X37609Y40353D01*
G01X37589Y40364D01*
G01X37569Y40378D01*
G01X37551Y40393D01*
G01X37534Y40410D01*
G01X37519Y40428D01*
G01X37505Y40447D01*
G01X37494Y40468D01*
G01X37484Y40490D01*
G01X37477Y40512D01*
G01X37471Y40535D01*
G01X37468Y40559D01*
G01X37467Y40583D01*
G01X37467Y42982D01*
G01X37468Y43006D01*
G01X37471Y43030D01*
G01X37477Y43053D01*
G01X37484Y43075D01*
G01X37494Y43097D01*
G01X37505Y43118D01*
G01X37519Y43137D01*
G01X37534Y43155D01*
G01X37551Y43172D01*
G01X37569Y43187D01*
G01X37589Y43201D01*
G01X37609Y43212D01*
G01X37631Y43222D01*
G01X37653Y43229D01*
G01X37676Y43235D01*
G01X37700Y43238D01*
G01X37724Y43239D01*
G01X41523Y43239D01*
G01X41547Y43238D01*
G01X41571Y43235D01*
G01X41594Y43229D01*
G01X41616Y43222D01*
G01X41638Y43212D01*
G01X41658Y43201D01*
G01X41678Y43187D01*
G01X41696Y43172D01*
G01X41713Y43155D01*
G01X41728Y43137D01*
G01X41742Y43118D01*
G01X41753Y43097D01*
G01X41763Y43075D01*
G01X41770Y43053D01*
G01X41776Y43030D01*
G01X41779Y43006D01*
G01X41780Y42982D01*
G01X41780Y42291D01*
G01X41781Y42276D01*
G01X41784Y42262D01*
G01X41789Y42248D01*
G01X41796Y42236D01*
G01X41805Y42224D01*
G01X41815Y42214D01*
G01X41827Y42205D01*
G01X41839Y42198D01*
G01X41853Y42193D01*
G01X41867Y42190D01*
G01X41882Y42189D01*
G01X41925Y42189D01*
G01X41954Y42188D01*
G01X41983Y42185D01*
G01X42011Y42180D01*
G01X42039Y42173D01*
G01X42067Y42163D01*
G01X42094Y42152D01*
G01X42119Y42139D01*
G01X42144Y42125D01*
G01X42168Y42108D01*
G01X42191Y42090D01*
G01X42212Y42070D01*
G01X45769Y38516D01*
G01X45781Y38506D01*
G01X45794Y38497D01*
G01X45809Y38491D01*
G01X45824Y38488D01*
G01X45840Y38486D01*
G01X45855Y38487D01*
G01X45869Y38490D01*
G01X45883Y38496D01*
G01X45896Y38503D01*
G01X45907Y38512D01*
G01X45918Y38522D01*
G01X45926Y38534D01*
G01X45933Y38547D01*
G01X45954Y38591D01*
G01X45977Y38635D01*
G01X46002Y38677D01*
G01X46028Y38719D01*
G01X46057Y38759D01*
G01X46087Y38799D01*
G01X46118Y38836D01*
G01X46152Y38873D01*
G01X46186Y38908D01*
G01X46223Y38941D01*
G01X46260Y38973D01*
G01X46299Y39003D01*
G01X46339Y39032D01*
G01X46381Y39059D01*
G01X46423Y39084D01*
G01X46467Y39107D01*
G01X46511Y39129D01*
G01X46556Y39148D01*
G01X46603Y39166D01*
G01X46649Y39181D01*
G01X46697Y39195D01*
G01X46745Y39206D01*
G01X46793Y39215D01*
G01X46842Y39223D01*
G01X46891Y39228D01*
G01X46940Y39231D01*
G01X46990Y39232D01*
G01X47039Y39231D01*
G01X47088Y39228D01*
G01X47136Y39223D01*
G01X47185Y39216D01*
G01X47233Y39206D01*
G01X47281Y39195D01*
G01X47328Y39181D01*
G01X47375Y39166D01*
G01X47421Y39149D01*
G01X47466Y39129D01*
G01X47510Y39108D01*
G01X47554Y39085D01*
G01X47596Y39060D01*
G01X47637Y39034D01*
G01X47677Y39005D01*
G01X47716Y38975D01*
G01X47754Y38944D01*
G01X47790Y38911D01*
G01X47824Y38876D01*
G01X47858Y38840D01*
G01X47889Y38802D01*
G01X47919Y38763D01*
G01X47948Y38723D01*
G01X47974Y38682D01*
G01X47999Y38640D01*
G01X48022Y38596D01*
G01X48043Y38552D01*
G01X48063Y38507D01*
G01X48080Y38461D01*
G01X48095Y38414D01*
G01X48109Y38367D01*
G01X48120Y38319D01*
G01X48129Y38271D01*
G01X48137Y38223D01*
G01X48142Y38174D01*
G01X48145Y38125D01*
G01X48146Y38076D01*
G01X48145Y38022D01*
G01X48141Y37969D01*
G01X48135Y37916D01*
G01X48126Y37863D01*
G01X48115Y37811D01*
G01X48102Y37760D01*
G01X48086Y37709D01*
G01X48068Y37658D01*
G01X48063Y37640D01*
G01X48061Y37622D01*
G01X48063Y37606D01*
G01X48066Y37590D01*
G01X48072Y37576D01*
G01X48081Y37562D01*
G01X48091Y37550D01*
G01X48593Y37048D01*
G01X48612Y37027D01*
G01X48631Y37005D01*
G01X48647Y36981D01*
G01X48662Y36956D01*
G01X48675Y36930D01*
G01X48686Y36903D01*
G01X48695Y36875D01*
G01X48702Y36847D01*
G01X48708Y36819D01*
G01X48711Y36790D01*
G01X48712Y36761D01*
G01X48712Y34409D01*
G01X48711Y34380D01*
G01X48708Y34351D01*
G01X48702Y34323D01*
G01X48695Y34294D01*
G01X48686Y34267D01*
G01X48675Y34240D01*
G01X48662Y34214D01*
G01X48647Y34189D01*
G01X48631Y34165D01*
G01X48613Y34143D01*
G01X48593Y34122D01*
G01X46447Y31973D01*
G01X46425Y31953D01*
G01X46403Y31935D01*
G01X46379Y31918D01*
G01X46354Y31903D01*
G01X46328Y31890D01*
G01X46301Y31879D01*
G01X46274Y31870D01*
G01X46245Y31863D01*
G01X46217Y31858D01*
G01X46188Y31855D01*
G01X46159Y31854D01*
G01X40388Y31854D01*
G01X40372Y31852D01*
G01X40356Y31849D01*
G01X40342Y31842D01*
G01X40328Y31834D01*
G01X40316Y31824D01*
G01X34604Y26112D01*
G01X34594Y26100D01*
G01X34585Y26086D01*
G01X34579Y26071D01*
G01X34575Y26056D01*
G01X34574Y26040D01*
G01X34574Y17526D01*
G01X34573Y17496D01*
G01X34570Y17468D01*
G01X34565Y17439D01*
G01X34558Y17411D01*
G01X34548Y17383D01*
G01X34537Y17357D01*
G01X34524Y17331D01*
G01X34510Y17306D01*
G01X34493Y17282D01*
G01X34475Y17259D01*
G01X34455Y17238D01*
G01X34434Y17218D01*
G01X34411Y17200D01*
G01X34387Y17183D01*
G01X34362Y17169D01*
G01X34336Y17156D01*
G01X34310Y17145D01*
G01X34282Y17135D01*
G01X34254Y17128D01*
G01X34225Y17123D01*
G01X34197Y17120D01*
G01X34168Y17119D01*
G01X34124Y17119D01*
G01X34109Y17118D01*
G01X34095Y17115D01*
G01X34081Y17110D01*
G01X34069Y17103D01*
G01X34057Y17094D01*
G01X34047Y17084D01*
G01X34038Y17072D01*
G01X34031Y17060D01*
G01X34026Y17046D01*
G01X34023Y17032D01*
G01X34022Y17017D01*
G01X34021Y16994D01*
G01X34018Y16971D01*
G01X34013Y16949D01*
G01X34005Y16927D01*
G01X34000Y16909D01*
G01X33999Y16891D01*
G01X34000Y16872D01*
G01X34005Y16854D01*
G01X34013Y16832D01*
G01X34018Y16810D01*
G01X34021Y16787D01*
G01X34022Y16763D01*
G01X34022Y15748D01*
G01X34021Y15724D01*
G01X34018Y15701D01*
G01X34013Y15679D01*
G01X34005Y15657D01*
G01X34000Y15639D01*
G01X33999Y15621D01*
G01X34000Y15602D01*
G01X34005Y15584D01*
G01X34013Y15562D01*
G01X34018Y15540D01*
G01X34021Y15517D01*
G01X34022Y15493D01*
G01X34022Y14478D01*
G01X34021Y14454D01*
G01X34018Y14431D01*
G01X34013Y14409D01*
G01X34005Y14387D01*
G01X34000Y14369D01*
G01X33999Y14351D01*
G01X34000Y14332D01*
G01X34005Y14314D01*
G01X34013Y14292D01*
G01X34018Y14270D01*
G01X34021Y14247D01*
G01X34022Y14223D01*
G01X34022Y13208D01*
G01X34021Y13184D01*
G01X34018Y13161D01*
G01X34013Y13139D01*
G01X34005Y13117D01*
G01X34000Y13099D01*
G01X33999Y13081D01*
G01X34000Y13062D01*
G01X34005Y13044D01*
G01X34013Y13022D01*
G01X34018Y13000D01*
G01X34021Y12977D01*
G01X34022Y12953D01*
G01X34022Y11938D01*
G01X34021Y11914D01*
G01X34018Y11891D01*
G01X34013Y11869D01*
G01X34005Y11847D01*
G01X34000Y11829D01*
G01X33999Y11811D01*
G01X34000Y11792D01*
G01X34005Y11774D01*
G01X34013Y11752D01*
G01X34018Y11730D01*
G01X34021Y11707D01*
G01X34022Y11683D01*
G01X34022Y10668D01*
G01X34021Y10644D01*
G01X34018Y10621D01*
G01X34013Y10599D01*
G01X34005Y10577D01*
G01X34000Y10559D01*
G01X33999Y10541D01*
G01X34000Y10522D01*
G01X34005Y10504D01*
G01X34013Y10482D01*
G01X34018Y10460D01*
G01X34021Y10437D01*
G01X34022Y10413D01*
G01X34022Y9398D01*
G01X34021Y9374D01*
G01X34018Y9351D01*
G01X34013Y9329D01*
G01X34005Y9307D01*
G01X34000Y9289D01*
G01X33999Y9271D01*
G01X34000Y9252D01*
G01X34005Y9234D01*
G01X34013Y9212D01*
G01X34018Y9190D01*
G01X34021Y9167D01*
G01X34022Y9143D01*
G01X34022Y8128D01*
G01X34021Y8104D01*
G01X34018Y8081D01*
G01X34013Y8059D01*
G01X34005Y8037D01*
G01X34000Y8019D01*
G01X33999Y8001D01*
G01X34000Y7982D01*
G01X34005Y7964D01*
G01X34013Y7942D01*
G01X34018Y7920D01*
G01X34021Y7897D01*
G01X34022Y7873D01*
G01X34022Y6858D01*
G01X34021Y6834D01*
G01X34018Y6811D01*
G01X34013Y6789D01*
G01X34005Y6767D01*
G01X34000Y6749D01*
G01X33999Y6731D01*
G01X34000Y6712D01*
G01X34005Y6694D01*
G01X34013Y6672D01*
G01X34018Y6650D01*
G01X34021Y6627D01*
G01X34022Y6603D01*
G01X34022Y5588D01*
G01X34021Y5564D01*
G01X34018Y5541D01*
G01X34013Y5519D01*
G01X34005Y5497D01*
G01X34000Y5479D01*
G01X33999Y5461D01*
G01X34000Y5442D01*
G01X34005Y5424D01*
G01X34013Y5402D01*
G01X34018Y5380D01*
G01X34021Y5357D01*
G01X34022Y5333D01*
G01X34022Y4318D01*
G01X34021Y4294D01*
G01X34018Y4271D01*
G01X34013Y4249D01*
G01X34005Y4227D01*
G01X34000Y4209D01*
G01X33999Y4191D01*
G01X34000Y4172D01*
G01X34005Y4154D01*
G01X34013Y4132D01*
G01X34018Y4110D01*
G01X34021Y4087D01*
G01X34022Y4063D01*
G01X34022Y3048D01*
G01X34021Y3024D01*
G01X34018Y3000D01*
G01X34012Y2977D01*
G01X34005Y2955D01*
G01X33995Y2933D01*
G01X33984Y2912D01*
G01X33970Y2893D01*
G01X33955Y2875D01*
G01X33938Y2858D01*
G01X33920Y2843D01*
G01X33901Y2829D01*
G01X33880Y2818D01*
G01X33858Y2808D01*
G01X33836Y2801D01*
G01X33813Y2795D01*
G01X33789Y2792D01*
G01X33765Y2791D01*
G01X31766Y2791D01*
G01X31742Y2792D01*
G01X31718Y2795D01*
G01X31695Y2801D01*
G01X31673Y2808D01*
G01X31651Y2818D01*
G01X31630Y2829D01*
G01X31611Y2843D01*
G01X31593Y2858D01*
G01X31576Y2875D01*
G01X31561Y2893D01*
G01X31547Y2912D01*
G01X31536Y2933D01*
G01X31526Y2955D01*
G01X31519Y2977D01*
G01X31513Y3000D01*
G01X31510Y3024D01*
G01X31509Y3048D01*
G01X31509Y4064D01*
G01X31510Y4087D01*
G01X31513Y4110D01*
G01X31518Y4132D01*
G01X31526Y4154D01*
G01X31531Y4172D01*
G01X31532Y4190D01*
G01X31531Y4209D01*
G01X31526Y4227D01*
G01X31518Y4249D01*
G01X31513Y4271D01*
G01X31510Y4294D01*
G01X31509Y4318D01*
G01X31509Y5334D01*
G01X31510Y5357D01*
G01X31513Y5380D01*
G01X31518Y5402D01*
G01X31526Y5424D01*
G01X31531Y5442D01*
G01X31532Y5460D01*
G01X31531Y5479D01*
G01X31526Y5497D01*
G01X31518Y5519D01*
G01X31513Y5541D01*
G01X31510Y5564D01*
G01X31509Y5588D01*
G01X31509Y6604D01*
G01X31510Y6627D01*
G01X31513Y6650D01*
G01X31518Y6672D01*
G01X31526Y6694D01*
G01X31531Y6712D01*
G01X31532Y6730D01*
G01X31531Y6749D01*
G01X31526Y6767D01*
G01X31518Y6789D01*
G01X31513Y6811D01*
G01X31510Y6834D01*
G01X31509Y6858D01*
G01X31509Y7874D01*
G01X31510Y7897D01*
G01X31513Y7920D01*
G01X31518Y7942D01*
G01X31526Y7964D01*
G01X31531Y7982D01*
G01X31532Y8000D01*
G01X31531Y8019D01*
G01X31526Y8037D01*
G01X31518Y8059D01*
G01X31513Y8081D01*
G01X31510Y8104D01*
G01X31509Y8128D01*
G01X31509Y9144D01*
G01X31510Y9167D01*
G01X31513Y9190D01*
G01X31518Y9212D01*
G01X31526Y9234D01*
G01X31531Y9252D01*
G01X31532Y9270D01*
G01X31531Y9289D01*
G01X31526Y9307D01*
G01X31524Y9311D01*
G01X31518Y9325D01*
G01X31509Y9338D01*
G01X31499Y9350D01*
G01X31487Y9360D01*
G01X31473Y9368D01*
G01X31459Y9374D01*
G01X31444Y9377D01*
G01X31428Y9378D01*
G01X31411Y9377D01*
G01X31394Y9372D01*
G01X31378Y9365D01*
G01X31351Y9351D01*
G01X31323Y9339D01*
G01X31295Y9329D01*
G01X31265Y9321D01*
G01X31236Y9315D01*
G01X31206Y9312D01*
G01X31175Y9311D01*
G01X23883Y9311D01*
G01X23868Y9310D01*
G01X23853Y9306D01*
G01X23839Y9301D01*
G01X23826Y9293D01*
G01X23797Y9275D01*
G01X23768Y9258D01*
G01X23737Y9243D01*
G01X23706Y9230D01*
G01X23674Y9219D01*
G01X23641Y9210D01*
G01X23608Y9203D01*
G01X23575Y9198D01*
G01X23541Y9195D01*
G01X23507Y9194D01*
G01X23473Y9195D01*
G01X23440Y9198D01*
G01X23406Y9203D01*
G01X23373Y9210D01*
G01X23340Y9220D01*
G01X23308Y9231D01*
G01X23277Y9244D01*
G01X23246Y9258D01*
G01X23217Y9275D01*
G01X23188Y9293D01*
G01X23161Y9314D01*
G01X23135Y9335D01*
G01X23110Y9359D01*
G01X23087Y9383D01*
G01X23065Y9409D01*
G01X23045Y9437D01*
G01X23027Y9465D01*
G01X23010Y9495D01*
G01X22995Y9525D01*
G01X22982Y9557D01*
G01X22971Y9589D01*
G01X22962Y9621D01*
G01X22955Y9654D01*
G01X22950Y9688D01*
G01X22947Y9722D01*
G01X22946Y9756D01*
G01X22947Y9790D01*
G01X22950Y9824D01*
G01X22955Y9858D01*
G01X22962Y9892D01*
G01X22972Y9925D01*
G01X22983Y9957D01*
G01X22996Y9989D01*
G01X23011Y10019D01*
G01X23029Y10049D01*
G01X23047Y10078D01*
G01X23068Y10105D01*
G01X23090Y10132D01*
G01X23114Y10156D01*
G01X23139Y10180D01*
G01X23166Y10201D01*
G01X23193Y10221D01*
G01X23223Y10240D01*
G01X23253Y10256D01*
G01X23284Y10271D01*
G01X23316Y10283D01*
G01X23348Y10294D01*
G01X23381Y10303D01*
G01X23396Y10307D01*
G01X23410Y10314D01*
G01X23422Y10323D01*
G01X23433Y10333D01*
G01X23443Y10345D01*
G01X23450Y10358D01*
G01X23456Y10372D01*
G01X23459Y10387D01*
G01X23460Y10402D01*
G01X23459Y10418D01*
G01X23455Y10433D01*
G01X23449Y10448D01*
G01X23441Y10462D01*
G01X23430Y10474D01*
G01X21517Y12385D01*
G01X21505Y12396D01*
G01X21491Y12404D01*
G01X21477Y12410D01*
G01X21461Y12414D01*
G01X21445Y12415D01*
G01X19237Y12415D01*
G01X19219Y12413D01*
G01X19202Y12409D01*
G01X19186Y12401D01*
G01X19172Y12391D01*
G01X19144Y12369D01*
G01X19114Y12349D01*
G01X19084Y12331D01*
G01X19052Y12314D01*
G01X19019Y12300D01*
G01X18986Y12288D01*
G01X18952Y12278D01*
G01X18917Y12270D01*
G01X18882Y12264D01*
G01X18846Y12261D01*
G01X18811Y12260D01*
G01X18777Y12261D01*
G01X18743Y12264D01*
G01X18710Y12269D01*
G01X18676Y12276D01*
G01X18644Y12285D01*
G01X18612Y12296D01*
G01X18580Y12309D01*
G01X18550Y12324D01*
G01X18520Y12341D01*
G01X18492Y12359D01*
G01X18464Y12379D01*
G01X18438Y12401D01*
G01X18414Y12424D01*
G01X18390Y12449D01*
G01X18369Y12475D01*
G01X18349Y12502D01*
G01X18330Y12531D01*
G01X18314Y12560D01*
G01X18299Y12591D01*
G01X18286Y12622D01*
G01X18275Y12654D01*
G01X18266Y12687D01*
G01X18258Y12720D01*
G01X18253Y12754D01*
G01X18250Y12788D01*
G01X18249Y12821D01*
G01X18250Y12855D01*
G01X18253Y12889D01*
G01X18258Y12923D01*
G01X18266Y12956D01*
G01X18275Y12988D01*
G01X18286Y13021D01*
G01X18299Y13052D01*
G01X18314Y13082D01*
G01X18330Y13112D01*
G01X18349Y13140D01*
G01X18369Y13168D01*
G01X18390Y13194D01*
G01X18438Y13242D01*
G01X18464Y13263D01*
G01X18492Y13284D01*
G01X18520Y13302D01*
G01X18550Y13319D01*
G01X18580Y13333D01*
G01X18612Y13346D01*
G01X18644Y13358D01*
G01X18676Y13367D01*
G01X18710Y13374D01*
G01X18743Y13379D01*
G01X18777Y13382D01*
G01X18811Y13383D01*
G01X18846Y13382D01*
G01X18882Y13378D01*
G01X18917Y13373D01*
G01X18952Y13365D01*
G01X18986Y13355D01*
G01X19019Y13343D01*
G01X19052Y13329D01*
G01X19084Y13312D01*
G01X19114Y13294D01*
G01X19144Y13274D01*
G01X19172Y13252D01*
G01X19186Y13242D01*
G01X19202Y13234D01*
G01X19219Y13230D01*
G01X19237Y13228D01*
G01X21430Y13228D01*
G01X21444Y13229D01*
G01X21458Y13232D01*
G01X21472Y13237D01*
G01X21484Y13244D01*
G01X21496Y13253D01*
G01X21506Y13263D01*
G01X21515Y13275D01*
G01X21522Y13287D01*
G01X21527Y13301D01*
G01X21530Y13315D01*
G01X21531Y13330D01*
G01X21530Y13345D01*
G01X21526Y13361D01*
G01X21520Y13376D01*
G01X21512Y13389D01*
G01X21501Y13401D01*
G01X16415Y18487D01*
G01X16403Y18498D01*
G01X16390Y18506D01*
G01X16375Y18512D01*
G01X16360Y18516D01*
G01X16344Y18517D01*
G01X16329Y18516D01*
G01X16315Y18513D01*
G01X16301Y18508D01*
G01X16289Y18501D01*
G01X16277Y18492D01*
G01X16267Y18482D01*
G01X16258Y18470D01*
G01X16251Y18458D01*
G01X16246Y18444D01*
G01X16243Y18430D01*
G01X16242Y18415D01*
G01X16242Y18288D01*
G01X16241Y18264D01*
G01X16238Y18241D01*
G01X16233Y18219D01*
G01X16225Y18197D01*
G01X16220Y18179D01*
G01X16219Y18161D01*
G01X16220Y18142D01*
G01X16225Y18124D01*
G01X16233Y18102D01*
G01X16238Y18080D01*
G01X16241Y18057D01*
G01X16242Y18033D01*
G01X16242Y17018D01*
G01X16241Y16994D01*
G01X16238Y16971D01*
G01X16233Y16949D01*
G01X16225Y16927D01*
G01X16220Y16909D01*
G01X16219Y16891D01*
G01X16220Y16872D01*
G01X16225Y16854D01*
G01X16233Y16832D01*
G01X16238Y16810D01*
G01X16241Y16787D01*
G01X16242Y16763D01*
G01X16242Y15748D01*
G01X16241Y15724D01*
G01X16238Y15701D01*
G01X16233Y15679D01*
G01X16225Y15657D01*
G01X16220Y15639D01*
G01X16219Y15621D01*
G01X16220Y15602D01*
G01X16225Y15584D01*
G01X16233Y15562D01*
G01X16238Y15540D01*
G01X16241Y15517D01*
G01X16242Y15493D01*
G01X16242Y14478D01*
G01X16241Y14454D01*
G01X16238Y14431D01*
G01X16233Y14409D01*
G01X16225Y14387D01*
G01X16220Y14369D01*
G01X16219Y14351D01*
G01X16220Y14332D01*
G01X16225Y14314D01*
G01X16233Y14292D01*
G01X16238Y14270D01*
G01X16241Y14247D01*
G01X16242Y14223D01*
G01X16242Y13208D01*
G01X16241Y13184D01*
G01X16238Y13161D01*
G01X16233Y13139D01*
G01X16225Y13117D01*
G01X16220Y13099D01*
G01X16219Y13081D01*
G01X16220Y13062D01*
G01X16225Y13044D01*
G01X16233Y13022D01*
G01X16238Y13000D01*
G01X16241Y12977D01*
G01X16242Y12953D01*
G01X16242Y11938D01*
G01X16241Y11914D01*
G01X16238Y11891D01*
G01X16233Y11869D01*
G01X16225Y11847D01*
G01X16220Y11829D01*
G01X16219Y11811D01*
G01X16220Y11792D01*
G01X16225Y11774D01*
G01X16233Y11752D01*
G01X16238Y11730D01*
G01X16241Y11707D01*
G01X16242Y11683D01*
G01X16242Y10668D01*
G01X16241Y10644D01*
G01X16238Y10621D01*
G01X16233Y10599D01*
G01X16225Y10577D01*
G01X16220Y10559D01*
G01X16219Y10541D01*
G01X16220Y10522D01*
G01X16225Y10504D01*
G01X16233Y10482D01*
G01X16238Y10460D01*
G01X16241Y10437D01*
G01X16242Y10413D01*
G01X16242Y9398D01*
G01X16241Y9374D01*
G01X16238Y9351D01*
G01X16233Y9329D01*
G01X16225Y9307D01*
G01X16220Y9289D01*
G01X16219Y9271D01*
G01X16220Y9252D01*
G01X16225Y9234D01*
G01X16233Y9212D01*
G01X16238Y9190D01*
G01X16241Y9167D01*
G01X16242Y9143D01*
G01X16242Y8128D01*
G01X16241Y8104D01*
G01X16238Y8081D01*
G01X16233Y8059D01*
G01X16225Y8037D01*
G01X16220Y8019D01*
G01X16219Y8001D01*
G01X16220Y7982D01*
G01X16225Y7964D01*
G01X16233Y7942D01*
G01X16238Y7920D01*
G01X16241Y7897D01*
G01X16242Y7873D01*
G01X16242Y6858D01*
G01X16241Y6834D01*
G01X16238Y6811D01*
G01X16233Y6789D01*
G01X16225Y6767D01*
G01X16220Y6749D01*
G01X16219Y6731D01*
G01X16220Y6712D01*
G01X16225Y6694D01*
G01X16233Y6672D01*
G01X16238Y6650D01*
G01X16241Y6627D01*
G01X16242Y6603D01*
G01X16242Y5588D01*
G01X16241Y5564D01*
G01X16238Y5541D01*
G01X16233Y5519D01*
G01X16225Y5497D01*
G01X16220Y5479D01*
G01X16219Y5461D01*
G01X16220Y5442D01*
G01X16225Y5424D01*
G01X16233Y5402D01*
G01X16238Y5380D01*
G01X16241Y5357D01*
G01X16242Y5333D01*
G01X16242Y4318D01*
G01X16241Y4294D01*
G01X16238Y4271D01*
G01X16233Y4249D01*
G01X16225Y4227D01*
G01X16220Y4209D01*
G01X16219Y4191D01*
G01X16220Y4172D01*
G01X16225Y4154D01*
G01X16233Y4132D01*
G01X16238Y4110D01*
G01X16241Y4087D01*
G01X16242Y4063D01*
G01X16242Y3873D01*
G01X15549Y3873D01*
G01X15549Y3959D01*
G01X15548Y3974D01*
G01X15545Y3988D01*
G01X15540Y4002D01*
G01X15533Y4014D01*
G01X15524Y4026D01*
G01X15514Y4036D01*
G01X15502Y4045D01*
G01X15490Y4052D01*
G01X15476Y4057D01*
G01X15462Y4060D01*
G01X15447Y4061D01*
G01X14524Y4061D01*
G01X14509Y4060D01*
G01X14495Y4057D01*
G01X14481Y4052D01*
G01X14469Y4045D01*
G01X14457Y4036D01*
G01X14447Y4026D01*
G01X14438Y4014D01*
G01X14431Y4002D01*
G01X14426Y3988D01*
G01X14423Y3974D01*
G01X14422Y3959D01*
G01X14422Y3873D01*
G01X13729Y3873D01*
G01X13729Y4064D01*
G01X13730Y4087D01*
G01X13733Y4110D01*
G01X13738Y4132D01*
G01X13746Y4154D01*
G01X13751Y4172D01*
G01X13752Y4190D01*
G01X13751Y4209D01*
G01X13746Y4227D01*
G01X13738Y4249D01*
G01X13733Y4271D01*
G01X13730Y4294D01*
G01X13729Y4318D01*
G01X13729Y5016D01*
G01X13728Y5030D01*
G01X13725Y5044D01*
G01X13720Y5058D01*
G01X13713Y5071D01*
G01X13704Y5082D01*
G01X13694Y5093D01*
G01X13682Y5101D01*
G01X13670Y5108D01*
G01X13656Y5113D01*
G01X13642Y5116D01*
G01X13627Y5117D01*
G01X13608Y5116D01*
G01X13557Y5099D01*
G01X13524Y5089D01*
G01X13490Y5081D01*
G01X13455Y5076D01*
G01X13420Y5073D01*
G01X13385Y5072D01*
G01X13351Y5073D01*
G01X13317Y5076D01*
G01X13283Y5081D01*
G01X13250Y5088D01*
G01X13217Y5097D01*
G01X13185Y5109D01*
G01X13153Y5122D01*
G01X13123Y5137D01*
G01X13093Y5154D01*
G01X13064Y5172D01*
G01X13037Y5193D01*
G01X13011Y5215D01*
G01X12986Y5238D01*
G01X12963Y5263D01*
G01X12941Y5290D01*
G01X12921Y5317D01*
G01X12906Y5335D01*
G01X12895Y5346D01*
G01X11800Y6440D01*
G01X11780Y6462D01*
G01X11762Y6484D01*
G01X11745Y6508D01*
G01X11731Y6533D01*
G01X11718Y6559D01*
G01X11706Y6586D01*
G01X11697Y6613D01*
G01X11690Y6642D01*
G01X11685Y6670D01*
G01X11682Y6699D01*
G01X11681Y6728D01*
G01X11681Y8814D01*
G01X11680Y8828D01*
G01X11677Y8842D01*
G01X11672Y8856D01*
G01X11665Y8869D01*
G01X11656Y8880D01*
G01X11646Y8891D01*
G01X11634Y8899D01*
G01X11621Y8906D01*
G01X11608Y8911D01*
G01X11594Y8914D01*
G01X11579Y8915D01*
G01X11562Y8914D01*
G01X11545Y8909D01*
G01X11511Y8898D01*
G01X11476Y8890D01*
G01X11441Y8883D01*
G01X11405Y8879D01*
G01X11388Y8876D01*
G01X11371Y8870D01*
G01X11356Y8861D01*
G01X11342Y8849D01*
G01X8936Y6443D01*
G01X8914Y6423D01*
G01X8892Y6405D01*
G01X8868Y6388D01*
G01X8843Y6374D01*
G01X8817Y6361D01*
G01X8790Y6350D01*
G01X8763Y6340D01*
G01X8735Y6333D01*
G01X8706Y6328D01*
G01X8677Y6325D01*
G01X8648Y6324D01*
G01X6152Y6324D01*
G01X6136Y6323D01*
G01X6121Y6319D01*
G01X6106Y6313D01*
G01X6093Y6305D01*
G01X6081Y6295D01*
G01X6070Y6283D01*
G01X6039Y6243D01*
G01X6005Y6206D01*
G01X5969Y6171D01*
G01X5958Y6158D01*
G01X5949Y6144D01*
G01X5942Y6129D01*
G01X5938Y6112D01*
G01X5936Y6095D01*
G01X5938Y6079D01*
G01X5942Y6062D01*
G01X5949Y6047D01*
G01X5958Y6033D01*
G01X5969Y6020D01*
G01X6005Y5985D01*
G01X6039Y5948D01*
G01X6070Y5908D01*
G01X6081Y5896D01*
G01X6093Y5886D01*
G01X6106Y5878D01*
G01X6121Y5872D01*
G01X6136Y5868D01*
G01X6152Y5867D01*
G01X9286Y5867D01*
G01X9302Y5868D01*
G01X9317Y5872D01*
G01X9332Y5878D01*
G01X9346Y5886D01*
G01X9358Y5897D01*
G01X10213Y6754D01*
G01X10225Y6768D01*
G01X10234Y6783D01*
G01X10240Y6800D01*
G01X10243Y6817D01*
G01X10247Y6852D01*
G01X10253Y6886D01*
G01X10261Y6920D01*
G01X10272Y6953D01*
G01X10284Y6985D01*
G01X10298Y7017D01*
G01X10315Y7047D01*
G01X10333Y7077D01*
G01X10353Y7105D01*
G01X10374Y7133D01*
G01X10398Y7158D01*
G01X10423Y7182D01*
G01X10449Y7205D01*
G01X10477Y7226D01*
G01X10505Y7245D01*
G01X10536Y7263D01*
G01X10567Y7278D01*
G01X10599Y7292D01*
G01X10631Y7304D01*
G01X10665Y7313D01*
G01X10699Y7321D01*
G01X10733Y7326D01*
G01X10767Y7329D01*
G01X10802Y7330D01*
G01X10836Y7329D01*
G01X10870Y7326D01*
G01X10903Y7321D01*
G01X10937Y7314D01*
G01X10969Y7305D01*
G01X11001Y7294D01*
G01X11033Y7281D01*
G01X11063Y7266D01*
G01X11093Y7249D01*
G01X11121Y7231D01*
G01X11148Y7211D01*
G01X11174Y7189D01*
G01X11199Y7166D01*
G01X11222Y7141D01*
G01X11244Y7115D01*
G01X11264Y7088D01*
G01X11283Y7059D01*
G01X11299Y7030D01*
G01X11314Y6999D01*
G01X11327Y6968D01*
G01X11338Y6936D01*
G01X11347Y6903D01*
G01X11354Y6870D01*
G01X11360Y6836D01*
G01X11363Y6803D01*
G01X11364Y6769D01*
G01X11363Y6734D01*
G01X11359Y6699D01*
G01X11354Y6665D01*
G01X11347Y6631D01*
G01X11337Y6598D01*
G01X11326Y6565D01*
G01X11312Y6533D01*
G01X11297Y6502D01*
G01X11279Y6472D01*
G01X11260Y6443D01*
G01X11239Y6416D01*
G01X11216Y6389D01*
G01X11192Y6365D01*
G01X11167Y6341D01*
G01X11139Y6320D01*
G01X11111Y6300D01*
G01X11082Y6282D01*
G01X11051Y6265D01*
G01X11019Y6251D01*
G01X10987Y6238D01*
G01X10954Y6228D01*
G01X10920Y6220D01*
G01X10886Y6213D01*
G01X10852Y6209D01*
G01X10834Y6206D01*
G01X10818Y6200D01*
G01X10802Y6191D01*
G01X10789Y6180D01*
G01X9784Y5173D01*
G01X9763Y5153D01*
G01X9740Y5135D01*
G01X9717Y5119D01*
G01X9692Y5104D01*
G01X9666Y5091D01*
G01X9639Y5080D01*
G01X9611Y5070D01*
G01X9583Y5063D01*
G01X9554Y5058D01*
G01X9526Y5055D01*
G01X9497Y5054D01*
G01X6152Y5054D01*
G01X6136Y5053D01*
G01X6121Y5049D01*
G01X6106Y5043D01*
G01X6093Y5035D01*
G01X6081Y5025D01*
G01X6070Y5013D01*
G01X6039Y4973D01*
G01X6005Y4936D01*
G01X5969Y4901D01*
G01X5958Y4888D01*
G01X5949Y4874D01*
G01X5942Y4859D01*
G01X5938Y4842D01*
G01X5936Y4825D01*
G01X5938Y4809D01*
G01X5942Y4792D01*
G01X5949Y4777D01*
G01X5958Y4763D01*
G01X5969Y4750D01*
G01X6005Y4715D01*
G01X6039Y4678D01*
G01X6070Y4638D01*
G01X6081Y4626D01*
G01X6093Y4616D01*
G01X6106Y4608D01*
G01X6121Y4602D01*
G01X6136Y4598D01*
G01X6152Y4597D01*
G01X8395Y4597D01*
G01X8412Y4599D01*
G01X8430Y4603D01*
G01X8446Y4611D01*
G01X8460Y4621D01*
G01X8488Y4643D01*
G01X8517Y4663D01*
G01X8548Y4681D01*
G01X8580Y4698D01*
G01X8612Y4712D01*
G01X8646Y4724D01*
G01X8680Y4734D01*
G01X8715Y4742D01*
G01X8750Y4748D01*
G01X8785Y4751D01*
G01X8821Y4752D01*
G01X8855Y4751D01*
G01X8889Y4748D01*
G01X8922Y4743D01*
G01X8955Y4736D01*
G01X8988Y4727D01*
G01X9020Y4716D01*
G01X9051Y4703D01*
G01X9082Y4688D01*
G01X9111Y4671D01*
G01X9140Y4653D01*
G01X9167Y4633D01*
G01X9193Y4611D01*
G01X9218Y4588D01*
G01X9241Y4563D01*
G01X9263Y4537D01*
G01X9283Y4509D01*
G01X9301Y4481D01*
G01X9318Y4451D01*
G01X9333Y4421D01*
G01X9346Y4390D01*
G01X9357Y4358D01*
G01X9366Y4325D01*
G01X9373Y4292D01*
G01X9378Y4258D01*
G01X9381Y4224D01*
G01X9382Y4191D01*
G01X9381Y4157D01*
G01X9378Y4123D01*
G01X9373Y4089D01*
G01X9366Y4056D01*
G01X9357Y4023D01*
G01X9346Y3991D01*
G01X9333Y3960D01*
G01X9318Y3930D01*
G01X9301Y3900D01*
G01X9283Y3872D01*
G01X9263Y3844D01*
G01X9241Y3818D01*
G01X9218Y3793D01*
G01X9193Y3770D01*
G01X9167Y3748D01*
G01X9140Y3728D01*
G01X9111Y3710D01*
G01X9082Y3693D01*
G01X9051Y3678D01*
G01X9020Y3665D01*
G01X8988Y3654D01*
G01X8955Y3645D01*
G01X8922Y3638D01*
G01X8889Y3633D01*
G01X8855Y3630D01*
G01X8821Y3629D01*
G01X8785Y3630D01*
G01X8750Y3633D01*
G01X8715Y3639D01*
G01X8680Y3647D01*
G01X8646Y3657D01*
G01X8612Y3669D01*
G01X8580Y3683D01*
G01X8548Y3700D01*
G01X8517Y3718D01*
G01X8488Y3738D01*
G01X8460Y3760D01*
G01X8446Y3770D01*
G01X8430Y3778D01*
G01X8412Y3782D01*
G01X8395Y3784D01*
G01X6152Y3784D01*
G01X6136Y3783D01*
G01X6121Y3779D01*
G01X6106Y3773D01*
G01X6093Y3765D01*
G01X6081Y3755D01*
G01X6070Y3743D01*
G01X6039Y3703D01*
G01X6005Y3666D01*
G01X5969Y3631D01*
G01X5958Y3618D01*
G01X5949Y3604D01*
G01X5942Y3589D01*
G01X5938Y3572D01*
G01X5936Y3555D01*
G01X5938Y3539D01*
G01X5942Y3522D01*
G01X5949Y3507D01*
G01X5958Y3493D01*
G01X5969Y3480D01*
G01X5998Y3453D01*
G01X6025Y3424D01*
G01X6050Y3394D01*
G01X6074Y3363D01*
G01X6096Y3330D01*
G01X6117Y3297D01*
G01X6135Y3262D01*
G01X6152Y3227D01*
G01X6167Y3190D01*
G01X6180Y3153D01*
G01X6192Y3115D01*
G01X6201Y3077D01*
G01X6208Y3038D01*
G01X6213Y2999D01*
G01X6216Y2960D01*
G01X6217Y2920D01*
G01X6216Y2881D01*
G01X6213Y2842D01*
G01X6208Y2803D01*
G01X6201Y2764D01*
G01X6191Y2725D01*
G01X6180Y2688D01*
G01X6167Y2650D01*
G01X6152Y2614D01*
G01X6135Y2578D01*
G01X6116Y2544D01*
G01X6096Y2510D01*
G01X6074Y2477D01*
G01X6050Y2446D01*
G01X6040Y2432D01*
G01X6033Y2416D01*
G01X6029Y2399D01*
G01X6027Y2382D01*
G01X6028Y2368D01*
G01X6031Y2354D01*
G01X6036Y2340D01*
G01X6043Y2327D01*
G01X6052Y2316D01*
G01X6062Y2305D01*
G01X6074Y2297D01*
G01X6087Y2290D01*
G01X6100Y2285D01*
G01X6114Y2282D01*
G01X6129Y2281D01*
G01X13162Y2281D01*
G01X13176Y2282D01*
G01X13190Y2285D01*
G01X13204Y2290D01*
G01X13217Y2297D01*
G01X13228Y2305D01*
G01X13239Y2316D01*
G01X13247Y2327D01*
G01X13254Y2340D01*
G01X13259Y2354D01*
G01X13262Y2368D01*
G01X13263Y2382D01*
G01X13262Y2398D01*
G01X13258Y2414D01*
G01X13252Y2428D01*
G01X13244Y2442D01*
G01X13234Y2454D01*
G01X12363Y3325D01*
G01X12349Y3336D01*
G01X12334Y3345D01*
G01X12317Y3351D01*
G01X12300Y3354D01*
G01X12265Y3358D01*
G01X12231Y3365D01*
G01X12198Y3373D01*
G01X12164Y3383D01*
G01X12132Y3396D01*
G01X12100Y3410D01*
G01X12070Y3426D01*
G01X12040Y3445D01*
G01X12012Y3465D01*
G01X11985Y3486D01*
G01X11959Y3509D01*
G01X11935Y3534D01*
G01X11912Y3561D01*
G01X11891Y3588D01*
G01X11872Y3617D01*
G01X11855Y3647D01*
G01X11839Y3678D01*
G01X11826Y3710D01*
G01X11814Y3743D01*
G01X11805Y3776D01*
G01X11797Y3810D01*
G01X11792Y3844D01*
G01X11789Y3879D01*
G01X11787Y3914D01*
G01X11788Y3948D01*
G01X11792Y3981D01*
G01X11797Y4015D01*
G01X11804Y4048D01*
G01X11813Y4081D01*
G01X11824Y4113D01*
G01X11837Y4144D01*
G01X11852Y4175D01*
G01X11868Y4204D01*
G01X11887Y4233D01*
G01X11907Y4260D01*
G01X11929Y4286D01*
G01X11952Y4311D01*
G01X11977Y4334D01*
G01X12003Y4356D01*
G01X12030Y4376D01*
G01X12058Y4394D01*
G01X12088Y4411D01*
G01X12119Y4426D01*
G01X12150Y4439D01*
G01X12182Y4450D01*
G01X12215Y4459D01*
G01X12248Y4466D01*
G01X12281Y4471D01*
G01X12315Y4474D01*
G01X12349Y4475D01*
G01X12384Y4474D01*
G01X12418Y4471D01*
G01X12452Y4466D01*
G01X12486Y4458D01*
G01X12520Y4449D01*
G01X12552Y4437D01*
G01X12584Y4423D01*
G01X12615Y4408D01*
G01X12645Y4391D01*
G01X12674Y4371D01*
G01X12702Y4350D01*
G01X12728Y4328D01*
G01X12753Y4303D01*
G01X12776Y4278D01*
G01X12798Y4251D01*
G01X12818Y4222D01*
G01X12836Y4193D01*
G01X12853Y4162D01*
G01X12867Y4131D01*
G01X12879Y4098D01*
G01X12890Y4065D01*
G01X12898Y4031D01*
G01X12904Y3997D01*
G01X12908Y3963D01*
G01X12911Y3945D01*
G01X12918Y3929D01*
G01X12926Y3913D01*
G01X12938Y3900D01*
G01X13570Y3268D01*
G01X13582Y3257D01*
G01X13596Y3249D01*
G01X13610Y3243D01*
G01X13626Y3239D01*
G01X13642Y3238D01*
G01X14422Y3238D01*
G01X14422Y2700D01*
G01X14421Y2689D01*
G01X14423Y2673D01*
G01X14426Y2658D01*
G01X14432Y2643D01*
G01X14441Y2630D01*
G01X14451Y2618D01*
G01X14613Y2456D01*
G01X14632Y2435D01*
G01X14651Y2412D01*
G01X14667Y2388D01*
G01X14682Y2363D01*
G01X14695Y2338D01*
G01X14706Y2311D01*
G01X14715Y2283D01*
G01X14722Y2255D01*
G01X14728Y2227D01*
G01X14731Y2198D01*
G01X14732Y2169D01*
G01X14732Y1529D01*
G01X14731Y1500D01*
G01X14728Y1471D01*
G01X14722Y1442D01*
G01X14715Y1414D01*
G01X14706Y1387D01*
G01X14695Y1360D01*
G01X14682Y1334D01*
G01X14667Y1309D01*
G01X14651Y1285D01*
G01X14633Y1263D01*
G01X14613Y1241D01*
G01X13815Y442D01*
G01X13805Y430D01*
G01X13797Y416D01*
G01X13791Y402D01*
G01X13787Y386D01*
G01X13786Y370D01*
G01X13787Y356D01*
G01X13790Y342D01*
G01X13795Y328D01*
G01X13802Y315D01*
G01X13811Y304D01*
G01X13821Y294D01*
G01X13832Y285D01*
G01X13845Y278D01*
G01X13859Y273D01*
G01X13873Y270D01*
G01X13887Y269D01*
G01X49921Y269D01*
G01X49935Y270D01*
G01X49949Y273D01*
G01X49963Y278D01*
G01X49976Y285D01*
G01X49987Y294D01*
G01X49997Y304D01*
G01X50006Y315D01*
G01X50013Y328D01*
G01X50018Y342D01*
G01X50021Y356D01*
G01X50022Y370D01*
G01X50022Y46619D01*
G01X50021Y46633D01*
G01X50018Y46647D01*
G01X50013Y46661D01*
G01X50006Y46674D01*
G01X49997Y46685D01*
G01X49987Y46695D01*
G01X49976Y46704D01*
G01X49963Y46711D01*
G01X49949Y46716D01*
G01X49935Y46719D01*
G01X49921Y46720D01*
G37*

%LPC*%
G36*
G01X32307Y39231D02*
G01X32258Y39232D01*
G01X32208Y39231D01*
G01X32159Y39228D01*
G01X32111Y39223D01*
G01X32062Y39216D01*
G01X32014Y39206D01*
G01X31966Y39195D01*
G01X31919Y39181D01*
G01X31872Y39166D01*
G01X31826Y39149D01*
G01X31781Y39129D01*
G01X31737Y39108D01*
G01X31693Y39085D01*
G01X31651Y39060D01*
G01X31610Y39034D01*
G01X31570Y39005D01*
G01X31531Y38975D01*
G01X31493Y38944D01*
G01X31457Y38911D01*
G01X31423Y38876D01*
G01X31389Y38840D01*
G01X31358Y38802D01*
G01X31328Y38763D01*
G01X31299Y38723D01*
G01X31273Y38682D01*
G01X31248Y38640D01*
G01X31225Y38596D01*
G01X31204Y38552D01*
G01X31184Y38507D01*
G01X31167Y38461D01*
G01X31152Y38414D01*
G01X31138Y38367D01*
G01X31127Y38319D01*
G01X31118Y38271D01*
G01X31110Y38223D01*
G01X31105Y38174D01*
G01X31102Y38125D01*
G01X31101Y38076D01*
G01X31102Y38027D01*
G01X31105Y37978D01*
G01X31110Y37929D01*
G01X31118Y37880D01*
G01X31127Y37832D01*
G01X31138Y37784D01*
G01X31152Y37737D01*
G01X31167Y37690D01*
G01X31184Y37644D01*
G01X31204Y37599D01*
G01X31225Y37555D01*
G01X31248Y37512D01*
G01X31273Y37469D01*
G01X31299Y37428D01*
G01X31328Y37388D01*
G01X31358Y37349D01*
G01X31389Y37312D01*
G01X31423Y37275D01*
G01X31457Y37241D01*
G01X31493Y37207D01*
G01X31531Y37176D01*
G01X31570Y37146D01*
G01X31610Y37117D01*
G01X31651Y37091D01*
G01X31693Y37066D01*
G01X31737Y37043D01*
G01X31781Y37022D01*
G01X31826Y37002D01*
G01X31872Y36985D01*
G01X31919Y36970D01*
G01X31966Y36956D01*
G01X32014Y36945D01*
G01X32062Y36936D01*
G01X32111Y36928D01*
G01X32159Y36923D01*
G01X32208Y36920D01*
G01X32258Y36919D01*
G01X32307Y36920D01*
G01X32356Y36923D01*
G01X32406Y36929D01*
G01X32455Y36936D01*
G01X32503Y36945D01*
G01X32551Y36957D01*
G01X32599Y36971D01*
G01X32646Y36986D01*
G01X32692Y37004D01*
G01X32738Y37023D01*
G01X32782Y37045D01*
G01X32826Y37068D01*
G01X32868Y37094D01*
G01X32910Y37121D01*
G01X32950Y37149D01*
G01X32989Y37180D01*
G01X33027Y37212D01*
G01X33063Y37246D01*
G01X33098Y37281D01*
G01X33131Y37318D01*
G01X33163Y37356D01*
G01X33193Y37395D01*
G01X33221Y37436D01*
G01X33247Y37478D01*
G01X33272Y37521D01*
G01X33295Y37565D01*
G01X33316Y37609D01*
G01X33323Y37622D01*
G01X33331Y37634D01*
G01X33342Y37645D01*
G01X33353Y37654D01*
G01X33366Y37661D01*
G01X33380Y37666D01*
G01X33394Y37669D01*
G01X33409Y37670D01*
G01X39896Y37670D01*
G01X39912Y37669D01*
G01X39927Y37665D01*
G01X39942Y37659D01*
G01X39955Y37651D01*
G01X39967Y37640D01*
G01X41561Y36046D01*
G01X41572Y36034D01*
G01X41580Y36021D01*
G01X41586Y36006D01*
G01X41590Y35991D01*
G01X41591Y35975D01*
G01X41590Y35960D01*
G01X41587Y35946D01*
G01X41582Y35932D01*
G01X41575Y35920D01*
G01X41566Y35908D01*
G01X41556Y35898D01*
G01X41544Y35889D01*
G01X41532Y35882D01*
G01X41518Y35877D01*
G01X41504Y35874D01*
G01X41489Y35873D01*
G01X41413Y35873D01*
G01X41389Y35872D01*
G01X41366Y35869D01*
G01X41343Y35863D01*
G01X41320Y35856D01*
G01X41299Y35846D01*
G01X41278Y35835D01*
G01X41258Y35821D01*
G01X41240Y35806D01*
G01X41223Y35789D01*
G01X41208Y35771D01*
G01X41195Y35752D01*
G01X41183Y35731D01*
G01X41174Y35709D01*
G01X41166Y35687D01*
G01X41161Y35664D01*
G01X41158Y35640D01*
G01X41156Y35616D01*
G01X41156Y33217D01*
G01X41158Y33193D01*
G01X41161Y33169D01*
G01X41166Y33146D01*
G01X41174Y33124D01*
G01X41183Y33102D01*
G01X41195Y33081D01*
G01X41208Y33062D01*
G01X41223Y33044D01*
G01X41240Y33027D01*
G01X41258Y33012D01*
G01X41278Y32998D01*
G01X41299Y32987D01*
G01X41320Y32977D01*
G01X41343Y32970D01*
G01X41366Y32964D01*
G01X41389Y32961D01*
G01X41413Y32960D01*
G01X42914Y32960D01*
G01X42938Y32961D01*
G01X42961Y32964D01*
G01X42984Y32970D01*
G01X43007Y32977D01*
G01X43028Y32987D01*
G01X43049Y32998D01*
G01X43069Y33012D01*
G01X43087Y33027D01*
G01X43104Y33044D01*
G01X43119Y33062D01*
G01X43132Y33081D01*
G01X43144Y33102D01*
G01X43153Y33124D01*
G01X43161Y33146D01*
G01X43166Y33169D01*
G01X43169Y33193D01*
G01X43171Y33217D01*
G01X43171Y35616D01*
G01X43169Y35640D01*
G01X43166Y35664D01*
G01X43161Y35687D01*
G01X43153Y35709D01*
G01X43144Y35731D01*
G01X43132Y35752D01*
G01X43119Y35771D01*
G01X43104Y35789D01*
G01X43087Y35806D01*
G01X43069Y35821D01*
G01X43049Y35835D01*
G01X43028Y35846D01*
G01X43007Y35856D01*
G01X42984Y35863D01*
G01X42961Y35869D01*
G01X42938Y35872D01*
G01X42914Y35873D01*
G01X42672Y35873D01*
G01X42657Y35874D01*
G01X42643Y35877D01*
G01X42629Y35882D01*
G01X42617Y35889D01*
G01X42605Y35898D01*
G01X42595Y35908D01*
G01X42586Y35920D01*
G01X42579Y35932D01*
G01X42574Y35946D01*
G01X42571Y35960D01*
G01X42570Y35975D01*
G01X42570Y36019D01*
G01X42569Y36048D01*
G01X42566Y36077D01*
G01X42561Y36106D01*
G01X42554Y36134D01*
G01X42544Y36161D01*
G01X42533Y36188D01*
G01X42520Y36214D01*
G01X42506Y36239D01*
G01X42489Y36263D01*
G01X42471Y36285D01*
G01X42451Y36307D01*
G01X40394Y38364D01*
G01X40372Y38384D01*
G01X40350Y38402D01*
G01X40326Y38419D01*
G01X40301Y38433D01*
G01X40275Y38446D01*
G01X40248Y38458D01*
G01X40221Y38467D01*
G01X40193Y38474D01*
G01X40164Y38479D01*
G01X40135Y38482D01*
G01X40106Y38483D01*
G01X33408Y38483D01*
G01X33393Y38484D01*
G01X33379Y38487D01*
G01X33365Y38493D01*
G01X33353Y38500D01*
G01X33341Y38508D01*
G01X33331Y38519D01*
G01X33322Y38531D01*
G01X33315Y38544D01*
G01X33294Y38588D01*
G01X33271Y38632D01*
G01X33247Y38675D01*
G01X33220Y38717D01*
G01X33192Y38757D01*
G01X33162Y38797D01*
G01X33130Y38835D01*
G01X33097Y38871D01*
G01X33062Y38906D01*
G01X33026Y38940D01*
G01X32988Y38972D01*
G01X32949Y39002D01*
G01X32909Y39031D01*
G01X32868Y39058D01*
G01X32825Y39083D01*
G01X32781Y39107D01*
G01X32737Y39128D01*
G01X32692Y39148D01*
G01X32645Y39165D01*
G01X32598Y39181D01*
G01X32551Y39194D01*
G01X32503Y39206D01*
G01X32454Y39215D01*
G01X32405Y39223D01*
G01X32356Y39228D01*
G01X32307Y39231D01*
G37*
G36*
G01X39744Y26997D02*
G01X39700Y26998D01*
G01X39655Y26997D01*
G01X39611Y26994D01*
G01X39567Y26989D01*
G01X39523Y26982D01*
G01X39479Y26973D01*
G01X39436Y26962D01*
G01X39393Y26948D01*
G01X39351Y26933D01*
G01X39310Y26916D01*
G01X39270Y26897D01*
G01X39231Y26877D01*
G01X39192Y26854D01*
G01X39155Y26830D01*
G01X39119Y26804D01*
G01X39084Y26776D01*
G01X39050Y26747D01*
G01X39018Y26716D01*
G01X38987Y26684D01*
G01X38958Y26650D01*
G01X38930Y26615D01*
G01X38904Y26579D01*
G01X38880Y26542D01*
G01X38858Y26504D01*
G01X38837Y26464D01*
G01X38818Y26424D01*
G01X38801Y26383D01*
G01X38786Y26341D01*
G01X38773Y26298D01*
G01X38761Y26255D01*
G01X38752Y26212D01*
G01X38745Y26168D01*
G01X38740Y26123D01*
G01X38737Y26079D01*
G01X38736Y26035D01*
G01X38737Y25990D01*
G01X38740Y25946D01*
G01X38745Y25901D01*
G01X38752Y25857D01*
G01X38761Y25814D01*
G01X38773Y25771D01*
G01X38786Y25728D01*
G01X38801Y25686D01*
G01X38818Y25645D01*
G01X38837Y25605D01*
G01X38858Y25565D01*
G01X38880Y25527D01*
G01X38904Y25490D01*
G01X38930Y25454D01*
G01X38958Y25419D01*
G01X38987Y25385D01*
G01X39018Y25353D01*
G01X39050Y25322D01*
G01X39084Y25293D01*
G01X39119Y25265D01*
G01X39155Y25239D01*
G01X39192Y25215D01*
G01X39231Y25192D01*
G01X39270Y25172D01*
G01X39310Y25153D01*
G01X39351Y25136D01*
G01X39393Y25121D01*
G01X39436Y25107D01*
G01X39479Y25096D01*
G01X39523Y25087D01*
G01X39567Y25080D01*
G01X39611Y25075D01*
G01X39655Y25072D01*
G01X39700Y25071D01*
G01X39746Y25072D01*
G01X39792Y25075D01*
G01X39838Y25081D01*
G01X39884Y25088D01*
G01X39929Y25098D01*
G01X39974Y25110D01*
G01X39988Y25113D01*
G01X40003Y25115D01*
G01X40019Y25113D01*
G01X40034Y25110D01*
G01X40049Y25103D01*
G01X40062Y25095D01*
G01X40074Y25085D01*
G01X41577Y23582D01*
G01X41588Y23570D01*
G01X41596Y23556D01*
G01X41602Y23541D01*
G01X41606Y23526D01*
G01X41607Y23510D01*
G01X41607Y17365D01*
G01X41606Y17350D01*
G01X41603Y17336D01*
G01X41598Y17323D01*
G01X41591Y17310D01*
G01X41582Y17298D01*
G01X41572Y17288D01*
G01X41560Y17279D01*
G01X41548Y17272D01*
G01X41534Y17267D01*
G01X41520Y17264D01*
G01X41506Y17263D01*
G01X41491Y17264D01*
G01X41477Y17267D01*
G01X41463Y17273D01*
G01X41450Y17280D01*
G01X41439Y17288D01*
G01X41429Y17299D01*
G01X41393Y17338D01*
G01X41355Y17376D01*
G01X41316Y17413D01*
G01X41276Y17447D01*
G01X41234Y17480D01*
G01X41190Y17511D01*
G01X41145Y17540D01*
G01X41099Y17567D01*
G01X41052Y17591D01*
G01X41052Y17049D01*
G01X41506Y17049D01*
G01X41520Y17048D01*
G01X41534Y17045D01*
G01X41548Y17040D01*
G01X41560Y17033D01*
G01X41572Y17024D01*
G01X41582Y17014D01*
G01X41591Y17003D01*
G01X41598Y16990D01*
G01X41603Y16976D01*
G01X41606Y16962D01*
G01X41607Y16948D01*
G01X41607Y16071D01*
G01X41606Y16057D01*
G01X41603Y16043D01*
G01X41598Y16029D01*
G01X41591Y16016D01*
G01X41582Y16005D01*
G01X41572Y15995D01*
G01X41560Y15986D01*
G01X41548Y15979D01*
G01X41534Y15974D01*
G01X41520Y15971D01*
G01X41506Y15970D01*
G01X41052Y15970D01*
G01X41052Y15428D01*
G01X41099Y15452D01*
G01X41145Y15479D01*
G01X41190Y15508D01*
G01X41234Y15539D01*
G01X41276Y15572D01*
G01X41316Y15606D01*
G01X41355Y15643D01*
G01X41393Y15681D01*
G01X41429Y15720D01*
G01X41439Y15731D01*
G01X41450Y15739D01*
G01X41463Y15746D01*
G01X41477Y15752D01*
G01X41491Y15755D01*
G01X41506Y15756D01*
G01X41520Y15755D01*
G01X41534Y15752D01*
G01X41548Y15747D01*
G01X41560Y15740D01*
G01X41572Y15731D01*
G01X41582Y15721D01*
G01X41591Y15709D01*
G01X41598Y15696D01*
G01X41603Y15683D01*
G01X41606Y15669D01*
G01X41607Y15654D01*
G01X41607Y13776D01*
G01X41606Y13760D01*
G01X41602Y13745D01*
G01X41596Y13730D01*
G01X41588Y13716D01*
G01X41577Y13704D01*
G01X41079Y13206D01*
G01X41067Y13196D01*
G01X41054Y13188D01*
G01X41039Y13181D01*
G01X41023Y13178D01*
G01X41007Y13176D01*
G01X40988Y13178D01*
G01X40969Y13184D01*
G01X40921Y13203D01*
G01X40871Y13219D01*
G01X40821Y13233D01*
G01X40771Y13246D01*
G01X40720Y13256D01*
G01X40668Y13263D01*
G01X40616Y13269D01*
G01X40565Y13272D01*
G01X40513Y13274D01*
G01X40463Y13273D01*
G01X40413Y13269D01*
G01X40363Y13264D01*
G01X40313Y13257D01*
G01X40264Y13248D01*
G01X40216Y13237D01*
G01X40168Y13223D01*
G01X40120Y13208D01*
G01X40073Y13191D01*
G01X40027Y13172D01*
G01X39981Y13151D01*
G01X39937Y13128D01*
G01X39894Y13103D01*
G01X39851Y13077D01*
G01X39810Y13048D01*
G01X39770Y13019D01*
G01X39731Y12987D01*
G01X39694Y12954D01*
G01X39658Y12919D01*
G01X39623Y12883D01*
G01X39590Y12846D01*
G01X39558Y12807D01*
G01X39529Y12767D01*
G01X39500Y12726D01*
G01X39474Y12683D01*
G01X39449Y12640D01*
G01X39426Y12596D01*
G01X39405Y12550D01*
G01X39386Y12504D01*
G01X39369Y12457D01*
G01X39354Y12409D01*
G01X39340Y12361D01*
G01X39329Y12313D01*
G01X39320Y12264D01*
G01X39313Y12214D01*
G01X39308Y12164D01*
G01X39304Y12114D01*
G01X39303Y12065D01*
G01X39304Y12015D01*
G01X39308Y11965D01*
G01X39313Y11915D01*
G01X39320Y11865D01*
G01X39329Y11816D01*
G01X39340Y11768D01*
G01X39354Y11720D01*
G01X39369Y11672D01*
G01X39386Y11625D01*
G01X39405Y11579D01*
G01X39426Y11533D01*
G01X39449Y11489D01*
G01X39474Y11446D01*
G01X39500Y11403D01*
G01X39529Y11362D01*
G01X39558Y11322D01*
G01X39590Y11283D01*
G01X39623Y11246D01*
G01X39658Y11210D01*
G01X39694Y11175D01*
G01X39731Y11142D01*
G01X39770Y11110D01*
G01X39810Y11081D01*
G01X39851Y11052D01*
G01X39894Y11026D01*
G01X39937Y11001D01*
G01X39981Y10978D01*
G01X40027Y10957D01*
G01X40073Y10938D01*
G01X40120Y10921D01*
G01X40168Y10906D01*
G01X40216Y10892D01*
G01X40264Y10881D01*
G01X40313Y10872D01*
G01X40363Y10865D01*
G01X40413Y10860D01*
G01X40463Y10856D01*
G01X40513Y10855D01*
G01X40562Y10856D01*
G01X40612Y10860D01*
G01X40662Y10865D01*
G01X40712Y10872D01*
G01X40761Y10881D01*
G01X40809Y10892D01*
G01X40857Y10906D01*
G01X40905Y10921D01*
G01X40952Y10938D01*
G01X40998Y10957D01*
G01X41044Y10978D01*
G01X41088Y11001D01*
G01X41131Y11026D01*
G01X41174Y11052D01*
G01X41215Y11081D01*
G01X41255Y11110D01*
G01X41294Y11142D01*
G01X41331Y11175D01*
G01X41367Y11210D01*
G01X41402Y11246D01*
G01X41435Y11283D01*
G01X41467Y11322D01*
G01X41496Y11362D01*
G01X41525Y11403D01*
G01X41551Y11446D01*
G01X41576Y11489D01*
G01X41599Y11533D01*
G01X41620Y11579D01*
G01X41639Y11625D01*
G01X41656Y11672D01*
G01X41671Y11720D01*
G01X41685Y11768D01*
G01X41696Y11816D01*
G01X41705Y11865D01*
G01X41712Y11915D01*
G01X41717Y11965D01*
G01X41721Y12015D01*
G01X41722Y12064D01*
G01X41720Y12117D01*
G01X41717Y12168D01*
G01X41711Y12220D01*
G01X41704Y12272D01*
G01X41694Y12323D01*
G01X41681Y12373D01*
G01X41667Y12423D01*
G01X41651Y12473D01*
G01X41632Y12521D01*
G01X41626Y12540D01*
G01X41624Y12559D01*
G01X41626Y12575D01*
G01X41629Y12591D01*
G01X41636Y12606D01*
G01X41644Y12619D01*
G01X41654Y12631D01*
G01X42301Y13278D01*
G01X42321Y13299D01*
G01X42339Y13322D01*
G01X42356Y13346D01*
G01X42370Y13371D01*
G01X42383Y13397D01*
G01X42395Y13424D01*
G01X42404Y13451D01*
G01X42411Y13479D01*
G01X42416Y13508D01*
G01X42419Y13537D01*
G01X42420Y13566D01*
G01X42420Y23721D01*
G01X42419Y23750D01*
G01X42416Y23778D01*
G01X42411Y23807D01*
G01X42404Y23835D01*
G01X42395Y23863D01*
G01X42383Y23889D01*
G01X42370Y23915D01*
G01X42356Y23940D01*
G01X42339Y23964D01*
G01X42321Y23987D01*
G01X42301Y24008D01*
G01X40649Y25660D01*
G01X40639Y25672D01*
G01X40631Y25685D01*
G01X40625Y25700D01*
G01X40621Y25716D01*
G01X40620Y25732D01*
G01X40621Y25746D01*
G01X40624Y25760D01*
G01X40636Y25805D01*
G01X40646Y25850D01*
G01X40654Y25896D01*
G01X40659Y25942D01*
G01X40663Y25988D01*
G01X40664Y26035D01*
G01X40663Y26079D01*
G01X40660Y26123D01*
G01X40654Y26168D01*
G01X40647Y26212D01*
G01X40638Y26255D01*
G01X40627Y26298D01*
G01X40614Y26341D01*
G01X40599Y26383D01*
G01X40581Y26424D01*
G01X40563Y26464D01*
G01X40542Y26504D01*
G01X40519Y26542D01*
G01X40495Y26579D01*
G01X40469Y26615D01*
G01X40441Y26650D01*
G01X40412Y26684D01*
G01X40381Y26716D01*
G01X40349Y26747D01*
G01X40316Y26776D01*
G01X40281Y26804D01*
G01X40244Y26830D01*
G01X40207Y26854D01*
G01X40169Y26877D01*
G01X40129Y26897D01*
G01X40089Y26916D01*
G01X40048Y26933D01*
G01X40006Y26948D01*
G01X39963Y26962D01*
G01X39920Y26973D01*
G01X39877Y26982D01*
G01X39833Y26989D01*
G01X39789Y26994D01*
G01X39744Y26997D01*
G37*
G36*
G01X27417Y22310D02*
G01X27383Y22311D01*
G01X27348Y22310D01*
G01X27312Y22307D01*
G01X27277Y22301D01*
G01X27242Y22293D01*
G01X27208Y22283D01*
G01X27175Y22271D01*
G01X27142Y22257D01*
G01X27110Y22240D01*
G01X27080Y22222D01*
G01X27050Y22202D01*
G01X27022Y22180D01*
G01X27008Y22170D01*
G01X26992Y22162D01*
G01X26975Y22158D01*
G01X26957Y22156D01*
G01X25524Y22156D01*
G01X25495Y22155D01*
G01X25466Y22152D01*
G01X25438Y22147D01*
G01X25409Y22140D01*
G01X25382Y22130D01*
G01X25355Y22119D01*
G01X25329Y22106D01*
G01X25304Y22092D01*
G01X25280Y22075D01*
G01X25258Y22057D01*
G01X25236Y22037D01*
G01X22696Y19496D01*
G01X22682Y19485D01*
G01X22667Y19476D01*
G01X22650Y19470D01*
G01X22633Y19467D01*
G01X22598Y19463D01*
G01X22564Y19456D01*
G01X22530Y19448D01*
G01X22497Y19438D01*
G01X22465Y19425D01*
G01X22433Y19411D01*
G01X22403Y19395D01*
G01X22373Y19376D01*
G01X22345Y19356D01*
G01X22318Y19335D01*
G01X22292Y19311D01*
G01X22268Y19287D01*
G01X22245Y19260D01*
G01X22224Y19233D01*
G01X22205Y19204D01*
G01X22187Y19174D01*
G01X22172Y19143D01*
G01X22158Y19111D01*
G01X22147Y19078D01*
G01X22137Y19045D01*
G01X22130Y19011D01*
G01X22124Y18976D01*
G01X22121Y18942D01*
G01X22120Y18907D01*
G01X22121Y18873D01*
G01X22124Y18840D01*
G01X22129Y18806D01*
G01X22136Y18773D01*
G01X22146Y18740D01*
G01X22157Y18708D01*
G01X22170Y18677D01*
G01X22184Y18646D01*
G01X22201Y18617D01*
G01X22220Y18588D01*
G01X22240Y18561D01*
G01X22261Y18535D01*
G01X22285Y18510D01*
G01X22309Y18487D01*
G01X22335Y18465D01*
G01X22363Y18445D01*
G01X22391Y18427D01*
G01X22421Y18410D01*
G01X22451Y18395D01*
G01X22483Y18382D01*
G01X22515Y18371D01*
G01X22547Y18362D01*
G01X22580Y18355D01*
G01X22614Y18350D01*
G01X22648Y18347D01*
G01X22682Y18346D01*
G01X22716Y18347D01*
G01X22751Y18350D01*
G01X22785Y18355D01*
G01X22819Y18363D01*
G01X22852Y18372D01*
G01X22885Y18384D01*
G01X22917Y18397D01*
G01X22948Y18413D01*
G01X22978Y18430D01*
G01X23007Y18450D01*
G01X23035Y18471D01*
G01X23061Y18493D01*
G01X23086Y18517D01*
G01X23109Y18543D01*
G01X23131Y18570D01*
G01X23151Y18599D01*
G01X23169Y18628D01*
G01X23185Y18659D01*
G01X23200Y18690D01*
G01X23212Y18723D01*
G01X23222Y18756D01*
G01X23231Y18790D01*
G01X23237Y18824D01*
G01X23241Y18858D01*
G01X23244Y18876D01*
G01X23250Y18892D01*
G01X23259Y18908D01*
G01X23270Y18921D01*
G01X25663Y21313D01*
G01X25675Y21324D01*
G01X25688Y21332D01*
G01X25703Y21338D01*
G01X25719Y21342D01*
G01X25734Y21343D01*
G01X26957Y21343D01*
G01X26975Y21341D01*
G01X26992Y21337D01*
G01X27008Y21329D01*
G01X27022Y21319D01*
G01X27050Y21297D01*
G01X27080Y21277D01*
G01X27110Y21259D01*
G01X27142Y21242D01*
G01X27175Y21228D01*
G01X27208Y21216D01*
G01X27242Y21206D01*
G01X27277Y21198D01*
G01X27312Y21192D01*
G01X27348Y21189D01*
G01X27383Y21188D01*
G01X27417Y21189D01*
G01X27451Y21192D01*
G01X27484Y21197D01*
G01X27518Y21204D01*
G01X27550Y21213D01*
G01X27582Y21224D01*
G01X27614Y21237D01*
G01X27644Y21252D01*
G01X27674Y21269D01*
G01X27702Y21287D01*
G01X27730Y21307D01*
G01X27756Y21329D01*
G01X27780Y21352D01*
G01X27804Y21377D01*
G01X27825Y21403D01*
G01X27845Y21431D01*
G01X27864Y21459D01*
G01X27880Y21489D01*
G01X27895Y21519D01*
G01X27908Y21550D01*
G01X27919Y21582D01*
G01X27928Y21615D01*
G01X27936Y21648D01*
G01X27941Y21682D01*
G01X27944Y21716D01*
G01X27945Y21750D01*
G01X27944Y21783D01*
G01X27941Y21817D01*
G01X27936Y21851D01*
G01X27928Y21884D01*
G01X27919Y21917D01*
G01X27908Y21949D01*
G01X27895Y21980D01*
G01X27880Y22010D01*
G01X27864Y22040D01*
G01X27845Y22069D01*
G01X27825Y22096D01*
G01X27804Y22122D01*
G01X27780Y22147D01*
G01X27756Y22170D01*
G01X27730Y22192D01*
G01X27702Y22212D01*
G01X27674Y22230D01*
G01X27644Y22247D01*
G01X27614Y22262D01*
G01X27582Y22275D01*
G01X27550Y22286D01*
G01X27518Y22295D01*
G01X27484Y22302D01*
G01X27451Y22307D01*
G01X27417Y22310D01*
G37*
G36*
G01X40897Y7913D02*
G01X40850Y7914D01*
G01X40802Y7913D01*
G01X40755Y7910D01*
G01X40708Y7904D01*
G01X40661Y7897D01*
G01X40614Y7888D01*
G01X40568Y7876D01*
G01X40523Y7862D01*
G01X40478Y7847D01*
G01X40434Y7829D01*
G01X40391Y7809D01*
G01X40349Y7788D01*
G01X40308Y7764D01*
G01X40268Y7739D01*
G01X40229Y7712D01*
G01X40191Y7684D01*
G01X40154Y7653D01*
G01X40119Y7621D01*
G01X40086Y7588D01*
G01X40054Y7553D01*
G01X40024Y7516D01*
G01X39995Y7479D01*
G01X39968Y7440D01*
G01X39943Y7399D01*
G01X39919Y7358D01*
G01X39898Y7316D01*
G01X39878Y7273D01*
G01X39860Y7229D01*
G01X39845Y7184D01*
G01X39831Y7139D01*
G01X39820Y7093D01*
G01X39810Y7046D01*
G01X39803Y6999D01*
G01X39797Y6952D01*
G01X39794Y6905D01*
G01X39793Y6858D01*
G01X39794Y6810D01*
G01X39797Y6763D01*
G01X39803Y6716D01*
G01X39810Y6669D01*
G01X39820Y6622D01*
G01X39831Y6576D01*
G01X39845Y6531D01*
G01X39860Y6486D01*
G01X39878Y6442D01*
G01X39898Y6399D01*
G01X39919Y6357D01*
G01X39943Y6316D01*
G01X39968Y6275D01*
G01X39995Y6236D01*
G01X40024Y6199D01*
G01X40054Y6162D01*
G01X40086Y6127D01*
G01X40119Y6094D01*
G01X40154Y6062D01*
G01X40191Y6031D01*
G01X40229Y6003D01*
G01X40268Y5976D01*
G01X40308Y5951D01*
G01X40349Y5927D01*
G01X40391Y5906D01*
G01X40434Y5886D01*
G01X40478Y5868D01*
G01X40523Y5853D01*
G01X40568Y5839D01*
G01X40614Y5827D01*
G01X40661Y5818D01*
G01X40708Y5811D01*
G01X40755Y5805D01*
G01X40802Y5802D01*
G01X40850Y5801D01*
G01X40900Y5802D01*
G01X40950Y5806D01*
G01X40999Y5812D01*
G01X41049Y5820D01*
G01X41098Y5830D01*
G01X41146Y5843D01*
G01X41194Y5859D01*
G01X41210Y5863D01*
G01X41227Y5864D01*
G01X41243Y5863D01*
G01X41258Y5859D01*
G01X41273Y5853D01*
G01X41286Y5845D01*
G01X41299Y5834D01*
G01X41600Y5533D01*
G01X41611Y5521D01*
G01X41619Y5507D01*
G01X41625Y5492D01*
G01X41629Y5477D01*
G01X41630Y5461D01*
G01X41630Y3558D01*
G01X41629Y3544D01*
G01X41626Y3529D01*
G01X41621Y3516D01*
G01X41614Y3503D01*
G01X41605Y3492D01*
G01X41595Y3481D01*
G01X41583Y3473D01*
G01X41571Y3466D01*
G01X41557Y3461D01*
G01X41543Y3457D01*
G01X41528Y3456D01*
G01X41249Y3456D01*
G01X41225Y3455D01*
G01X41202Y3452D01*
G01X41179Y3447D01*
G01X41156Y3439D01*
G01X41135Y3430D01*
G01X41114Y3418D01*
G01X41095Y3405D01*
G01X41076Y3389D01*
G01X41060Y3373D01*
G01X41044Y3354D01*
G01X41031Y3335D01*
G01X41019Y3314D01*
G01X41010Y3293D01*
G01X41002Y3270D01*
G01X40997Y3247D01*
G01X40994Y3224D01*
G01X40993Y3200D01*
G01X40993Y1625D01*
G01X40994Y1601D01*
G01X40997Y1578D01*
G01X41002Y1555D01*
G01X41010Y1532D01*
G01X41019Y1511D01*
G01X41031Y1490D01*
G01X41044Y1471D01*
G01X41060Y1452D01*
G01X41076Y1436D01*
G01X41095Y1420D01*
G01X41114Y1407D01*
G01X41135Y1395D01*
G01X41156Y1386D01*
G01X41179Y1378D01*
G01X41202Y1373D01*
G01X41225Y1370D01*
G01X41249Y1369D01*
G01X42824Y1369D01*
G01X42848Y1370D01*
G01X42871Y1373D01*
G01X42894Y1378D01*
G01X42917Y1386D01*
G01X42938Y1395D01*
G01X42959Y1407D01*
G01X42978Y1420D01*
G01X42997Y1436D01*
G01X43013Y1452D01*
G01X43029Y1471D01*
G01X43042Y1490D01*
G01X43054Y1511D01*
G01X43063Y1532D01*
G01X43071Y1555D01*
G01X43076Y1578D01*
G01X43079Y1601D01*
G01X43080Y1625D01*
G01X43080Y3200D01*
G01X43079Y3224D01*
G01X43076Y3247D01*
G01X43071Y3270D01*
G01X43063Y3293D01*
G01X43054Y3314D01*
G01X43042Y3335D01*
G01X43029Y3354D01*
G01X43013Y3373D01*
G01X42997Y3389D01*
G01X42978Y3405D01*
G01X42959Y3418D01*
G01X42938Y3430D01*
G01X42917Y3439D01*
G01X42894Y3447D01*
G01X42871Y3452D01*
G01X42848Y3455D01*
G01X42824Y3456D01*
G01X42545Y3456D01*
G01X42530Y3457D01*
G01X42516Y3461D01*
G01X42502Y3466D01*
G01X42490Y3473D01*
G01X42478Y3481D01*
G01X42468Y3492D01*
G01X42459Y3503D01*
G01X42452Y3516D01*
G01X42447Y3529D01*
G01X42444Y3544D01*
G01X42443Y3558D01*
G01X42443Y5671D01*
G01X42442Y5700D01*
G01X42439Y5729D01*
G01X42434Y5758D01*
G01X42427Y5786D01*
G01X42417Y5813D01*
G01X42406Y5840D01*
G01X42393Y5866D01*
G01X42379Y5891D01*
G01X42362Y5915D01*
G01X42344Y5938D01*
G01X42324Y5959D01*
G01X41873Y6410D01*
G01X41863Y6422D01*
G01X41854Y6435D01*
G01X41848Y6450D01*
G01X41845Y6466D01*
G01X41843Y6481D01*
G01X41845Y6498D01*
G01X41849Y6514D01*
G01X41864Y6562D01*
G01X41877Y6610D01*
G01X41887Y6659D01*
G01X41896Y6708D01*
G01X41901Y6758D01*
G01X41905Y6808D01*
G01X41906Y6858D01*
G01X41905Y6905D01*
G01X41902Y6952D01*
G01X41897Y6999D01*
G01X41889Y7046D01*
G01X41880Y7093D01*
G01X41868Y7139D01*
G01X41854Y7184D01*
G01X41839Y7229D01*
G01X41821Y7273D01*
G01X41801Y7316D01*
G01X41780Y7358D01*
G01X41757Y7399D01*
G01X41731Y7440D01*
G01X41704Y7479D01*
G01X41676Y7516D01*
G01X41645Y7553D01*
G01X41613Y7588D01*
G01X41580Y7621D01*
G01X41545Y7653D01*
G01X41508Y7684D01*
G01X41471Y7712D01*
G01X41432Y7739D01*
G01X41391Y7764D01*
G01X41350Y7788D01*
G01X41308Y7809D01*
G01X41265Y7829D01*
G01X41221Y7847D01*
G01X41176Y7862D01*
G01X41131Y7876D01*
G01X41085Y7888D01*
G01X41038Y7897D01*
G01X40991Y7904D01*
G01X40944Y7910D01*
G01X40897Y7913D01*
G37*
G36*
G01X48182Y13273D02*
G01X48133Y13274D01*
G01X48083Y13273D01*
G01X48033Y13269D01*
G01X47983Y13264D01*
G01X47933Y13257D01*
G01X47884Y13248D01*
G01X47836Y13237D01*
G01X47788Y13223D01*
G01X47740Y13208D01*
G01X47693Y13191D01*
G01X47647Y13172D01*
G01X47601Y13151D01*
G01X47557Y13128D01*
G01X47514Y13103D01*
G01X47471Y13077D01*
G01X47430Y13048D01*
G01X47390Y13019D01*
G01X47351Y12987D01*
G01X47314Y12954D01*
G01X47278Y12919D01*
G01X47243Y12883D01*
G01X47210Y12846D01*
G01X47178Y12807D01*
G01X47149Y12767D01*
G01X47120Y12726D01*
G01X47094Y12683D01*
G01X47069Y12640D01*
G01X47046Y12596D01*
G01X47025Y12550D01*
G01X47006Y12504D01*
G01X46989Y12457D01*
G01X46974Y12409D01*
G01X46960Y12361D01*
G01X46949Y12313D01*
G01X46940Y12264D01*
G01X46933Y12214D01*
G01X46928Y12164D01*
G01X46924Y12114D01*
G01X46923Y12065D01*
G01X46924Y12015D01*
G01X46928Y11965D01*
G01X46933Y11915D01*
G01X46940Y11865D01*
G01X46949Y11816D01*
G01X46960Y11768D01*
G01X46974Y11720D01*
G01X46989Y11672D01*
G01X47006Y11625D01*
G01X47025Y11579D01*
G01X47046Y11533D01*
G01X47069Y11489D01*
G01X47094Y11446D01*
G01X47120Y11403D01*
G01X47149Y11362D01*
G01X47178Y11322D01*
G01X47210Y11283D01*
G01X47243Y11246D01*
G01X47278Y11210D01*
G01X47314Y11175D01*
G01X47351Y11142D01*
G01X47390Y11110D01*
G01X47430Y11081D01*
G01X47471Y11052D01*
G01X47514Y11026D01*
G01X47557Y11001D01*
G01X47601Y10978D01*
G01X47647Y10957D01*
G01X47693Y10938D01*
G01X47740Y10921D01*
G01X47788Y10906D01*
G01X47836Y10892D01*
G01X47884Y10881D01*
G01X47933Y10872D01*
G01X47983Y10865D01*
G01X48033Y10860D01*
G01X48083Y10856D01*
G01X48133Y10855D01*
G01X48182Y10856D01*
G01X48232Y10860D01*
G01X48282Y10865D01*
G01X48332Y10872D01*
G01X48381Y10881D01*
G01X48429Y10892D01*
G01X48477Y10906D01*
G01X48525Y10921D01*
G01X48572Y10938D01*
G01X48618Y10957D01*
G01X48664Y10978D01*
G01X48708Y11001D01*
G01X48751Y11026D01*
G01X48794Y11052D01*
G01X48835Y11081D01*
G01X48875Y11110D01*
G01X48914Y11142D01*
G01X48951Y11175D01*
G01X48987Y11210D01*
G01X49022Y11246D01*
G01X49055Y11283D01*
G01X49087Y11322D01*
G01X49116Y11362D01*
G01X49145Y11403D01*
G01X49171Y11446D01*
G01X49196Y11489D01*
G01X49219Y11533D01*
G01X49240Y11579D01*
G01X49259Y11625D01*
G01X49276Y11672D01*
G01X49291Y11720D01*
G01X49305Y11768D01*
G01X49316Y11816D01*
G01X49325Y11865D01*
G01X49332Y11915D01*
G01X49337Y11965D01*
G01X49341Y12015D01*
G01X49342Y12065D01*
G01X49341Y12114D01*
G01X49337Y12164D01*
G01X49332Y12214D01*
G01X49325Y12264D01*
G01X49316Y12313D01*
G01X49305Y12361D01*
G01X49291Y12409D01*
G01X49276Y12457D01*
G01X49259Y12504D01*
G01X49240Y12550D01*
G01X49219Y12596D01*
G01X49196Y12640D01*
G01X49171Y12683D01*
G01X49145Y12726D01*
G01X49116Y12767D01*
G01X49087Y12807D01*
G01X49055Y12846D01*
G01X49022Y12883D01*
G01X48987Y12919D01*
G01X48951Y12954D01*
G01X48914Y12987D01*
G01X48875Y13019D01*
G01X48835Y13048D01*
G01X48794Y13077D01*
G01X48751Y13103D01*
G01X48708Y13128D01*
G01X48664Y13151D01*
G01X48618Y13172D01*
G01X48572Y13191D01*
G01X48525Y13208D01*
G01X48477Y13223D01*
G01X48429Y13237D01*
G01X48381Y13248D01*
G01X48332Y13257D01*
G01X48282Y13264D01*
G01X48232Y13269D01*
G01X48182Y13273D01*
G37*
G36*
G01X48182Y17718D02*
G01X48133Y17719D01*
G01X48083Y17718D01*
G01X48033Y17714D01*
G01X47983Y17709D01*
G01X47933Y17702D01*
G01X47884Y17693D01*
G01X47836Y17682D01*
G01X47788Y17668D01*
G01X47740Y17653D01*
G01X47693Y17636D01*
G01X47647Y17617D01*
G01X47601Y17596D01*
G01X47557Y17573D01*
G01X47514Y17548D01*
G01X47471Y17522D01*
G01X47430Y17493D01*
G01X47390Y17464D01*
G01X47351Y17432D01*
G01X47314Y17399D01*
G01X47278Y17364D01*
G01X47243Y17328D01*
G01X47210Y17291D01*
G01X47178Y17252D01*
G01X47149Y17212D01*
G01X47120Y17171D01*
G01X47094Y17128D01*
G01X47069Y17085D01*
G01X47046Y17041D01*
G01X47025Y16995D01*
G01X47006Y16949D01*
G01X46989Y16902D01*
G01X46974Y16854D01*
G01X46960Y16806D01*
G01X46949Y16758D01*
G01X46940Y16709D01*
G01X46933Y16659D01*
G01X46928Y16609D01*
G01X46924Y16559D01*
G01X46923Y16510D01*
G01X46924Y16460D01*
G01X46928Y16410D01*
G01X46933Y16360D01*
G01X46940Y16310D01*
G01X46949Y16261D01*
G01X46960Y16213D01*
G01X46974Y16165D01*
G01X46989Y16117D01*
G01X47006Y16070D01*
G01X47025Y16024D01*
G01X47046Y15978D01*
G01X47069Y15934D01*
G01X47094Y15891D01*
G01X47120Y15848D01*
G01X47149Y15807D01*
G01X47178Y15767D01*
G01X47210Y15728D01*
G01X47243Y15691D01*
G01X47278Y15655D01*
G01X47314Y15620D01*
G01X47351Y15587D01*
G01X47390Y15555D01*
G01X47430Y15526D01*
G01X47471Y15497D01*
G01X47514Y15471D01*
G01X47557Y15446D01*
G01X47601Y15423D01*
G01X47647Y15402D01*
G01X47693Y15383D01*
G01X47740Y15366D01*
G01X47788Y15351D01*
G01X47836Y15337D01*
G01X47884Y15326D01*
G01X47933Y15317D01*
G01X47983Y15310D01*
G01X48033Y15305D01*
G01X48083Y15301D01*
G01X48133Y15300D01*
G01X48182Y15301D01*
G01X48232Y15305D01*
G01X48282Y15310D01*
G01X48332Y15317D01*
G01X48381Y15326D01*
G01X48429Y15337D01*
G01X48477Y15351D01*
G01X48525Y15366D01*
G01X48572Y15383D01*
G01X48618Y15402D01*
G01X48664Y15423D01*
G01X48708Y15446D01*
G01X48751Y15471D01*
G01X48794Y15497D01*
G01X48835Y15526D01*
G01X48875Y15555D01*
G01X48914Y15587D01*
G01X48951Y15620D01*
G01X48987Y15655D01*
G01X49022Y15691D01*
G01X49055Y15728D01*
G01X49087Y15767D01*
G01X49116Y15807D01*
G01X49145Y15848D01*
G01X49171Y15891D01*
G01X49196Y15934D01*
G01X49219Y15978D01*
G01X49240Y16024D01*
G01X49259Y16070D01*
G01X49276Y16117D01*
G01X49291Y16165D01*
G01X49305Y16213D01*
G01X49316Y16261D01*
G01X49325Y16310D01*
G01X49332Y16360D01*
G01X49337Y16410D01*
G01X49341Y16460D01*
G01X49342Y16510D01*
G01X49341Y16559D01*
G01X49337Y16609D01*
G01X49332Y16659D01*
G01X49325Y16709D01*
G01X49316Y16758D01*
G01X49305Y16806D01*
G01X49291Y16854D01*
G01X49276Y16902D01*
G01X49259Y16949D01*
G01X49240Y16995D01*
G01X49219Y17041D01*
G01X49196Y17085D01*
G01X49171Y17128D01*
G01X49145Y17171D01*
G01X49116Y17212D01*
G01X49087Y17252D01*
G01X49055Y17291D01*
G01X49022Y17328D01*
G01X48987Y17364D01*
G01X48951Y17399D01*
G01X48914Y17432D01*
G01X48875Y17464D01*
G01X48835Y17493D01*
G01X48794Y17522D01*
G01X48751Y17548D01*
G01X48708Y17573D01*
G01X48664Y17596D01*
G01X48618Y17617D01*
G01X48572Y17636D01*
G01X48525Y17653D01*
G01X48477Y17668D01*
G01X48429Y17682D01*
G01X48381Y17693D01*
G01X48332Y17702D01*
G01X48282Y17709D01*
G01X48232Y17714D01*
G01X48182Y17718D01*
G37*
G36*
G01X48097Y7913D02*
G01X48049Y7914D01*
G01X48002Y7913D01*
G01X47955Y7910D01*
G01X47908Y7904D01*
G01X47861Y7897D01*
G01X47814Y7888D01*
G01X47768Y7876D01*
G01X47723Y7862D01*
G01X47678Y7847D01*
G01X47634Y7829D01*
G01X47591Y7809D01*
G01X47549Y7788D01*
G01X47508Y7764D01*
G01X47467Y7739D01*
G01X47428Y7712D01*
G01X47391Y7684D01*
G01X47354Y7653D01*
G01X47319Y7621D01*
G01X47286Y7588D01*
G01X47254Y7553D01*
G01X47223Y7516D01*
G01X47195Y7479D01*
G01X47168Y7440D01*
G01X47142Y7399D01*
G01X47119Y7358D01*
G01X47098Y7316D01*
G01X47078Y7273D01*
G01X47060Y7229D01*
G01X47045Y7184D01*
G01X47031Y7139D01*
G01X47019Y7093D01*
G01X47010Y7046D01*
G01X47002Y6999D01*
G01X46997Y6952D01*
G01X46994Y6905D01*
G01X46993Y6858D01*
G01X46994Y6810D01*
G01X46997Y6763D01*
G01X47002Y6716D01*
G01X47010Y6669D01*
G01X47019Y6622D01*
G01X47031Y6576D01*
G01X47045Y6531D01*
G01X47060Y6486D01*
G01X47078Y6442D01*
G01X47098Y6399D01*
G01X47119Y6357D01*
G01X47142Y6316D01*
G01X47168Y6275D01*
G01X47195Y6236D01*
G01X47223Y6199D01*
G01X47254Y6162D01*
G01X47286Y6127D01*
G01X47319Y6094D01*
G01X47354Y6062D01*
G01X47391Y6031D01*
G01X47428Y6003D01*
G01X47467Y5976D01*
G01X47508Y5951D01*
G01X47549Y5927D01*
G01X47591Y5906D01*
G01X47634Y5886D01*
G01X47678Y5868D01*
G01X47723Y5853D01*
G01X47768Y5839D01*
G01X47814Y5827D01*
G01X47861Y5818D01*
G01X47908Y5811D01*
G01X47955Y5805D01*
G01X48002Y5802D01*
G01X48049Y5801D01*
G01X48097Y5802D01*
G01X48144Y5805D01*
G01X48191Y5811D01*
G01X48238Y5818D01*
G01X48285Y5827D01*
G01X48331Y5839D01*
G01X48376Y5853D01*
G01X48421Y5868D01*
G01X48465Y5886D01*
G01X48508Y5906D01*
G01X48550Y5927D01*
G01X48591Y5951D01*
G01X48631Y5976D01*
G01X48670Y6003D01*
G01X48708Y6031D01*
G01X48745Y6062D01*
G01X48780Y6094D01*
G01X48813Y6127D01*
G01X48845Y6162D01*
G01X48875Y6199D01*
G01X48904Y6236D01*
G01X48931Y6275D01*
G01X48956Y6316D01*
G01X48980Y6357D01*
G01X49001Y6399D01*
G01X49021Y6442D01*
G01X49039Y6486D01*
G01X49054Y6531D01*
G01X49068Y6576D01*
G01X49079Y6622D01*
G01X49089Y6669D01*
G01X49096Y6716D01*
G01X49102Y6763D01*
G01X49105Y6810D01*
G01X49106Y6858D01*
G01X49105Y6905D01*
G01X49102Y6952D01*
G01X49096Y6999D01*
G01X49089Y7046D01*
G01X49079Y7093D01*
G01X49068Y7139D01*
G01X49054Y7184D01*
G01X49039Y7229D01*
G01X49021Y7273D01*
G01X49001Y7316D01*
G01X48980Y7358D01*
G01X48956Y7399D01*
G01X48931Y7440D01*
G01X48904Y7479D01*
G01X48875Y7516D01*
G01X48845Y7553D01*
G01X48813Y7588D01*
G01X48780Y7621D01*
G01X48745Y7653D01*
G01X48708Y7684D01*
G01X48670Y7712D01*
G01X48631Y7739D01*
G01X48591Y7764D01*
G01X48550Y7788D01*
G01X48508Y7809D01*
G01X48465Y7829D01*
G01X48421Y7847D01*
G01X48376Y7862D01*
G01X48331Y7876D01*
G01X48285Y7888D01*
G01X48238Y7897D01*
G01X48191Y7904D01*
G01X48144Y7910D01*
G01X48097Y7913D01*
G37*
G36*
G01X44623Y3455D02*
G01X44577Y3456D01*
G01X44530Y3455D01*
G01X44483Y3452D01*
G01X44436Y3447D01*
G01X44390Y3440D01*
G01X44344Y3430D01*
G01X44299Y3419D01*
G01X44254Y3405D01*
G01X44210Y3390D01*
G01X44166Y3372D01*
G01X44124Y3353D01*
G01X44082Y3332D01*
G01X44041Y3309D01*
G01X44001Y3284D01*
G01X43963Y3257D01*
G01X43926Y3229D01*
G01X43890Y3199D01*
G01X43855Y3167D01*
G01X43822Y3134D01*
G01X43790Y3099D01*
G01X43760Y3063D01*
G01X43732Y3026D01*
G01X43705Y2988D01*
G01X43680Y2948D01*
G01X43657Y2907D01*
G01X43636Y2865D01*
G01X43617Y2823D01*
G01X43599Y2779D01*
G01X43584Y2735D01*
G01X43570Y2690D01*
G01X43559Y2645D01*
G01X43549Y2599D01*
G01X43542Y2553D01*
G01X43537Y2506D01*
G01X43534Y2459D01*
G01X43533Y2413D01*
G01X43533Y2412D01*
G01X43534Y2366D01*
G01X43537Y2319D01*
G01X43542Y2272D01*
G01X43549Y2226D01*
G01X43559Y2180D01*
G01X43570Y2135D01*
G01X43584Y2090D01*
G01X43599Y2046D01*
G01X43617Y2002D01*
G01X43636Y1960D01*
G01X43657Y1918D01*
G01X43680Y1877D01*
G01X43705Y1837D01*
G01X43732Y1799D01*
G01X43760Y1762D01*
G01X43790Y1726D01*
G01X43822Y1691D01*
G01X43855Y1658D01*
G01X43890Y1626D01*
G01X43926Y1596D01*
G01X43963Y1568D01*
G01X44001Y1541D01*
G01X44041Y1516D01*
G01X44082Y1493D01*
G01X44124Y1472D01*
G01X44166Y1453D01*
G01X44210Y1435D01*
G01X44254Y1420D01*
G01X44299Y1406D01*
G01X44344Y1395D01*
G01X44390Y1385D01*
G01X44436Y1378D01*
G01X44483Y1373D01*
G01X44530Y1370D01*
G01X44577Y1369D01*
G01X44623Y1370D01*
G01X44670Y1373D01*
G01X44717Y1378D01*
G01X44763Y1385D01*
G01X44809Y1395D01*
G01X44854Y1406D01*
G01X44899Y1420D01*
G01X44943Y1435D01*
G01X44987Y1453D01*
G01X45029Y1472D01*
G01X45071Y1493D01*
G01X45112Y1516D01*
G01X45152Y1541D01*
G01X45190Y1568D01*
G01X45227Y1596D01*
G01X45263Y1626D01*
G01X45298Y1658D01*
G01X45331Y1691D01*
G01X45363Y1726D01*
G01X45393Y1762D01*
G01X45421Y1799D01*
G01X45448Y1837D01*
G01X45473Y1877D01*
G01X45496Y1918D01*
G01X45517Y1960D01*
G01X45536Y2002D01*
G01X45554Y2046D01*
G01X45569Y2090D01*
G01X45583Y2135D01*
G01X45594Y2180D01*
G01X45604Y2226D01*
G01X45611Y2272D01*
G01X45616Y2319D01*
G01X45619Y2366D01*
G01X45620Y2413D01*
G01X45619Y2459D01*
G01X45616Y2506D01*
G01X45611Y2553D01*
G01X45604Y2599D01*
G01X45594Y2645D01*
G01X45583Y2690D01*
G01X45569Y2735D01*
G01X45554Y2779D01*
G01X45536Y2823D01*
G01X45517Y2865D01*
G01X45496Y2907D01*
G01X45473Y2948D01*
G01X45448Y2988D01*
G01X45421Y3026D01*
G01X45393Y3063D01*
G01X45363Y3099D01*
G01X45331Y3134D01*
G01X45298Y3167D01*
G01X45263Y3199D01*
G01X45227Y3229D01*
G01X45190Y3257D01*
G01X45152Y3284D01*
G01X45112Y3309D01*
G01X45071Y3332D01*
G01X45029Y3353D01*
G01X44987Y3372D01*
G01X44943Y3390D01*
G01X44899Y3405D01*
G01X44854Y3419D01*
G01X44809Y3430D01*
G01X44763Y3440D01*
G01X44717Y3447D01*
G01X44670Y3452D01*
G01X44623Y3455D01*
G37*
G36*
G01X36645Y35873D02*
G01X36333Y35873D01*
G01X36309Y35872D01*
G01X36286Y35869D01*
G01X36263Y35863D01*
G01X36240Y35856D01*
G01X36219Y35846D01*
G01X36198Y35835D01*
G01X36178Y35821D01*
G01X36160Y35806D01*
G01X36143Y35789D01*
G01X36128Y35771D01*
G01X36115Y35752D01*
G01X36103Y35731D01*
G01X36094Y35709D01*
G01X36086Y35687D01*
G01X36081Y35664D01*
G01X36077Y35640D01*
G01X36076Y35616D01*
G01X36076Y35080D01*
G01X36645Y35080D01*
G01X36645Y35873D01*
G37*
G36*
G01X37834Y35873D02*
G01X37522Y35873D01*
G01X37522Y35080D01*
G01X38091Y35080D01*
G01X38091Y35616D01*
G01X38090Y35640D01*
G01X38086Y35664D01*
G01X38081Y35687D01*
G01X38073Y35709D01*
G01X38064Y35731D01*
G01X38052Y35752D01*
G01X38039Y35771D01*
G01X38024Y35789D01*
G01X38007Y35806D01*
G01X37989Y35821D01*
G01X37969Y35835D01*
G01X37948Y35846D01*
G01X37927Y35856D01*
G01X37904Y35863D01*
G01X37881Y35869D01*
G01X37858Y35872D01*
G01X37834Y35873D01*
G37*
G36*
G01X36645Y33753D02*
G01X36076Y33753D01*
G01X36076Y33217D01*
G01X36077Y33193D01*
G01X36081Y33169D01*
G01X36086Y33146D01*
G01X36094Y33124D01*
G01X36103Y33102D01*
G01X36115Y33081D01*
G01X36128Y33062D01*
G01X36143Y33044D01*
G01X36160Y33027D01*
G01X36178Y33012D01*
G01X36198Y32998D01*
G01X36219Y32987D01*
G01X36240Y32977D01*
G01X36263Y32970D01*
G01X36286Y32964D01*
G01X36309Y32961D01*
G01X36333Y32960D01*
G01X36645Y32960D01*
G01X36645Y33753D01*
G37*
G36*
G01X38091Y33753D02*
G01X37522Y33753D01*
G01X37522Y32960D01*
G01X37834Y32960D01*
G01X37858Y32961D01*
G01X37881Y32964D01*
G01X37904Y32970D01*
G01X37927Y32977D01*
G01X37948Y32987D01*
G01X37969Y32998D01*
G01X37989Y33012D01*
G01X38007Y33027D01*
G01X38024Y33044D01*
G01X38039Y33062D01*
G01X38052Y33081D01*
G01X38064Y33102D01*
G01X38073Y33124D01*
G01X38081Y33146D01*
G01X38086Y33169D01*
G01X38090Y33193D01*
G01X38091Y33217D01*
G01X38091Y33753D01*
G37*
G36*
G01X26924Y30212D02*
G01X26733Y30212D01*
G01X26733Y29519D01*
G01X27368Y29519D01*
G01X27368Y30212D01*
G01X27178Y30212D01*
G01X27154Y30211D01*
G01X27131Y30208D01*
G01X27109Y30203D01*
G01X27087Y30195D01*
G01X27069Y30190D01*
G01X27051Y30189D01*
G01X27032Y30190D01*
G01X27014Y30195D01*
G01X26992Y30203D01*
G01X26970Y30208D01*
G01X26947Y30211D01*
G01X26924Y30212D01*
G37*
G36*
G01X20574Y30212D02*
G01X20383Y30212D01*
G01X20383Y29519D01*
G01X21018Y29519D01*
G01X21018Y30212D01*
G01X20828Y30212D01*
G01X20804Y30211D01*
G01X20781Y30208D01*
G01X20759Y30203D01*
G01X20737Y30195D01*
G01X20719Y30190D01*
G01X20701Y30189D01*
G01X20682Y30190D01*
G01X20664Y30195D01*
G01X20642Y30203D01*
G01X20620Y30208D01*
G01X20597Y30211D01*
G01X20574Y30212D01*
G37*
G36*
G01X21018Y28392D02*
G01X20383Y28392D01*
G01X20383Y27699D01*
G01X20574Y27699D01*
G01X20597Y27700D01*
G01X20620Y27703D01*
G01X20642Y27708D01*
G01X20664Y27716D01*
G01X20682Y27721D01*
G01X20701Y27722D01*
G01X20719Y27721D01*
G01X20737Y27716D01*
G01X20759Y27708D01*
G01X20781Y27703D01*
G01X20804Y27700D01*
G01X20828Y27699D01*
G01X21018Y27699D01*
G01X21018Y28392D01*
G37*
G36*
G01X27368Y28392D02*
G01X26733Y28392D01*
G01X26733Y27699D01*
G01X26924Y27699D01*
G01X26947Y27700D01*
G01X26970Y27703D01*
G01X26992Y27708D01*
G01X27014Y27716D01*
G01X27032Y27721D01*
G01X27051Y27722D01*
G01X27069Y27721D01*
G01X27087Y27716D01*
G01X27109Y27708D01*
G01X27131Y27703D01*
G01X27154Y27700D01*
G01X27178Y27699D01*
G01X27368Y27699D01*
G01X27368Y28392D01*
G37*
G36*
G01X16242Y3238D02*
G01X15549Y3238D01*
G01X15549Y2791D01*
G01X15985Y2791D01*
G01X16009Y2792D01*
G01X16033Y2795D01*
G01X16056Y2801D01*
G01X16078Y2808D01*
G01X16100Y2818D01*
G01X16121Y2829D01*
G01X16140Y2843D01*
G01X16158Y2858D01*
G01X16175Y2875D01*
G01X16190Y2893D01*
G01X16204Y2912D01*
G01X16215Y2933D01*
G01X16225Y2955D01*
G01X16232Y2977D01*
G01X16238Y3000D01*
G01X16241Y3024D01*
G01X16242Y3048D01*
G01X16242Y3238D01*
G37*
G36*
G01X33765Y28450D02*
G01X33329Y28450D01*
G01X33329Y28003D01*
G01X34022Y28003D01*
G01X34022Y28194D01*
G01X34021Y28217D01*
G01X34018Y28241D01*
G01X34012Y28264D01*
G01X34005Y28286D01*
G01X33995Y28308D01*
G01X33984Y28329D01*
G01X33970Y28348D01*
G01X33955Y28366D01*
G01X33938Y28383D01*
G01X33920Y28398D01*
G01X33901Y28412D01*
G01X33880Y28423D01*
G01X33858Y28433D01*
G01X33836Y28440D01*
G01X33813Y28446D01*
G01X33789Y28449D01*
G01X33765Y28450D01*
G37*
G36*
G01X32202Y28450D02*
G01X31766Y28450D01*
G01X31742Y28449D01*
G01X31718Y28446D01*
G01X31695Y28440D01*
G01X31673Y28433D01*
G01X31651Y28423D01*
G01X31630Y28412D01*
G01X31611Y28398D01*
G01X31593Y28383D01*
G01X31576Y28366D01*
G01X31561Y28348D01*
G01X31547Y28329D01*
G01X31536Y28308D01*
G01X31526Y28286D01*
G01X31519Y28264D01*
G01X31513Y28241D01*
G01X31510Y28217D01*
G01X31509Y28194D01*
G01X31509Y28003D01*
G01X32202Y28003D01*
G01X32202Y28450D01*
G37*
G36*
G01X28194Y30212D02*
G01X28003Y30212D01*
G01X28003Y29519D01*
G01X28450Y29519D01*
G01X28450Y29955D01*
G01X28449Y29979D01*
G01X28446Y30003D01*
G01X28440Y30026D01*
G01X28433Y30048D01*
G01X28423Y30070D01*
G01X28412Y30091D01*
G01X28398Y30110D01*
G01X28383Y30128D01*
G01X28366Y30145D01*
G01X28348Y30160D01*
G01X28329Y30174D01*
G01X28308Y30185D01*
G01X28286Y30195D01*
G01X28264Y30202D01*
G01X28241Y30208D01*
G01X28217Y30211D01*
G01X28194Y30212D01*
G37*
G36*
G01X19748Y30212D02*
G01X19558Y30212D01*
G01X19534Y30211D01*
G01X19510Y30208D01*
G01X19487Y30202D01*
G01X19465Y30195D01*
G01X19443Y30185D01*
G01X19422Y30174D01*
G01X19403Y30160D01*
G01X19385Y30145D01*
G01X19368Y30128D01*
G01X19353Y30110D01*
G01X19339Y30091D01*
G01X19328Y30070D01*
G01X19318Y30048D01*
G01X19311Y30026D01*
G01X19305Y30003D01*
G01X19302Y29979D01*
G01X19301Y29955D01*
G01X19301Y29519D01*
G01X19748Y29519D01*
G01X19748Y30212D01*
G37*
G36*
G01X28450Y28392D02*
G01X28003Y28392D01*
G01X28003Y27699D01*
G01X28194Y27699D01*
G01X28217Y27700D01*
G01X28241Y27703D01*
G01X28264Y27709D01*
G01X28286Y27716D01*
G01X28308Y27726D01*
G01X28329Y27737D01*
G01X28348Y27751D01*
G01X28366Y27766D01*
G01X28383Y27783D01*
G01X28398Y27801D01*
G01X28412Y27820D01*
G01X28423Y27841D01*
G01X28433Y27863D01*
G01X28440Y27885D01*
G01X28446Y27908D01*
G01X28449Y27932D01*
G01X28450Y27956D01*
G01X28450Y28392D01*
G37*
G36*
G01X39973Y17049D02*
G01X39973Y17591D01*
G01X39927Y17567D01*
G01X39882Y17541D01*
G01X39838Y17513D01*
G01X39795Y17483D01*
G01X39754Y17451D01*
G01X39714Y17418D01*
G01X39676Y17383D01*
G01X39639Y17346D01*
G01X39604Y17308D01*
G01X39571Y17268D01*
G01X39539Y17227D01*
G01X39509Y17184D01*
G01X39481Y17140D01*
G01X39455Y17095D01*
G01X39431Y17049D01*
G01X39973Y17049D01*
G37*
G36*
G01X39973Y15970D02*
G01X39431Y15970D01*
G01X39455Y15924D01*
G01X39481Y15879D01*
G01X39509Y15835D01*
G01X39539Y15792D01*
G01X39571Y15751D01*
G01X39604Y15711D01*
G01X39639Y15673D01*
G01X39676Y15636D01*
G01X39714Y15601D01*
G01X39754Y15568D01*
G01X39795Y15536D01*
G01X39838Y15506D01*
G01X39882Y15478D01*
G01X39927Y15452D01*
G01X39973Y15428D01*
G01X39973Y15970D01*
G37*
G36*
G01X31744Y35589D02*
G01X31744Y36112D01*
G01X31700Y36088D01*
G01X31656Y36063D01*
G01X31614Y36036D01*
G01X31573Y36007D01*
G01X31533Y35977D01*
G01X31495Y35945D01*
G01X31458Y35911D01*
G01X31422Y35875D01*
G01X31388Y35838D01*
G01X31356Y35800D01*
G01X31325Y35760D01*
G01X31297Y35719D01*
G01X31270Y35677D01*
G01X31244Y35633D01*
G01X31221Y35589D01*
G01X31744Y35589D01*
G37*
G36*
G01X46476Y35589D02*
G01X46476Y36112D01*
G01X46432Y36088D01*
G01X46388Y36063D01*
G01X46346Y36036D01*
G01X46305Y36007D01*
G01X46265Y35977D01*
G01X46227Y35945D01*
G01X46190Y35911D01*
G01X46154Y35875D01*
G01X46120Y35838D01*
G01X46088Y35800D01*
G01X46057Y35760D01*
G01X46029Y35719D01*
G01X46002Y35677D01*
G01X45976Y35633D01*
G01X45953Y35589D01*
G01X46476Y35589D01*
G37*
G36*
G01X33294Y34562D02*
G01X32771Y34562D01*
G01X32771Y34039D01*
G01X32815Y34062D01*
G01X32859Y34087D01*
G01X32901Y34114D01*
G01X32942Y34143D01*
G01X32982Y34174D01*
G01X33020Y34206D01*
G01X33057Y34240D01*
G01X33093Y34276D01*
G01X33127Y34312D01*
G01X33159Y34351D01*
G01X33190Y34391D01*
G01X33218Y34432D01*
G01X33245Y34474D01*
G01X33271Y34517D01*
G01X33294Y34562D01*
G37*
G36*
G01X31744Y34562D02*
G01X31221Y34562D01*
G01X31244Y34517D01*
G01X31270Y34474D01*
G01X31297Y34432D01*
G01X31325Y34391D01*
G01X31356Y34351D01*
G01X31388Y34312D01*
G01X31422Y34276D01*
G01X31458Y34240D01*
G01X31495Y34206D01*
G01X31533Y34174D01*
G01X31573Y34143D01*
G01X31614Y34114D01*
G01X31656Y34087D01*
G01X31700Y34062D01*
G01X31744Y34039D01*
G01X31744Y34562D01*
G37*
G36*
G01X46476Y34562D02*
G01X45953Y34562D01*
G01X45976Y34517D01*
G01X46002Y34474D01*
G01X46029Y34432D01*
G01X46057Y34391D01*
G01X46088Y34351D01*
G01X46120Y34312D01*
G01X46154Y34276D01*
G01X46190Y34240D01*
G01X46227Y34206D01*
G01X46265Y34174D01*
G01X46305Y34143D01*
G01X46346Y34114D01*
G01X46388Y34087D01*
G01X46432Y34062D01*
G01X46476Y34039D01*
G01X46476Y34562D01*
G37*
G36*
G01X32815Y36088D02*
G01X32771Y36112D01*
G01X32771Y35589D01*
G01X33294Y35589D01*
G01X33271Y35633D01*
G01X33245Y35677D01*
G01X33218Y35719D01*
G01X33190Y35760D01*
G01X33159Y35800D01*
G01X33127Y35838D01*
G01X33093Y35875D01*
G01X33057Y35911D01*
G01X33020Y35945D01*
G01X32982Y35977D01*
G01X32942Y36007D01*
G01X32901Y36036D01*
G01X32859Y36063D01*
G01X32815Y36088D01*
G37*
G36*
G01X48055Y1955D02*
G01X47574Y1955D01*
G01X47574Y1474D01*
G01X47615Y1495D01*
G01X47655Y1518D01*
G01X47694Y1543D01*
G01X47732Y1569D01*
G01X47769Y1597D01*
G01X47804Y1627D01*
G01X47838Y1658D01*
G01X47871Y1691D01*
G01X47902Y1725D01*
G01X47932Y1760D01*
G01X47960Y1797D01*
G01X47986Y1835D01*
G01X48011Y1874D01*
G01X48034Y1914D01*
G01X48055Y1955D01*
G37*
G36*
G01X47615Y3330D02*
G01X47574Y3351D01*
G01X47574Y2870D01*
G01X48055Y2870D01*
G01X48034Y2911D01*
G01X48011Y2951D01*
G01X47986Y2990D01*
G01X47960Y3028D01*
G01X47932Y3065D01*
G01X47902Y3100D01*
G01X47871Y3134D01*
G01X47838Y3167D01*
G01X47804Y3198D01*
G01X47769Y3228D01*
G01X47732Y3256D01*
G01X47694Y3282D01*
G01X47655Y3307D01*
G01X47615Y3330D01*
G37*
G36*
G01X46659Y2870D02*
G01X46659Y3351D01*
G01X46618Y3330D01*
G01X46578Y3307D01*
G01X46539Y3282D01*
G01X46501Y3256D01*
G01X46464Y3228D01*
G01X46429Y3198D01*
G01X46395Y3167D01*
G01X46362Y3134D01*
G01X46331Y3100D01*
G01X46301Y3065D01*
G01X46273Y3028D01*
G01X46247Y2990D01*
G01X46222Y2951D01*
G01X46199Y2911D01*
G01X46178Y2870D01*
G01X46659Y2870D01*
G37*
G36*
G01X46659Y1955D02*
G01X46178Y1955D01*
G01X46199Y1914D01*
G01X46222Y1874D01*
G01X46247Y1835D01*
G01X46273Y1797D01*
G01X46301Y1760D01*
G01X46331Y1725D01*
G01X46362Y1691D01*
G01X46395Y1658D01*
G01X46429Y1627D01*
G01X46464Y1597D01*
G01X46501Y1569D01*
G01X46539Y1543D01*
G01X46578Y1518D01*
G01X46618Y1495D01*
G01X46659Y1474D01*
G01X46659Y1955D01*
G37*
G36*
G01X47372Y26882D02*
G01X47330Y26903D01*
G01X47330Y26452D01*
G01X47782Y26452D01*
G01X47761Y26493D01*
G01X47738Y26533D01*
G01X47713Y26573D01*
G01X47686Y26611D01*
G01X47657Y26647D01*
G01X47627Y26682D01*
G01X47595Y26716D01*
G01X47561Y26748D01*
G01X47526Y26779D01*
G01X47489Y26807D01*
G01X47451Y26834D01*
G01X47412Y26859D01*
G01X47372Y26882D01*
G37*
G36*
G01X46496Y25617D02*
G01X46044Y25617D01*
G01X46065Y25576D01*
G01X46089Y25536D01*
G01X46114Y25496D01*
G01X46140Y25458D01*
G01X46169Y25422D01*
G01X46200Y25387D01*
G01X46232Y25353D01*
G01X46265Y25321D01*
G01X46301Y25290D01*
G01X46337Y25262D01*
G01X46375Y25235D01*
G01X46414Y25210D01*
G01X46455Y25187D01*
G01X46496Y25166D01*
G01X46496Y25617D01*
G37*
G36*
G01X46496Y26452D02*
G01X46496Y26903D01*
G01X46455Y26882D01*
G01X46414Y26859D01*
G01X46375Y26834D01*
G01X46337Y26807D01*
G01X46301Y26779D01*
G01X46265Y26748D01*
G01X46232Y26716D01*
G01X46200Y26682D01*
G01X46169Y26647D01*
G01X46140Y26611D01*
G01X46114Y26573D01*
G01X46089Y26533D01*
G01X46065Y26493D01*
G01X46044Y26452D01*
G01X46496Y26452D01*
G37*
G36*
G01X47782Y25617D02*
G01X47330Y25617D01*
G01X47330Y25166D01*
G01X47372Y25187D01*
G01X47412Y25210D01*
G01X47451Y25235D01*
G01X47489Y25262D01*
G01X47526Y25290D01*
G01X47561Y25321D01*
G01X47595Y25353D01*
G01X47627Y25387D01*
G01X47657Y25422D01*
G01X47686Y25458D01*
G01X47713Y25496D01*
G01X47738Y25536D01*
G01X47761Y25576D01*
G01X47782Y25617D01*
G37*

%LPD*%
G54D11*
G01X25154Y46109D02*
G01X25154Y35109D01*
G01X23154Y46109D02*
G01X23154Y41109D01*
G01X21157Y46106D02*
G01X21157Y41106D01*
G01X19157Y46106D02*
G01X19157Y41106D01*
G01X17155Y46108D02*
G01X17155Y41108D01*
G01X15155Y46106D02*
G01X15155Y41106D01*
G01X13156Y46108D02*
G01X13156Y41108D01*
G01X11156Y46106D02*
G01X11156Y41106D01*
G01X9157Y46108D02*
G01X9157Y41108D01*
G01X7155Y46108D02*
G01X7155Y41108D01*
G54D12*
G01X31363Y9906D02*
G01X31175Y9718D01*
G01X23545Y9718D01*
G01X23507Y9756D01*
G01X27383Y21750D02*
G01X25524Y21750D01*
G01X22682Y18907D01*
G01X32766Y9906D02*
G01X31363Y9906D01*
G01X16830Y26197D02*
G01X16830Y21170D01*
G01X26827Y11176D01*
G01X31363Y11176D01*
G01X32766Y11176D02*
G01X31363Y11176D01*
G01X4191Y24511D02*
G01X4051Y24511D01*
G01X3258Y25303D01*
G01X3258Y27759D01*
G01X4183Y28686D01*
G01X18780Y28686D01*
G01X18963Y28503D01*
G01X16555Y20093D02*
G01X16555Y20093D01*
G01X16555Y18923D01*
G01X24229Y11249D01*
G01X5461Y10541D02*
G01X9893Y10541D01*
G01X10604Y11252D01*
G01X12105Y11252D01*
G01X13421Y9936D01*
G01X13421Y7711D01*
G01X25466Y10426D02*
G01X24053Y10426D01*
G01X21656Y12821D01*
G01X18811Y12821D01*
G01X4191Y10541D02*
G01X4051Y10541D01*
G01X2646Y11945D01*
G01X2646Y28082D01*
G01X6550Y31986D01*
G01X16182Y31986D01*
G01X5461Y9271D02*
G01X9405Y9271D01*
G01X10833Y10698D01*
G01X11877Y10698D01*
G01X12641Y9933D01*
G01X12641Y7266D01*
G01X13352Y6555D01*
G01X4191Y9271D02*
G01X3937Y9271D01*
G01X1836Y7170D01*
G01X1836Y2250D01*
G01X3627Y459D01*
G01X13258Y459D01*
G01X14325Y1529D01*
G01X14325Y2169D01*
G01X13909Y2585D01*
G01X13677Y2585D01*
G01X12349Y3914D01*
G01X5461Y8001D02*
G01X8917Y8001D01*
G01X11061Y10144D01*
G01X11648Y10144D01*
G01X12087Y9705D01*
G01X12087Y6728D01*
G01X13182Y5633D01*
G01X13385Y5633D01*
G01X4191Y8001D02*
G01X4165Y8001D01*
G01X2573Y6408D01*
G01X2573Y2369D01*
G01X3774Y1168D01*
G01X10205Y1168D01*
G01X5461Y6731D02*
G01X8648Y6731D01*
G01X11356Y9438D01*
G01X4191Y6731D02*
G01X4183Y6731D01*
G01X3251Y5798D01*
G01X3251Y2481D01*
G01X3858Y1874D01*
G01X13619Y1874D01*
G01X5461Y5461D02*
G01X9497Y5461D01*
G01X10802Y6769D01*
G01X5461Y4191D02*
G01X8821Y4191D01*
G01X31363Y16256D02*
G01X30927Y16692D01*
G01X22311Y16692D01*
G01X32766Y16256D02*
G01X31363Y16256D01*
G01X32766Y17526D02*
G01X21729Y17526D01*
G01X18770Y20485D01*
G01X33467Y17526D02*
G01X32766Y17526D01*
G01X33467Y17526D02*
G01X34168Y17526D01*
G01X40177Y32260D02*
G01X39624Y32816D01*
G01X46990Y38077D02*
G01X48305Y36761D01*
G01X48305Y34409D01*
G01X46159Y32260D01*
G01X40177Y32260D01*
G01X40177Y32260D02*
G01X34168Y26250D01*
G01X34168Y17526D01*
G01X39624Y34417D02*
G01X39624Y32816D01*
G01X39624Y41783D02*
G01X41925Y41783D01*
G01X41925Y41783D02*
G01X45633Y38077D01*
G01X46990Y38077D01*
G01X20066Y28254D02*
G01X19497Y27686D01*
G01X16388Y27686D01*
G01X14986Y3556D02*
G01X16388Y3556D01*
G01X47117Y2413D02*
G01X45928Y1221D01*
G01X18722Y1221D01*
G01X16388Y3556D01*
G01X14986Y27686D02*
G01X16388Y27686D01*
G01X20066Y28254D02*
G01X20066Y27553D01*
G01X20066Y28956D02*
G01X20066Y28254D01*
G01X21336Y27904D02*
G01X20985Y27553D01*
G01X20066Y27553D01*
G01X21336Y28254D02*
G01X21336Y27904D01*
G01X21336Y27904D02*
G01X21336Y27553D01*
G01X21336Y28956D02*
G01X21336Y28254D01*
G01X26416Y27553D02*
G01X21336Y27553D01*
G01X27686Y27904D02*
G01X27335Y27553D01*
G01X26416Y27553D01*
G01X27686Y28254D02*
G01X27686Y27904D01*
G01X27686Y27904D02*
G01X27686Y27553D01*
G01X26416Y28956D02*
G01X26416Y27553D01*
G01X27686Y28956D02*
G01X27686Y28254D01*
G01X32766Y27686D02*
G01X31363Y27686D01*
G01X31363Y27686D02*
G01X31231Y27553D01*
G01X27686Y27553D01*
G01X37084Y34417D02*
G01X37084Y36019D01*
G01X46990Y35074D02*
G01X44729Y32814D01*
G01X41247Y32814D01*
G01X40894Y33167D01*
G01X40894Y35750D01*
G01X40624Y36019D01*
G01X37084Y36019D01*
G01X32331Y35003D02*
G01X32258Y35074D01*
G01X37084Y32814D02*
G01X34518Y32814D01*
G01X32331Y35003D01*
G01X32331Y35003D02*
G01X27686Y30358D01*
G01X37084Y34417D02*
G01X37084Y32814D01*
G01X27686Y28956D02*
G01X27686Y30358D01*
G01X32258Y38077D02*
G01X40106Y38077D01*
G01X42164Y36019D01*
G01X40513Y12065D02*
G01X42014Y13566D01*
G01X42014Y23721D01*
G01X39700Y26035D01*
G01X42164Y34417D02*
G01X42164Y36019D01*
G01X42037Y2413D02*
G01X42037Y5671D01*
G01X40850Y6858D01*
G01X5461Y18161D02*
G01X7091Y18161D01*
G01X11536Y22606D01*
G01X14986Y22606D01*
G54D10*
G01X25153Y34359D02*
G01X25153Y34359D01*
G01X25153Y34359D01*
G01X25153Y34359D01*
G01X25153Y34359D01*
G01X25153Y34359D02*
G01X25153Y34359D01*
G01X25153Y34359D01*
G01X25153Y34359D01*
G01X25153Y34359D02*
G01X25153Y34359D01*
G01X25153Y34359D01*
G01X25153Y34359D02*
G01X25153Y34359D01*
G01X25153Y34359D01*
G01X25146Y28956D02*
G01X25153Y28963D01*
G01X25153Y34327D01*
G01X25146Y34319D01*
G01X25146Y28956D01*
G01X25153Y34359D02*
G01X25153Y34359D01*
G01X25153Y34359D01*
G01X25146Y28956D02*
G01X25153Y34328D01*
G54D15*
G01X14986Y3556D03*
G01X14986Y4826D03*
G01X14986Y6096D03*
G01X14986Y7366D03*
G01X14986Y8636D03*
G01X14986Y9906D03*
G01X14986Y11176D03*
G01X14986Y12446D03*
G01X14986Y13716D03*
G01X14986Y14986D03*
G01X14986Y16256D03*
G01X14986Y17526D03*
G01X14986Y18796D03*
G01X14986Y20066D03*
G01X14986Y21336D03*
G01X14986Y22606D03*
G01X14986Y23876D03*
G01X14986Y25146D03*
G01X14986Y26416D03*
G01X14986Y27686D03*
G54D16*
G01X20066Y28956D03*
G01X21336Y28956D03*
G01X22606Y28956D03*
G01X23876Y28956D03*
G01X25146Y28956D03*
G01X26416Y28956D03*
G01X27686Y28956D03*
G54D15*
G01X32766Y3556D03*
G01X32766Y4826D03*
G01X32766Y6096D03*
G01X32766Y7366D03*
G01X32766Y8636D03*
G01X32766Y9906D03*
G01X32766Y11176D03*
G01X32766Y12446D03*
G01X32766Y13716D03*
G01X32766Y14986D03*
G01X32766Y16256D03*
G01X32766Y17526D03*
G01X32766Y18796D03*
G01X32766Y20066D03*
G01X32766Y21336D03*
G01X32766Y22606D03*
G01X32766Y23876D03*
G01X32766Y25146D03*
G01X32766Y26416D03*
G01X32766Y27686D03*
G54D17*
G01X25154Y34359D03*
G54D18*
G01X37084Y34417D03*
G36*
G01X38874Y35615D02*
G01X40373Y35615D01*
G01X40373Y33218D01*
G01X38874Y33218D01*
G01X38874Y35615D01*
G37*
G54D19*
G01X42164Y34417D03*
G54D20*
G01X39624Y41783D03*
G54D21*
G01X39700Y26035D03*
G01X46913Y26035D03*
G54D22*
G01X48133Y12065D03*
G01X40513Y12065D03*
G01X40513Y16510D03*
G01X48133Y16510D03*
G54D23*
G01X32258Y38076D03*
G01X32258Y35075D03*
G01X46990Y38076D03*
G01X46990Y35075D03*
G54D24*
G01X40850Y6858D03*
G01X48049Y6858D03*
G54D25*
G01X47117Y2413D03*
G01X44577Y2413D03*
G54D26*
G01X42037Y2413D03*
G54D11*
G01X5461Y4191D03*
G01X5461Y5461D03*
G01X5461Y8001D03*
G01X5461Y9271D03*
G01X5461Y10541D03*
G01X5461Y11811D03*
G01X5461Y19431D03*
G01X5461Y20701D03*
G01X5461Y21971D03*
G01X5461Y24511D03*
G01X5461Y25781D03*
G01X5461Y27051D03*
G01X5461Y23241D03*
G01X5461Y18161D03*
G01X5461Y16891D03*
G01X5461Y15621D03*
G01X5461Y14351D03*
G01X5461Y13081D03*
G01X5461Y6731D03*
G01X5461Y2921D03*
G01X4191Y2921D03*
G01X4191Y6731D03*
G01X4191Y13081D03*
G01X4191Y14351D03*
G01X4191Y15621D03*
G01X4191Y16891D03*
G01X4191Y18161D03*
G01X4191Y23241D03*
G54D27*
G01X4191Y27051D03*
G54D11*
G01X4191Y25781D03*
G01X4191Y24511D03*
G01X4191Y21971D03*
G01X4191Y20701D03*
G01X4191Y19431D03*
G01X4191Y11811D03*
G01X4191Y10541D03*
G01X4191Y9271D03*
G01X4191Y8001D03*
G01X4191Y5461D03*
G01X4191Y4191D03*
G54D13*
G01X7153Y46109D03*
G01X7153Y41109D03*
G01X9153Y46109D03*
G01X9153Y41109D03*
G01X11153Y41109D03*
G01X11153Y46109D03*
G01X13153Y46109D03*
G01X13153Y41109D03*
G01X15153Y46109D03*
G01X15153Y41109D03*
G01X17153Y46109D03*
G01X17153Y41109D03*
G01X19153Y46109D03*
G01X19153Y41109D03*
G01X21153Y46109D03*
G01X21153Y41109D03*
G01X23153Y46109D03*
G01X23153Y41109D03*
G01X25153Y46109D03*
G54D14*
G01X23507Y9756D03*
G01X22682Y18907D03*
G01X27383Y21750D03*
G01X16830Y26197D03*
G01X18963Y28503D03*
G01X24229Y11249D03*
G01X16555Y20093D03*
G01X13421Y7711D03*
G01X18811Y12821D03*
G01X25466Y10426D03*
G01X16182Y31986D03*
G01X13352Y6555D03*
G01X12349Y3914D03*
G01X13385Y5633D03*
G01X10205Y1168D03*
G01X11356Y9438D03*
G01X13619Y1874D03*
G01X10802Y6769D03*
G01X8821Y4191D03*
G01X22311Y16692D03*
G01X18770Y20485D03*
M00*
M02*
