;Layer: Drill PTH
;EasyEDA v6.2.43, 2019-09-14T08:05:40+03:00
;099efe80dd8e4075b8cc61d203687640,04130c9be27c403289d01f1062dd982b,10
;Gerber Generator version 0.2
M48
METRIC,LZ,000.000
;Holesize 1 = 0.310 METRIC
T01C0.310
;Holesize 2 = 0.380 METRIC
T02C0.380
;Holesize 3 = 0.701 METRIC
T03C0.701
;Holesize 4 = 0.889 METRIC
T04C0.889
;Holesize 5 = 1.000 METRIC
T05C1.000
;Holesize 6 = 1.016 METRIC
T06C1.016
;Holesize 7 = 1.101 METRIC
T07C1.101
%
G05
G90
T01
X+023507Y+009756
X+022682Y+018907
X+027383Y+021750
X+016830Y+026197
X+018963Y+028503
X+024229Y+011249
X+016555Y+020093
X+013421Y+007711
X+018811Y+012821
X+025466Y+010426
X+016182Y+031986
X+013352Y+006555
X+012349Y+003914
X+013385Y+005633
X+010205Y+001168
X+011356Y+009438
X+013619Y+001874
X+010802Y+006769
X+008821Y+004191
X+022311Y+016692
X+018770Y+020485
T02
X+007153Y+046109
X+007153Y+041109
X+009153Y+046109
X+009153Y+041109
X+011153Y+041109
X+011153Y+046109
X+013153Y+046109
X+013153Y+041109
X+015153Y+046109
X+015153Y+041109
X+017153Y+046109
X+017153Y+041109
X+019153Y+046109
X+019153Y+041109
X+021153Y+046109
X+021153Y+041109
X+023153Y+046109
X+023153Y+041109
X+025153Y+046109
T03
X+005461Y+004191
X+005461Y+005461
X+005461Y+008001
X+005461Y+009271
X+005461Y+010541
X+005461Y+011811
X+005461Y+019431
X+005461Y+020701
X+005461Y+021971
X+005461Y+024511
X+005461Y+025781
X+005461Y+027051
X+005461Y+023241
X+005461Y+018161
X+005461Y+016891
X+005461Y+015621
X+005461Y+014351
X+005461Y+013081
X+005461Y+006731
X+005461Y+002921
X+004191Y+002921
X+004191Y+006731
X+004191Y+013081
X+004191Y+014351
X+004191Y+015621
X+004191Y+016891
X+004191Y+018161
X+004191Y+023241
X+004191Y+027051
X+004191Y+025781
X+004191Y+024511
X+004191Y+021971
X+004191Y+020701
X+004191Y+019431
X+004191Y+011811
X+004191Y+010541
X+004191Y+009271
X+004191Y+008001
X+004191Y+005461
X+004191Y+004191
T04
X+047117Y+002413
X+044577Y+002413
X+042037Y+002413
T05
X+032258Y+038076
X+032258Y+035075
X+046990Y+038076
X+046990Y+035075
X+040850Y+006858
X+048049Y+006858
T06
X+039700Y+026035
X+046913Y+026035
T07
X+048133Y+012065
X+040513Y+012065
X+040513Y+016510
X+048133Y+016510
M30
