G04 Layer: BottomPasteMaskLayer*
G04 EasyEDA v6.2.43, 2019-09-14T08:05:40+03:00*
G04 099efe80dd8e4075b8cc61d203687640,04130c9be27c403289d01f1062dd982b,10*
G04 Gerber Generator version 0.2*
G04 Scale: 100 percent, Rotated: No, Reflected: No *
G04 Dimensions in millimeters *
G04 leading zeros omitted , absolute positions ,3 integer and 3 decimal *
%FSLAX33Y33*%
%MOMM*%
G90*
G71D02*


%LPD*%
G36*
G01X28371Y20688D02*
G01X26568Y20688D01*
G01X26568Y20281D01*
G01X28371Y20281D01*
G01X28371Y20688D01*
G37*
G36*
G01X28371Y20027D02*
G01X26568Y20027D01*
G01X26568Y19621D01*
G01X28371Y19621D01*
G01X28371Y20027D01*
G37*
G36*
G01X28371Y19392D02*
G01X26568Y19392D01*
G01X26568Y18986D01*
G01X28371Y18986D01*
G01X28371Y19392D01*
G37*
G36*
G01X28371Y18732D02*
G01X26568Y18732D01*
G01X26568Y18326D01*
G01X28371Y18326D01*
G01X28371Y18732D01*
G37*
G36*
G01X28371Y18072D02*
G01X26568Y18072D01*
G01X26568Y17665D01*
G01X28371Y17665D01*
G01X28371Y18072D01*
G37*
G36*
G01X28371Y17437D02*
G01X26568Y17437D01*
G01X26568Y17030D01*
G01X28371Y17030D01*
G01X28371Y17437D01*
G37*
G36*
G01X28371Y16776D02*
G01X26568Y16776D01*
G01X26568Y16370D01*
G01X28371Y16370D01*
G01X28371Y16776D01*
G37*
G36*
G01X28371Y16141D02*
G01X26568Y16141D01*
G01X26568Y15735D01*
G01X28371Y15735D01*
G01X28371Y16141D01*
G37*
G36*
G01X28371Y15481D02*
G01X26568Y15481D01*
G01X26568Y15074D01*
G01X28371Y15074D01*
G01X28371Y15481D01*
G37*
G36*
G01X28371Y14820D02*
G01X26568Y14820D01*
G01X26568Y14414D01*
G01X28371Y14414D01*
G01X28371Y14820D01*
G37*
G36*
G01X28371Y14185D02*
G01X26568Y14185D01*
G01X26568Y13779D01*
G01X28371Y13779D01*
G01X28371Y14185D01*
G37*
G36*
G01X28371Y13525D02*
G01X26568Y13525D01*
G01X26568Y13119D01*
G01X28371Y13119D01*
G01X28371Y13525D01*
G37*
G36*
G01X28371Y12890D02*
G01X26568Y12890D01*
G01X26568Y12484D01*
G01X28371Y12484D01*
G01X28371Y12890D01*
G37*
G36*
G01X28371Y12230D02*
G01X26568Y12230D01*
G01X26568Y11823D01*
G01X28371Y11823D01*
G01X28371Y12230D01*
G37*
G36*
G01X21183Y12230D02*
G01X19380Y12230D01*
G01X19380Y11823D01*
G01X21183Y11823D01*
G01X21183Y12230D01*
G37*
G36*
G01X21183Y12890D02*
G01X19380Y12890D01*
G01X19380Y12484D01*
G01X21183Y12484D01*
G01X21183Y12890D01*
G37*
G36*
G01X21183Y13525D02*
G01X19380Y13525D01*
G01X19380Y13119D01*
G01X21183Y13119D01*
G01X21183Y13525D01*
G37*
G36*
G01X21183Y14185D02*
G01X19380Y14185D01*
G01X19380Y13779D01*
G01X21183Y13779D01*
G01X21183Y14185D01*
G37*
G36*
G01X21183Y14820D02*
G01X19380Y14820D01*
G01X19380Y14414D01*
G01X21183Y14414D01*
G01X21183Y14820D01*
G37*
G36*
G01X21183Y15481D02*
G01X19380Y15481D01*
G01X19380Y15074D01*
G01X21183Y15074D01*
G01X21183Y15481D01*
G37*
G36*
G01X21183Y16141D02*
G01X19380Y16141D01*
G01X19380Y15735D01*
G01X21183Y15735D01*
G01X21183Y16141D01*
G37*
G36*
G01X21183Y16776D02*
G01X19380Y16776D01*
G01X19380Y16370D01*
G01X21183Y16370D01*
G01X21183Y16776D01*
G37*
G36*
G01X21183Y17437D02*
G01X19380Y17437D01*
G01X19380Y17030D01*
G01X21183Y17030D01*
G01X21183Y17437D01*
G37*
G36*
G01X21183Y18072D02*
G01X19380Y18072D01*
G01X19380Y17665D01*
G01X21183Y17665D01*
G01X21183Y18072D01*
G37*
G36*
G01X21183Y18732D02*
G01X19380Y18732D01*
G01X19380Y18326D01*
G01X21183Y18326D01*
G01X21183Y18732D01*
G37*
G36*
G01X21183Y19392D02*
G01X19380Y19392D01*
G01X19380Y18986D01*
G01X21183Y18986D01*
G01X21183Y19392D01*
G37*
G36*
G01X21183Y20027D02*
G01X19380Y20027D01*
G01X19380Y19621D01*
G01X21183Y19621D01*
G01X21183Y20027D01*
G37*
G36*
G01X21183Y20688D02*
G01X19380Y20688D01*
G01X19380Y20281D01*
G01X21183Y20281D01*
G01X21183Y20688D01*
G37*
M00*
M02*
