G04 Layer: TopSilkLayer*
G04 EasyEDA v6.2.43, 2019-09-14T08:05:40+03:00*
G04 099efe80dd8e4075b8cc61d203687640,04130c9be27c403289d01f1062dd982b,10*
G04 Gerber Generator version 0.2*
G04 Scale: 100 percent, Rotated: No, Reflected: No *
G04 Dimensions in millimeters *
G04 leading zeros omitted , absolute positions ,3 integer and 3 decimal *
%FSLAX33Y33*%
%MOMM*%
G90*
G71D02*

%ADD10C,0.254000*%
%ADD29C,0.228600*%
%ADD30C,0.203200*%
%ADD31C,0.202999*%
%ADD32C,0.152400*%

%LPD*%
G54D10*
G01X14986Y28702D02*
G01X14986Y29083D01*
G01X18923Y29083D01*
G01X32766Y28702D02*
G01X32766Y29083D01*
G01X28829Y29083D01*
G01X14986Y2540D02*
G01X14986Y2159D01*
G01X32893Y2159D01*
G01X32893Y2540D01*
G01X40665Y28778D02*
G01X45948Y28778D01*
G01X45948Y23291D02*
G01X40665Y23291D01*
G54D29*
G01X46863Y10922D02*
G01X41783Y10922D01*
G01X41783Y13208D01*
G01X46863Y13208D01*
G01X46863Y10922D01*
G01X42418Y10922D02*
G01X42418Y13208D01*
G01X41783Y17653D02*
G01X46863Y17653D01*
G01X46863Y15367D01*
G01X41783Y15367D01*
G01X41783Y17653D01*
G01X46228Y17653D02*
G01X46228Y15367D01*
G54D10*
G01X31826Y39741D02*
G01X32613Y39741D01*
G01X32207Y39335D02*
G01X32207Y40173D01*
G01X46558Y39741D02*
G01X47345Y39741D01*
G01X46939Y39335D02*
G01X46939Y40173D01*
G01X42550Y8008D02*
G01X46350Y8008D01*
G01X46350Y5708D01*
G01X42550Y5708D01*
G01X42550Y8008D01*
G54D30*
G01X42672Y3683D02*
G01X40767Y3683D01*
G01X40767Y1143D01*
G01X48387Y1143D01*
G01X48387Y3683D01*
G54D31*
G01X48387Y3683D02*
G01X42672Y3683D01*
G54D30*
G01X3103Y1645D02*
G01X6553Y1645D01*
G01X6553Y28295D01*
G01X3103Y28295D01*
G01X3103Y1656D01*
G54D10*
G01X42900Y39751D02*
G01X42900Y36195D01*
G01X42900Y36195D02*
G01X36347Y36195D01*
G01X36347Y36195D02*
G01X36347Y39751D01*
G01X36347Y39751D02*
G01X42900Y39751D01*
G54D32*
G01X22098Y38277D02*
G01X22098Y37500D01*
G01X22148Y37343D01*
G01X22252Y37238D01*
G01X22410Y37188D01*
G01X22514Y37188D01*
G01X22669Y37238D01*
G01X22773Y37343D01*
G01X22824Y37500D01*
G01X22824Y38277D01*
G01X23167Y38072D02*
G01X23271Y38122D01*
G01X23428Y38277D01*
G01X23428Y37188D01*
G54D30*
G01X28511Y4445D02*
G01X28511Y3489D01*
G01X28194Y4445D02*
G01X28831Y4445D01*
G01X29131Y4445D02*
G01X29494Y3489D01*
G01X29857Y4445D02*
G01X29494Y3489D01*
G01X11221Y28003D02*
G01X11178Y28094D01*
G01X11087Y28186D01*
G01X10995Y28232D01*
G01X10812Y28232D01*
G01X10723Y28186D01*
G01X10632Y28094D01*
G01X10586Y28003D01*
G01X10541Y27868D01*
G01X10541Y27640D01*
G01X10586Y27503D01*
G01X10632Y27414D01*
G01X10723Y27322D01*
G01X10812Y27277D01*
G01X10995Y27277D01*
G01X11087Y27322D01*
G01X11178Y27414D01*
G01X11221Y27503D01*
G01X11221Y27640D01*
G01X10995Y27640D02*
G01X11221Y27640D01*
G01X11523Y28232D02*
G01X11523Y27277D01*
G01X11523Y28232D02*
G01X12158Y27277D01*
G01X12158Y28232D02*
G01X12158Y27277D01*
G01X12458Y28232D02*
G01X12458Y27277D01*
G01X12458Y28232D02*
G01X12776Y28232D01*
G01X12913Y28186D01*
G01X13004Y28094D01*
G01X13050Y28003D01*
G01X13096Y27868D01*
G01X13096Y27640D01*
G01X13050Y27503D01*
G01X13004Y27414D01*
G01X12913Y27322D01*
G01X12776Y27277D01*
G01X12458Y27277D01*
G01X22733Y9293D02*
G01X24671Y9293D01*
G01X22733Y9293D02*
G01X22733Y10124D01*
G01X22824Y10401D01*
G01X22915Y10495D01*
G01X23101Y10586D01*
G01X23286Y10586D01*
G01X23472Y10495D01*
G01X23563Y10401D01*
G01X23655Y10124D01*
G01X23655Y9293D01*
G01X23655Y9941D02*
G01X24671Y10586D01*
G01X22733Y11196D02*
G01X24671Y11196D01*
G01X22733Y11196D02*
G01X24671Y12489D01*
G01X22733Y12489D02*
G01X24671Y12489D01*
G01X23192Y13192D02*
G01X23101Y13192D01*
G01X22915Y13284D01*
G01X22824Y13375D01*
G01X22733Y13561D01*
G01X22733Y13929D01*
G01X22824Y14114D01*
G01X22915Y14208D01*
G01X23101Y14300D01*
G01X23286Y14300D01*
G01X23472Y14208D01*
G01X23749Y14023D01*
G01X24671Y13098D01*
G01X24671Y14391D01*
G01X22733Y15925D02*
G01X24025Y15001D01*
G01X24025Y16388D01*
G01X22733Y15925D02*
G01X24671Y15925D01*
G01X22733Y17459D02*
G01X22824Y17180D01*
G01X23009Y17089D01*
G01X23192Y17089D01*
G01X23378Y17180D01*
G01X23472Y17366D01*
G01X23563Y17736D01*
G01X23655Y18013D01*
G01X23840Y18196D01*
G01X24025Y18290D01*
G01X24302Y18290D01*
G01X24488Y18196D01*
G01X24579Y18105D01*
G01X24671Y17828D01*
G01X24671Y17459D01*
G01X24579Y17180D01*
G01X24488Y17089D01*
G01X24302Y16997D01*
G01X24025Y16997D01*
G01X23840Y17089D01*
G01X23655Y17274D01*
G01X23563Y17551D01*
G01X23472Y17919D01*
G01X23378Y18105D01*
G01X23192Y18196D01*
G01X23009Y18196D01*
G01X22824Y18105D01*
G01X22733Y17828D01*
G01X22733Y17459D01*
G01X22733Y19085D02*
G01X22733Y20101D01*
G01X23472Y19545D01*
G01X23472Y19822D01*
G01X23563Y20007D01*
G01X23655Y20101D01*
G01X23931Y20193D01*
G01X24117Y20193D01*
G01X24394Y20101D01*
G01X24579Y19916D01*
G01X24671Y19639D01*
G01X24671Y19362D01*
G01X24579Y19085D01*
G01X24488Y18991D01*
G01X24302Y18900D01*
G01X21374Y25146D02*
G01X21191Y25054D01*
G01X21010Y24871D01*
G01X20919Y24691D01*
G01X20828Y24417D01*
G01X20828Y23962D01*
G01X20919Y23690D01*
G01X21010Y23507D01*
G01X21191Y23327D01*
G01X21374Y23235D01*
G01X21737Y23235D01*
G01X21917Y23327D01*
G01X22100Y23507D01*
G01X22191Y23690D01*
G01X22283Y23962D01*
G01X22283Y24417D01*
G01X22191Y24691D01*
G01X22100Y24871D01*
G01X21917Y25054D01*
G01X21737Y25146D01*
G01X21374Y25146D01*
G01X22882Y25146D02*
G01X22882Y23235D01*
G01X22882Y25146D02*
G01X23700Y25146D01*
G01X23972Y25054D01*
G01X24063Y24963D01*
G01X24155Y24780D01*
G01X24155Y24508D01*
G01X24063Y24325D01*
G01X23972Y24236D01*
G01X23700Y24145D01*
G01X22882Y24145D01*
G01X24754Y25146D02*
G01X24754Y23235D01*
G01X26083Y25146D02*
G01X25354Y23235D01*
G01X26083Y25146D02*
G01X26809Y23235D01*
G01X25628Y23870D02*
G01X26537Y23870D01*
G01X11221Y21653D02*
G01X11178Y21744D01*
G01X11087Y21836D01*
G01X10995Y21882D01*
G01X10812Y21882D01*
G01X10723Y21836D01*
G01X10632Y21744D01*
G01X10586Y21653D01*
G01X10541Y21518D01*
G01X10541Y21290D01*
G01X10586Y21153D01*
G01X10632Y21064D01*
G01X10723Y20972D01*
G01X10812Y20927D01*
G01X10995Y20927D01*
G01X11087Y20972D01*
G01X11178Y21064D01*
G01X11221Y21153D01*
G01X11221Y21290D01*
G01X10995Y21290D02*
G01X11221Y21290D01*
G01X11523Y21882D02*
G01X11523Y20927D01*
G01X11523Y21882D02*
G01X12158Y20927D01*
G01X12158Y21882D02*
G01X12158Y20927D01*
G01X12458Y21882D02*
G01X12458Y20927D01*
G01X12458Y21882D02*
G01X12776Y21882D01*
G01X12913Y21836D01*
G01X13004Y21744D01*
G01X13050Y21653D01*
G01X13096Y21518D01*
G01X13096Y21290D01*
G01X13050Y21153D01*
G01X13004Y21064D01*
G01X12913Y20972D01*
G01X12776Y20927D01*
G01X12458Y20927D01*
G01X11221Y3873D02*
G01X11178Y3964D01*
G01X11087Y4056D01*
G01X10995Y4102D01*
G01X10812Y4102D01*
G01X10723Y4056D01*
G01X10632Y3964D01*
G01X10586Y3873D01*
G01X10541Y3738D01*
G01X10541Y3510D01*
G01X10586Y3373D01*
G01X10632Y3284D01*
G01X10723Y3192D01*
G01X10812Y3147D01*
G01X10995Y3147D01*
G01X11087Y3192D01*
G01X11178Y3284D01*
G01X11221Y3373D01*
G01X11221Y3510D01*
G01X10995Y3510D02*
G01X11221Y3510D01*
G01X11523Y4102D02*
G01X11523Y3147D01*
G01X11523Y4102D02*
G01X12158Y3147D01*
G01X12158Y4102D02*
G01X12158Y3147D01*
G01X12458Y4102D02*
G01X12458Y3147D01*
G01X12458Y4102D02*
G01X12776Y4102D01*
G01X12913Y4056D01*
G01X13004Y3964D01*
G01X13050Y3873D01*
G01X13096Y3738D01*
G01X13096Y3510D01*
G01X13050Y3373D01*
G01X13004Y3284D01*
G01X12913Y3192D01*
G01X12776Y3147D01*
G01X12458Y3147D01*
G01X34970Y3873D02*
G01X34927Y3964D01*
G01X34836Y4056D01*
G01X34744Y4102D01*
G01X34561Y4102D01*
G01X34472Y4056D01*
G01X34381Y3964D01*
G01X34335Y3873D01*
G01X34290Y3738D01*
G01X34290Y3510D01*
G01X34335Y3373D01*
G01X34381Y3284D01*
G01X34472Y3192D01*
G01X34561Y3147D01*
G01X34744Y3147D01*
G01X34836Y3192D01*
G01X34927Y3284D01*
G01X34970Y3373D01*
G01X34970Y3510D01*
G01X34744Y3510D02*
G01X34970Y3510D01*
G01X35272Y4102D02*
G01X35272Y3147D01*
G01X35272Y4102D02*
G01X35907Y3147D01*
G01X35907Y4102D02*
G01X35907Y3147D01*
G01X36207Y4102D02*
G01X36207Y3147D01*
G01X36207Y4102D02*
G01X36525Y4102D01*
G01X36662Y4056D01*
G01X36753Y3964D01*
G01X36799Y3873D01*
G01X36845Y3738D01*
G01X36845Y3510D01*
G01X36799Y3373D01*
G01X36753Y3284D01*
G01X36662Y3192D01*
G01X36525Y3147D01*
G01X36207Y3147D01*
G01X34970Y28003D02*
G01X34927Y28094D01*
G01X34836Y28186D01*
G01X34744Y28232D01*
G01X34561Y28232D01*
G01X34472Y28186D01*
G01X34381Y28094D01*
G01X34335Y28003D01*
G01X34290Y27868D01*
G01X34290Y27640D01*
G01X34335Y27503D01*
G01X34381Y27414D01*
G01X34472Y27322D01*
G01X34561Y27277D01*
G01X34744Y27277D01*
G01X34836Y27322D01*
G01X34927Y27414D01*
G01X34970Y27503D01*
G01X34970Y27640D01*
G01X34744Y27640D02*
G01X34970Y27640D01*
G01X35272Y28232D02*
G01X35272Y27277D01*
G01X35272Y28232D02*
G01X35907Y27277D01*
G01X35907Y28232D02*
G01X35907Y27277D01*
G01X36207Y28232D02*
G01X36207Y27277D01*
G01X36207Y28232D02*
G01X36525Y28232D01*
G01X36662Y28186D01*
G01X36753Y28094D01*
G01X36799Y28003D01*
G01X36845Y27868D01*
G01X36845Y27640D01*
G01X36799Y27503D01*
G01X36753Y27414D01*
G01X36662Y27322D01*
G01X36525Y27277D01*
G01X36207Y27277D01*
G01X27495Y31414D02*
G01X27404Y31371D01*
G01X27312Y31280D01*
G01X27266Y31188D01*
G01X27266Y31005D01*
G01X27312Y30916D01*
G01X27404Y30825D01*
G01X27495Y30779D01*
G01X27630Y30734D01*
G01X27858Y30734D01*
G01X27995Y30779D01*
G01X28084Y30825D01*
G01X28176Y30916D01*
G01X28221Y31005D01*
G01X28221Y31188D01*
G01X28176Y31280D01*
G01X28084Y31371D01*
G01X27995Y31414D01*
G01X27858Y31414D01*
G01X27858Y31188D02*
G01X27858Y31414D01*
G01X27266Y31716D02*
G01X28221Y31716D01*
G01X27266Y31716D02*
G01X28221Y32351D01*
G01X27266Y32351D02*
G01X28221Y32351D01*
G01X27266Y32651D02*
G01X28221Y32651D01*
G01X27266Y32651D02*
G01X27266Y32969D01*
G01X27312Y33106D01*
G01X27404Y33197D01*
G01X27495Y33243D01*
G01X27630Y33289D01*
G01X27858Y33289D01*
G01X27995Y33243D01*
G01X28084Y33197D01*
G01X28176Y33106D01*
G01X28221Y32969D01*
G01X28221Y32651D01*
G01X19786Y31414D02*
G01X19695Y31371D01*
G01X19603Y31280D01*
G01X19558Y31188D01*
G01X19558Y31005D01*
G01X19603Y30916D01*
G01X19695Y30825D01*
G01X19786Y30779D01*
G01X19921Y30734D01*
G01X20149Y30734D01*
G01X20286Y30779D01*
G01X20375Y30825D01*
G01X20467Y30916D01*
G01X20513Y31005D01*
G01X20513Y31188D01*
G01X20467Y31280D01*
G01X20375Y31371D01*
G01X20286Y31414D01*
G01X20149Y31414D01*
G01X20149Y31188D02*
G01X20149Y31414D01*
G01X19558Y31716D02*
G01X20513Y31716D01*
G01X19558Y31716D02*
G01X20513Y32351D01*
G01X19558Y32351D02*
G01X20513Y32351D01*
G01X19558Y32651D02*
G01X20513Y32651D01*
G01X19558Y32651D02*
G01X19558Y32969D01*
G01X19603Y33106D01*
G01X19695Y33197D01*
G01X19786Y33243D01*
G01X19921Y33289D01*
G01X20149Y33289D01*
G01X20286Y33243D01*
G01X20375Y33197D01*
G01X20467Y33106D01*
G01X20513Y32969D01*
G01X20513Y32651D01*
G01X21056Y31414D02*
G01X20965Y31371D01*
G01X20873Y31280D01*
G01X20828Y31188D01*
G01X20828Y31005D01*
G01X20873Y30916D01*
G01X20965Y30825D01*
G01X21056Y30779D01*
G01X21191Y30734D01*
G01X21419Y30734D01*
G01X21556Y30779D01*
G01X21645Y30825D01*
G01X21737Y30916D01*
G01X21783Y31005D01*
G01X21783Y31188D01*
G01X21737Y31280D01*
G01X21645Y31371D01*
G01X21556Y31414D01*
G01X21419Y31414D01*
G01X21419Y31188D02*
G01X21419Y31414D01*
G01X20828Y31716D02*
G01X21783Y31716D01*
G01X20828Y31716D02*
G01X21783Y32351D01*
G01X20828Y32351D02*
G01X21783Y32351D01*
G01X20828Y32651D02*
G01X21783Y32651D01*
G01X20828Y32651D02*
G01X20828Y32969D01*
G01X20873Y33106D01*
G01X20965Y33197D01*
G01X21056Y33243D01*
G01X21191Y33289D01*
G01X21419Y33289D01*
G01X21556Y33243D01*
G01X21645Y33197D01*
G01X21737Y33106D01*
G01X21783Y32969D01*
G01X21783Y32651D01*
G01X23558Y31414D02*
G01X23467Y31371D01*
G01X23375Y31280D01*
G01X23329Y31188D01*
G01X23329Y31005D01*
G01X23375Y30916D01*
G01X23467Y30825D01*
G01X23558Y30779D01*
G01X23693Y30734D01*
G01X23921Y30734D01*
G01X24058Y30779D01*
G01X24147Y30825D01*
G01X24239Y30916D01*
G01X24284Y31005D01*
G01X24284Y31188D01*
G01X24239Y31280D01*
G01X24147Y31371D01*
G01X24058Y31414D01*
G01X23921Y31414D01*
G01X23921Y31188D02*
G01X23921Y31414D01*
G01X23329Y31716D02*
G01X24284Y31716D01*
G01X23329Y31716D02*
G01X24284Y32351D01*
G01X23329Y32351D02*
G01X24284Y32351D01*
G01X23329Y32651D02*
G01X24284Y32651D01*
G01X23329Y32651D02*
G01X23329Y32969D01*
G01X23375Y33106D01*
G01X23467Y33197D01*
G01X23558Y33243D01*
G01X23693Y33289D01*
G01X23921Y33289D01*
G01X24058Y33243D01*
G01X24147Y33197D01*
G01X24239Y33106D01*
G01X24284Y32969D01*
G01X24284Y32651D01*
G01X26136Y31414D02*
G01X26045Y31371D01*
G01X25953Y31280D01*
G01X25908Y31188D01*
G01X25908Y31005D01*
G01X25953Y30916D01*
G01X26045Y30825D01*
G01X26136Y30779D01*
G01X26271Y30734D01*
G01X26499Y30734D01*
G01X26636Y30779D01*
G01X26725Y30825D01*
G01X26817Y30916D01*
G01X26863Y31005D01*
G01X26863Y31188D01*
G01X26817Y31280D01*
G01X26725Y31371D01*
G01X26636Y31414D01*
G01X26499Y31414D01*
G01X26499Y31188D02*
G01X26499Y31414D01*
G01X25908Y31716D02*
G01X26863Y31716D01*
G01X25908Y31716D02*
G01X26863Y32351D01*
G01X25908Y32351D02*
G01X26863Y32351D01*
G01X25908Y32651D02*
G01X26863Y32651D01*
G01X25908Y32651D02*
G01X25908Y32969D01*
G01X25953Y33106D01*
G01X26045Y33197D01*
G01X26136Y33243D01*
G01X26271Y33289D01*
G01X26499Y33289D01*
G01X26636Y33243D01*
G01X26725Y33197D01*
G01X26817Y33106D01*
G01X26863Y32969D01*
G01X26863Y32651D01*
G01X24599Y31097D02*
G01X25554Y30734D01*
G01X24599Y31097D02*
G01X25554Y31460D01*
G01X25237Y30871D02*
G01X25237Y31325D01*
G01X24599Y32080D02*
G01X25554Y32080D01*
G01X24599Y31760D02*
G01X24599Y32397D01*
G01X24599Y32697D02*
G01X25554Y32697D01*
G01X24599Y32697D02*
G01X25554Y33334D01*
G01X24599Y33334D02*
G01X25554Y33334D01*
G01X24599Y34561D02*
G01X24645Y34424D01*
G01X24737Y34378D01*
G01X24828Y34378D01*
G01X24919Y34424D01*
G01X24963Y34516D01*
G01X25008Y34696D01*
G01X25054Y34833D01*
G01X25146Y34925D01*
G01X25237Y34970D01*
G01X25372Y34970D01*
G01X25463Y34925D01*
G01X25509Y34879D01*
G01X25554Y34742D01*
G01X25554Y34561D01*
G01X25509Y34424D01*
G01X25463Y34378D01*
G01X25372Y34333D01*
G01X25237Y34333D01*
G01X25146Y34378D01*
G01X25054Y34470D01*
G01X25008Y34607D01*
G01X24963Y34787D01*
G01X24919Y34879D01*
G01X24828Y34925D01*
G01X24737Y34925D01*
G01X24645Y34879D01*
G01X24599Y34742D01*
G01X24599Y34561D01*
G01X24737Y35816D02*
G01X24645Y35770D01*
G01X24599Y35633D01*
G01X24599Y35542D01*
G01X24645Y35407D01*
G01X24782Y35316D01*
G01X25008Y35270D01*
G01X25237Y35270D01*
G01X25417Y35316D01*
G01X25509Y35407D01*
G01X25554Y35542D01*
G01X25554Y35587D01*
G01X25509Y35725D01*
G01X25417Y35816D01*
G01X25283Y35862D01*
G01X25237Y35862D01*
G01X25100Y35816D01*
G01X25008Y35725D01*
G01X24963Y35587D01*
G01X24963Y35542D01*
G01X25008Y35407D01*
G01X25100Y35316D01*
G01X25237Y35270D01*
G01X24599Y36388D02*
G01X24645Y36253D01*
G01X24737Y36207D01*
G01X24828Y36207D01*
G01X24919Y36253D01*
G01X24963Y36342D01*
G01X25008Y36525D01*
G01X25054Y36662D01*
G01X25146Y36751D01*
G01X25237Y36796D01*
G01X25372Y36796D01*
G01X25463Y36751D01*
G01X25509Y36705D01*
G01X25554Y36570D01*
G01X25554Y36388D01*
G01X25509Y36253D01*
G01X25463Y36207D01*
G01X25372Y36161D01*
G01X25237Y36161D01*
G01X25146Y36207D01*
G01X25054Y36296D01*
G01X25008Y36433D01*
G01X24963Y36616D01*
G01X24919Y36705D01*
G01X24828Y36751D01*
G01X24737Y36751D01*
G01X24645Y36705D01*
G01X24599Y36570D01*
G01X24599Y36388D01*
G01X22097Y31097D02*
G01X23053Y30734D01*
G01X22097Y31097D02*
G01X23053Y31460D01*
G01X22735Y30871D02*
G01X22735Y31325D01*
G01X22097Y32080D02*
G01X23053Y32080D01*
G01X22097Y31760D02*
G01X22097Y32397D01*
G01X22097Y32697D02*
G01X23053Y32697D01*
G01X22097Y32697D02*
G01X23053Y33334D01*
G01X22097Y33334D02*
G01X23053Y33334D01*
G01X22097Y34787D02*
G01X22735Y34333D01*
G01X22735Y35016D01*
G01X22097Y34787D02*
G01X23053Y34787D01*
G01X22097Y35407D02*
G01X22097Y35907D01*
G01X22461Y35633D01*
G01X22461Y35770D01*
G01X22506Y35862D01*
G01X22552Y35907D01*
G01X22689Y35951D01*
G01X22781Y35951D01*
G01X22915Y35907D01*
G01X23007Y35816D01*
G01X23053Y35679D01*
G01X23053Y35542D01*
G01X23007Y35407D01*
G01X22961Y35361D01*
G01X22870Y35316D01*
G01X22097Y36705D02*
G01X22735Y36253D01*
G01X22735Y36934D01*
G01X22097Y36705D02*
G01X23053Y36705D01*
G01X11221Y11404D02*
G01X11178Y11496D01*
G01X11087Y11587D01*
G01X10995Y11633D01*
G01X10812Y11633D01*
G01X10723Y11587D01*
G01X10632Y11496D01*
G01X10586Y11404D01*
G01X10541Y11269D01*
G01X10541Y11041D01*
G01X10586Y10904D01*
G01X10632Y10815D01*
G01X10723Y10723D01*
G01X10812Y10678D01*
G01X10995Y10678D01*
G01X11087Y10723D01*
G01X11178Y10815D01*
G01X11221Y10904D01*
G01X11221Y11041D01*
G01X10995Y11041D02*
G01X11221Y11041D01*
G01X11523Y11633D02*
G01X11523Y10678D01*
G01X11523Y11633D02*
G01X12158Y10678D01*
G01X12158Y11633D02*
G01X12158Y10678D01*
G01X12458Y11633D02*
G01X12458Y10678D01*
G01X12458Y11633D02*
G01X12776Y11633D01*
G01X12913Y11587D01*
G01X13004Y11496D01*
G01X13050Y11404D01*
G01X13096Y11269D01*
G01X13096Y11041D01*
G01X13050Y10904D01*
G01X13004Y10815D01*
G01X12913Y10723D01*
G01X12776Y10678D01*
G01X12458Y10678D01*
G01X34970Y12801D02*
G01X34927Y12893D01*
G01X34836Y12984D01*
G01X34744Y13030D01*
G01X34561Y13030D01*
G01X34472Y12984D01*
G01X34381Y12893D01*
G01X34335Y12801D01*
G01X34290Y12666D01*
G01X34290Y12438D01*
G01X34335Y12301D01*
G01X34381Y12212D01*
G01X34472Y12120D01*
G01X34561Y12075D01*
G01X34744Y12075D01*
G01X34836Y12120D01*
G01X34927Y12212D01*
G01X34970Y12301D01*
G01X34970Y12438D01*
G01X34744Y12438D02*
G01X34970Y12438D01*
G01X35272Y13030D02*
G01X35272Y12075D01*
G01X35272Y13030D02*
G01X35907Y12075D01*
G01X35907Y13030D02*
G01X35907Y12075D01*
G01X36207Y13030D02*
G01X36207Y12075D01*
G01X36207Y13030D02*
G01X36525Y13030D01*
G01X36662Y12984D01*
G01X36753Y12893D01*
G01X36799Y12801D01*
G01X36845Y12666D01*
G01X36845Y12438D01*
G01X36799Y12301D01*
G01X36753Y12212D01*
G01X36662Y12120D01*
G01X36525Y12075D01*
G01X36207Y12075D01*
G01X34970Y16611D02*
G01X34927Y16703D01*
G01X34836Y16794D01*
G01X34744Y16840D01*
G01X34561Y16840D01*
G01X34472Y16794D01*
G01X34381Y16703D01*
G01X34335Y16611D01*
G01X34290Y16476D01*
G01X34290Y16248D01*
G01X34335Y16111D01*
G01X34381Y16022D01*
G01X34472Y15930D01*
G01X34561Y15885D01*
G01X34744Y15885D01*
G01X34836Y15930D01*
G01X34927Y16022D01*
G01X34970Y16111D01*
G01X34970Y16248D01*
G01X34744Y16248D02*
G01X34970Y16248D01*
G01X35272Y16840D02*
G01X35272Y15885D01*
G01X35272Y16840D02*
G01X35907Y15885D01*
G01X35907Y16840D02*
G01X35907Y15885D01*
G01X36207Y16840D02*
G01X36207Y15885D01*
G01X36207Y16840D02*
G01X36525Y16840D01*
G01X36662Y16794D01*
G01X36753Y16703D01*
G01X36799Y16611D01*
G01X36845Y16476D01*
G01X36845Y16248D01*
G01X36799Y16111D01*
G01X36753Y16022D01*
G01X36662Y15930D01*
G01X36525Y15885D01*
G01X36207Y15885D01*
G01X34607Y10325D02*
G01X34607Y9370D01*
G01X34290Y10325D02*
G01X34927Y10325D01*
G01X35227Y10325D02*
G01X35862Y9370D01*
G01X35862Y10325D02*
G01X35227Y9370D01*
G01X34290Y11633D02*
G01X34290Y10678D01*
G01X34290Y11633D02*
G01X34698Y11633D01*
G01X34836Y11587D01*
G01X34881Y11541D01*
G01X34927Y11450D01*
G01X34927Y11358D01*
G01X34881Y11269D01*
G01X34836Y11224D01*
G01X34698Y11178D01*
G01X34290Y11178D01*
G01X34607Y11178D02*
G01X34927Y10678D01*
G01X35227Y11633D02*
G01X35862Y10678D01*
G01X35862Y11633D02*
G01X35227Y10678D01*
G01X34970Y6324D02*
G01X34927Y6416D01*
G01X34836Y6507D01*
G01X34744Y6553D01*
G01X34561Y6553D01*
G01X34472Y6507D01*
G01X34381Y6416D01*
G01X34335Y6324D01*
G01X34290Y6189D01*
G01X34290Y5961D01*
G01X34335Y5824D01*
G01X34381Y5735D01*
G01X34472Y5643D01*
G01X34561Y5598D01*
G01X34744Y5598D01*
G01X34836Y5643D01*
G01X34927Y5735D01*
G01X34970Y5824D01*
G01X35590Y6553D02*
G01X35590Y5598D01*
G01X35272Y6553D02*
G01X35907Y6553D01*
G01X36845Y6416D02*
G01X36753Y6507D01*
G01X36616Y6553D01*
G01X36436Y6553D01*
G01X36299Y6507D01*
G01X36207Y6416D01*
G01X36207Y6324D01*
G01X36253Y6233D01*
G01X36299Y6189D01*
G01X36390Y6144D01*
G01X36662Y6052D01*
G01X36753Y6007D01*
G01X36799Y5961D01*
G01X36845Y5869D01*
G01X36845Y5735D01*
G01X36753Y5643D01*
G01X36616Y5598D01*
G01X36436Y5598D01*
G01X36299Y5643D01*
G01X36207Y5735D01*
G01X34290Y5372D02*
G01X34290Y4417D01*
G01X34290Y5372D02*
G01X34698Y5372D01*
G01X34836Y5326D01*
G01X34881Y5280D01*
G01X34927Y5189D01*
G01X34927Y5097D01*
G01X34881Y5008D01*
G01X34836Y4963D01*
G01X34698Y4917D01*
G01X34290Y4917D01*
G01X34607Y4917D02*
G01X34927Y4417D01*
G01X35544Y5372D02*
G01X35544Y4417D01*
G01X35227Y5372D02*
G01X35862Y5372D01*
G01X36799Y5234D02*
G01X36708Y5326D01*
G01X36570Y5372D01*
G01X36390Y5372D01*
G01X36253Y5326D01*
G01X36161Y5234D01*
G01X36161Y5143D01*
G01X36207Y5052D01*
G01X36253Y5008D01*
G01X36344Y4963D01*
G01X36616Y4871D01*
G01X36708Y4826D01*
G01X36753Y4780D01*
G01X36799Y4688D01*
G01X36799Y4554D01*
G01X36708Y4462D01*
G01X36570Y4417D01*
G01X36390Y4417D01*
G01X36253Y4462D01*
G01X36161Y4554D01*
G01X34290Y18110D02*
G01X34653Y17155D01*
G01X35016Y18110D02*
G01X34653Y17155D01*
G01X35999Y17881D02*
G01X35953Y17973D01*
G01X35862Y18064D01*
G01X35770Y18110D01*
G01X35590Y18110D01*
G01X35499Y18064D01*
G01X35407Y17973D01*
G01X35361Y17881D01*
G01X35316Y17746D01*
G01X35316Y17518D01*
G01X35361Y17381D01*
G01X35407Y17292D01*
G01X35499Y17200D01*
G01X35590Y17155D01*
G01X35770Y17155D01*
G01X35862Y17200D01*
G01X35953Y17292D01*
G01X35999Y17381D01*
G01X36979Y17881D02*
G01X36936Y17973D01*
G01X36845Y18064D01*
G01X36753Y18110D01*
G01X36570Y18110D01*
G01X36482Y18064D01*
G01X36390Y17973D01*
G01X36344Y17881D01*
G01X36299Y17746D01*
G01X36299Y17518D01*
G01X36344Y17381D01*
G01X36390Y17292D01*
G01X36482Y17200D01*
G01X36570Y17155D01*
G01X36753Y17155D01*
G01X36845Y17200D01*
G01X36936Y17292D01*
G01X36979Y17381D01*
G01X10406Y20485D02*
G01X10769Y19530D01*
G01X11132Y20485D02*
G01X10769Y19530D01*
G01X12115Y20256D02*
G01X12070Y20347D01*
G01X11978Y20439D01*
G01X11887Y20485D01*
G01X11706Y20485D01*
G01X11615Y20439D01*
G01X11523Y20347D01*
G01X11478Y20256D01*
G01X11432Y20121D01*
G01X11432Y19893D01*
G01X11478Y19756D01*
G01X11523Y19667D01*
G01X11615Y19575D01*
G01X11706Y19530D01*
G01X11887Y19530D01*
G01X11978Y19575D01*
G01X12070Y19667D01*
G01X12115Y19756D01*
G01X13096Y20256D02*
G01X13053Y20347D01*
G01X12961Y20439D01*
G01X12870Y20485D01*
G01X12687Y20485D01*
G01X12598Y20439D01*
G01X12506Y20347D01*
G01X12461Y20256D01*
G01X12415Y20121D01*
G01X12415Y19893D01*
G01X12461Y19756D01*
G01X12506Y19667D01*
G01X12598Y19575D01*
G01X12687Y19530D01*
G01X12870Y19530D01*
G01X12961Y19575D01*
G01X13053Y19667D01*
G01X13096Y19756D01*
G01X8806Y23152D02*
G01X8806Y22197D01*
G01X8806Y23152D02*
G01X9215Y23152D01*
G01X9352Y23106D01*
G01X9398Y23060D01*
G01X9443Y22969D01*
G01X9443Y22877D01*
G01X9398Y22788D01*
G01X9352Y22743D01*
G01X9215Y22697D01*
G01X8806Y22697D01*
G01X9123Y22697D02*
G01X9443Y22197D01*
G01X9743Y23152D02*
G01X9743Y22197D01*
G01X9743Y23152D02*
G01X10332Y23152D01*
G01X9743Y22697D02*
G01X10106Y22697D01*
G01X9743Y22197D02*
G01X10332Y22197D01*
G01X11270Y23014D02*
G01X11178Y23106D01*
G01X11041Y23152D01*
G01X10861Y23152D01*
G01X10723Y23106D01*
G01X10632Y23014D01*
G01X10632Y22923D01*
G01X10678Y22832D01*
G01X10723Y22788D01*
G01X10815Y22743D01*
G01X11087Y22651D01*
G01X11178Y22606D01*
G01X11224Y22560D01*
G01X11270Y22468D01*
G01X11270Y22334D01*
G01X11178Y22242D01*
G01X11041Y22197D01*
G01X10861Y22197D01*
G01X10723Y22242D01*
G01X10632Y22334D01*
G01X11569Y23152D02*
G01X11569Y22197D01*
G01X11569Y23152D02*
G01X12161Y23152D01*
G01X11569Y22697D02*
G01X11932Y22697D01*
G01X11569Y22197D02*
G01X12161Y22197D01*
G01X12778Y23152D02*
G01X12778Y22197D01*
G01X12461Y23152D02*
G01X13096Y23152D01*
G01X7668Y24422D02*
G01X7668Y23467D01*
G01X7668Y24422D02*
G01X8077Y24422D01*
G01X8214Y24376D01*
G01X8260Y24330D01*
G01X8305Y24239D01*
G01X8305Y24102D01*
G01X8260Y24013D01*
G01X8214Y23967D01*
G01X8077Y23921D01*
G01X7668Y23921D01*
G01X9286Y24193D02*
G01X9240Y24284D01*
G01X9149Y24376D01*
G01X9060Y24422D01*
G01X8877Y24422D01*
G01X8785Y24376D01*
G01X8694Y24284D01*
G01X8651Y24193D01*
G01X8605Y24058D01*
G01X8605Y23830D01*
G01X8651Y23693D01*
G01X8694Y23604D01*
G01X8785Y23512D01*
G01X8877Y23467D01*
G01X9060Y23467D01*
G01X9149Y23512D01*
G01X9240Y23604D01*
G01X9286Y23693D01*
G01X9286Y23830D01*
G01X9060Y23830D02*
G01X9286Y23830D01*
G01X9585Y24422D02*
G01X9585Y23467D01*
G01X9585Y24422D02*
G01X9903Y24422D01*
G01X10040Y24376D01*
G01X10132Y24284D01*
G01X10177Y24193D01*
G01X10223Y24058D01*
G01X10223Y23830D01*
G01X10177Y23693D01*
G01X10132Y23604D01*
G01X10040Y23512D01*
G01X9903Y23467D01*
G01X9585Y23467D01*
G01X11221Y24422D02*
G01X11221Y23467D01*
G01X11523Y24422D02*
G01X11523Y23467D01*
G01X11523Y24422D02*
G01X12158Y23467D01*
G01X12158Y24422D02*
G01X12158Y23467D01*
G01X12776Y24422D02*
G01X12776Y23467D01*
G01X12458Y24422D02*
G01X13096Y24422D01*
G01X7622Y25692D02*
G01X7622Y24737D01*
G01X7622Y25692D02*
G01X8031Y25692D01*
G01X8168Y25646D01*
G01X8214Y25600D01*
G01X8260Y25509D01*
G01X8260Y25372D01*
G01X8214Y25283D01*
G01X8168Y25237D01*
G01X8031Y25191D01*
G01X7622Y25191D01*
G01X9240Y25463D02*
G01X9194Y25554D01*
G01X9103Y25646D01*
G01X9014Y25692D01*
G01X8831Y25692D01*
G01X8740Y25646D01*
G01X8648Y25554D01*
G01X8605Y25463D01*
G01X8559Y25328D01*
G01X8559Y25100D01*
G01X8605Y24963D01*
G01X8648Y24874D01*
G01X8740Y24782D01*
G01X8831Y24737D01*
G01X9014Y24737D01*
G01X9103Y24782D01*
G01X9194Y24874D01*
G01X9240Y24963D01*
G01X9240Y25100D01*
G01X9014Y25100D02*
G01X9240Y25100D01*
G01X10223Y25463D02*
G01X10177Y25554D01*
G01X10086Y25646D01*
G01X9994Y25692D01*
G01X9814Y25692D01*
G01X9723Y25646D01*
G01X9631Y25554D01*
G01X9585Y25463D01*
G01X9540Y25328D01*
G01X9540Y25100D01*
G01X9585Y24963D01*
G01X9631Y24874D01*
G01X9723Y24782D01*
G01X9814Y24737D01*
G01X9994Y24737D01*
G01X10086Y24782D01*
G01X10177Y24874D01*
G01X10223Y24963D01*
G01X11221Y25692D02*
G01X11221Y24737D01*
G01X11521Y25692D02*
G01X11521Y24737D01*
G01X11521Y25692D02*
G01X12158Y24737D01*
G01X12158Y25692D02*
G01X12158Y24737D01*
G01X12776Y25692D02*
G01X12776Y24737D01*
G01X12458Y25692D02*
G01X13096Y25692D01*
G01X10304Y18986D02*
G01X10261Y19077D01*
G01X10170Y19169D01*
G01X10078Y19215D01*
G01X9895Y19215D01*
G01X9806Y19169D01*
G01X9715Y19077D01*
G01X9669Y18986D01*
G01X9624Y18851D01*
G01X9624Y18623D01*
G01X9669Y18486D01*
G01X9715Y18397D01*
G01X9806Y18305D01*
G01X9895Y18260D01*
G01X10078Y18260D01*
G01X10170Y18305D01*
G01X10261Y18397D01*
G01X10304Y18486D01*
G01X10304Y18623D01*
G01X10078Y18623D02*
G01X10304Y18623D01*
G01X10607Y19215D02*
G01X10607Y18260D01*
G01X10607Y19215D02*
G01X11016Y19215D01*
G01X11150Y19169D01*
G01X11196Y19123D01*
G01X11242Y19032D01*
G01X11242Y18895D01*
G01X11196Y18806D01*
G01X11150Y18760D01*
G01X11016Y18714D01*
G01X10607Y18714D01*
G01X11541Y19215D02*
G01X11541Y18260D01*
G01X12115Y19215D02*
G01X12024Y19169D01*
G01X11932Y19077D01*
G01X11887Y18986D01*
G01X11841Y18851D01*
G01X11841Y18623D01*
G01X11887Y18486D01*
G01X11932Y18397D01*
G01X12024Y18305D01*
G01X12115Y18260D01*
G01X12296Y18260D01*
G01X12387Y18305D01*
G01X12479Y18397D01*
G01X12524Y18486D01*
G01X12570Y18623D01*
G01X12570Y18851D01*
G01X12524Y18986D01*
G01X12479Y19077D01*
G01X12387Y19169D01*
G01X12296Y19215D01*
G01X12115Y19215D01*
G01X12870Y19032D02*
G01X12961Y19077D01*
G01X13096Y19215D01*
G01X13096Y18260D01*
G01X9850Y14033D02*
G01X9806Y14124D01*
G01X9715Y14216D01*
G01X9624Y14262D01*
G01X9441Y14262D01*
G01X9352Y14216D01*
G01X9260Y14124D01*
G01X9215Y14033D01*
G01X9169Y13898D01*
G01X9169Y13670D01*
G01X9215Y13533D01*
G01X9260Y13444D01*
G01X9352Y13352D01*
G01X9441Y13307D01*
G01X9624Y13307D01*
G01X9715Y13352D01*
G01X9806Y13444D01*
G01X9850Y13533D01*
G01X9850Y13670D01*
G01X9624Y13670D02*
G01X9850Y13670D01*
G01X10152Y14262D02*
G01X10152Y13307D01*
G01X10152Y14262D02*
G01X10561Y14262D01*
G01X10695Y14216D01*
G01X10741Y14170D01*
G01X10787Y14079D01*
G01X10787Y13942D01*
G01X10741Y13853D01*
G01X10695Y13807D01*
G01X10561Y13761D01*
G01X10152Y13761D01*
G01X11087Y14262D02*
G01X11087Y13307D01*
G01X11661Y14262D02*
G01X11569Y14216D01*
G01X11478Y14124D01*
G01X11432Y14033D01*
G01X11386Y13898D01*
G01X11386Y13670D01*
G01X11432Y13533D01*
G01X11478Y13444D01*
G01X11569Y13352D01*
G01X11661Y13307D01*
G01X11841Y13307D01*
G01X11932Y13352D01*
G01X12024Y13444D01*
G01X12070Y13533D01*
G01X12115Y13670D01*
G01X12115Y13898D01*
G01X12070Y14033D01*
G01X12024Y14124D01*
G01X11932Y14216D01*
G01X11841Y14262D01*
G01X11661Y14262D01*
G01X12870Y14262D02*
G01X12415Y13624D01*
G01X13096Y13624D01*
G01X12870Y14262D02*
G01X12870Y13307D01*
G01X9941Y8953D02*
G01X9898Y9044D01*
G01X9806Y9136D01*
G01X9715Y9182D01*
G01X9532Y9182D01*
G01X9443Y9136D01*
G01X9352Y9044D01*
G01X9306Y8953D01*
G01X9260Y8818D01*
G01X9260Y8590D01*
G01X9306Y8453D01*
G01X9352Y8364D01*
G01X9443Y8272D01*
G01X9532Y8227D01*
G01X9715Y8227D01*
G01X9806Y8272D01*
G01X9898Y8364D01*
G01X9941Y8453D01*
G01X9941Y8590D01*
G01X9715Y8590D02*
G01X9941Y8590D01*
G01X10243Y9182D02*
G01X10243Y8227D01*
G01X10243Y9182D02*
G01X10652Y9182D01*
G01X10787Y9136D01*
G01X10833Y9090D01*
G01X10878Y8999D01*
G01X10878Y8862D01*
G01X10833Y8773D01*
G01X10787Y8727D01*
G01X10652Y8681D01*
G01X10243Y8681D01*
G01X11178Y9182D02*
G01X11178Y8227D01*
G01X11752Y9182D02*
G01X11661Y9136D01*
G01X11569Y9044D01*
G01X11523Y8953D01*
G01X11478Y8818D01*
G01X11478Y8590D01*
G01X11523Y8453D01*
G01X11569Y8364D01*
G01X11661Y8272D01*
G01X11752Y8227D01*
G01X11932Y8227D01*
G01X12024Y8272D01*
G01X12115Y8364D01*
G01X12161Y8453D01*
G01X12207Y8590D01*
G01X12207Y8818D01*
G01X12161Y8953D01*
G01X12115Y9044D01*
G01X12024Y9136D01*
G01X11932Y9182D01*
G01X11752Y9182D01*
G01X13050Y9044D02*
G01X13007Y9136D01*
G01X12870Y9182D01*
G01X12778Y9182D01*
G01X12641Y9136D01*
G01X12552Y8999D01*
G01X12506Y8773D01*
G01X12506Y8544D01*
G01X12552Y8364D01*
G01X12641Y8272D01*
G01X12778Y8227D01*
G01X12824Y8227D01*
G01X12961Y8272D01*
G01X13050Y8364D01*
G01X13096Y8498D01*
G01X13096Y8544D01*
G01X13050Y8681D01*
G01X12961Y8773D01*
G01X12824Y8818D01*
G01X12778Y8818D01*
G01X12641Y8773D01*
G01X12552Y8681D01*
G01X12506Y8544D01*
G01X9941Y5270D02*
G01X9898Y5361D01*
G01X9806Y5453D01*
G01X9715Y5499D01*
G01X9532Y5499D01*
G01X9443Y5453D01*
G01X9352Y5361D01*
G01X9306Y5270D01*
G01X9260Y5135D01*
G01X9260Y4907D01*
G01X9306Y4770D01*
G01X9352Y4681D01*
G01X9443Y4589D01*
G01X9532Y4544D01*
G01X9715Y4544D01*
G01X9806Y4589D01*
G01X9898Y4681D01*
G01X9941Y4770D01*
G01X9941Y4907D01*
G01X9715Y4907D02*
G01X9941Y4907D01*
G01X10243Y5499D02*
G01X10243Y4544D01*
G01X10243Y5499D02*
G01X10652Y5499D01*
G01X10787Y5453D01*
G01X10833Y5407D01*
G01X10878Y5316D01*
G01X10878Y5179D01*
G01X10833Y5090D01*
G01X10787Y5044D01*
G01X10652Y4998D01*
G01X10243Y4998D01*
G01X11178Y5499D02*
G01X11178Y4544D01*
G01X11752Y5499D02*
G01X11661Y5453D01*
G01X11569Y5361D01*
G01X11523Y5270D01*
G01X11478Y5135D01*
G01X11478Y4907D01*
G01X11523Y4770D01*
G01X11569Y4681D01*
G01X11661Y4589D01*
G01X11752Y4544D01*
G01X11932Y4544D01*
G01X12024Y4589D01*
G01X12115Y4681D01*
G01X12161Y4770D01*
G01X12207Y4907D01*
G01X12207Y5135D01*
G01X12161Y5270D01*
G01X12115Y5361D01*
G01X12024Y5453D01*
G01X11932Y5499D01*
G01X11752Y5499D01*
G01X13096Y5179D02*
G01X13050Y5044D01*
G01X12961Y4953D01*
G01X12824Y4907D01*
G01X12778Y4907D01*
G01X12641Y4953D01*
G01X12552Y5044D01*
G01X12506Y5179D01*
G01X12506Y5224D01*
G01X12552Y5361D01*
G01X12641Y5453D01*
G01X12778Y5499D01*
G01X12824Y5499D01*
G01X12961Y5453D01*
G01X13050Y5361D01*
G01X13096Y5179D01*
G01X13096Y4953D01*
G01X13050Y4726D01*
G01X12961Y4589D01*
G01X12824Y4544D01*
G01X12733Y4544D01*
G01X12598Y4589D01*
G01X12552Y4681D01*
G54D32*
G01X43832Y29870D02*
G01X43779Y29974D01*
G01X43675Y30078D01*
G01X43573Y30129D01*
G01X43365Y30129D01*
G01X43261Y30078D01*
G01X43157Y29974D01*
G01X43103Y29870D01*
G01X43053Y29712D01*
G01X43053Y29453D01*
G01X43103Y29298D01*
G01X43157Y29194D01*
G01X43261Y29090D01*
G01X43365Y29039D01*
G01X43573Y29039D01*
G01X43675Y29090D01*
G01X43779Y29194D01*
G01X43832Y29298D01*
G01X44175Y29921D02*
G01X44279Y29974D01*
G01X44434Y30129D01*
G01X44434Y29039D01*
G01X44323Y10822D02*
G01X44323Y9733D01*
G01X44323Y10822D02*
G01X44686Y10822D01*
G01X44843Y10772D01*
G01X44945Y10668D01*
G01X44998Y10563D01*
G01X45049Y10408D01*
G01X45049Y10149D01*
G01X44998Y9992D01*
G01X44945Y9888D01*
G01X44843Y9784D01*
G01X44686Y9733D01*
G01X44323Y9733D01*
G01X45392Y10617D02*
G01X45496Y10668D01*
G01X45653Y10822D01*
G01X45653Y9733D01*
G01X44323Y18996D02*
G01X44323Y17907D01*
G01X44323Y18996D02*
G01X44686Y18996D01*
G01X44843Y18945D01*
G01X44945Y18841D01*
G01X44998Y18737D01*
G01X45049Y18582D01*
G01X45049Y18323D01*
G01X44998Y18166D01*
G01X44945Y18061D01*
G01X44843Y17957D01*
G01X44686Y17907D01*
G01X44323Y17907D01*
G01X45445Y18737D02*
G01X45445Y18790D01*
G01X45496Y18895D01*
G01X45549Y18945D01*
G01X45653Y18996D01*
G01X45859Y18996D01*
G01X45963Y18945D01*
G01X46017Y18895D01*
G01X46067Y18790D01*
G01X46067Y18686D01*
G01X46017Y18582D01*
G01X45913Y18425D01*
G01X45392Y17907D01*
G01X46121Y17907D01*
G01X32656Y41257D02*
G01X32603Y41361D01*
G01X32499Y41465D01*
G01X32397Y41518D01*
G01X32189Y41518D01*
G01X32085Y41465D01*
G01X31981Y41361D01*
G01X31927Y41257D01*
G01X31877Y41102D01*
G01X31877Y40843D01*
G01X31927Y40685D01*
G01X31981Y40584D01*
G01X32085Y40479D01*
G01X32189Y40426D01*
G01X32397Y40426D01*
G01X32499Y40479D01*
G01X32603Y40584D01*
G01X32656Y40685D01*
G01X33050Y41257D02*
G01X33050Y41310D01*
G01X33103Y41414D01*
G01X33154Y41465D01*
G01X33258Y41518D01*
G01X33467Y41518D01*
G01X33571Y41465D01*
G01X33621Y41414D01*
G01X33675Y41310D01*
G01X33675Y41206D01*
G01X33621Y41102D01*
G01X33517Y40947D01*
G01X32999Y40426D01*
G01X33726Y40426D01*
G01X47388Y41257D02*
G01X47335Y41361D01*
G01X47231Y41465D01*
G01X47129Y41518D01*
G01X46921Y41518D01*
G01X46817Y41465D01*
G01X46713Y41361D01*
G01X46659Y41257D01*
G01X46609Y41102D01*
G01X46609Y40843D01*
G01X46659Y40685D01*
G01X46713Y40584D01*
G01X46817Y40479D01*
G01X46921Y40426D01*
G01X47129Y40426D01*
G01X47231Y40479D01*
G01X47335Y40584D01*
G01X47388Y40685D01*
G01X47835Y41518D02*
G01X48407Y41518D01*
G01X48094Y41102D01*
G01X48249Y41102D01*
G01X48353Y41051D01*
G01X48407Y40998D01*
G01X48458Y40843D01*
G01X48458Y40739D01*
G01X48407Y40584D01*
G01X48303Y40479D01*
G01X48145Y40426D01*
G01X47990Y40426D01*
G01X47835Y40479D01*
G01X47782Y40530D01*
G01X47731Y40634D01*
G01X44260Y9352D02*
G01X44260Y8262D01*
G01X44260Y9352D02*
G01X44727Y9352D01*
G01X44882Y9301D01*
G01X44935Y9248D01*
G01X44986Y9144D01*
G01X44986Y9042D01*
G01X44935Y8938D01*
G01X44882Y8884D01*
G01X44727Y8834D01*
G01X44260Y8834D01*
G01X44623Y8834D02*
G01X44986Y8262D01*
G01X45329Y9144D02*
G01X45433Y9197D01*
G01X45590Y9352D01*
G01X45590Y8262D01*
G01X44577Y5026D02*
G01X44577Y3937D01*
G01X44577Y5026D02*
G01X45044Y5026D01*
G01X45199Y4975D01*
G01X45252Y4925D01*
G01X45303Y4820D01*
G01X45303Y4663D01*
G01X45252Y4559D01*
G01X45199Y4508D01*
G01X45044Y4455D01*
G01X44577Y4455D01*
G01X45646Y4820D02*
G01X45750Y4871D01*
G01X45907Y5026D01*
G01X45907Y3937D01*
G01X1651Y31127D02*
G01X1651Y30038D01*
G01X1651Y31127D02*
G01X2118Y31127D01*
G01X2273Y31076D01*
G01X2326Y31026D01*
G01X2377Y30921D01*
G01X2377Y30764D01*
G01X2326Y30660D01*
G01X2273Y30609D01*
G01X2118Y30556D01*
G01X1651Y30556D01*
G01X2773Y30868D02*
G01X2773Y30921D01*
G01X2824Y31026D01*
G01X2877Y31076D01*
G01X2981Y31127D01*
G01X3187Y31127D01*
G01X3291Y31076D01*
G01X3345Y31026D01*
G01X3395Y30921D01*
G01X3395Y30817D01*
G01X3345Y30713D01*
G01X3241Y30556D01*
G01X2720Y30038D01*
G01X3449Y30038D01*
G01X16256Y33498D02*
G01X16256Y32718D01*
G01X16306Y32563D01*
G01X16410Y32459D01*
G01X16568Y32408D01*
G01X16672Y32408D01*
G01X16827Y32459D01*
G01X16931Y32563D01*
G01X16982Y32718D01*
G01X16982Y33498D01*
G01X17846Y33498D02*
G01X17325Y32771D01*
G01X18105Y32771D01*
G01X17846Y33498D02*
G01X17846Y32408D01*
G01X39370Y44328D02*
G01X39370Y43548D01*
G01X39420Y43393D01*
G01X39524Y43289D01*
G01X39682Y43235D01*
G01X39786Y43235D01*
G01X39941Y43289D01*
G01X40045Y43393D01*
G01X40096Y43548D01*
G01X40096Y44328D01*
G01X41064Y44328D02*
G01X40543Y44328D01*
G01X40492Y43860D01*
G01X40543Y43911D01*
G01X40700Y43964D01*
G01X40855Y43964D01*
G01X41010Y43911D01*
G01X41114Y43807D01*
G01X41168Y43652D01*
G01X41168Y43548D01*
G01X41114Y43393D01*
G01X41010Y43289D01*
G01X40855Y43235D01*
G01X40700Y43235D01*
G01X40543Y43289D01*
G01X40492Y43340D01*
G01X40439Y43444D01*
G54D30*
G01X41851Y26797D02*
G01X41851Y25135D01*
G01X41021Y25966D02*
G01X42684Y25966D01*
G01X39311Y3302D02*
G01X39311Y1640D01*
G01X38481Y2471D02*
G01X40144Y2471D01*
G01X34544Y46446D02*
G01X34544Y44508D01*
G01X35153Y46446D02*
G01X35153Y44508D01*
G01X35763Y46446D02*
G01X35763Y44508D01*
G01X37480Y46446D02*
G01X37480Y44508D01*
G01X37480Y45524D02*
G01X37297Y45707D01*
G01X37111Y45801D01*
G01X36835Y45801D01*
G01X36649Y45707D01*
G01X36464Y45524D01*
G01X36372Y45247D01*
G01X36372Y45062D01*
G01X36464Y44785D01*
G01X36649Y44599D01*
G01X36835Y44508D01*
G01X37111Y44508D01*
G01X37297Y44599D01*
G01X37480Y44785D01*
G01X38089Y45801D02*
G01X38089Y43860D01*
G01X38089Y45524D02*
G01X38275Y45707D01*
G01X38460Y45801D01*
G01X38737Y45801D01*
G01X38922Y45707D01*
G01X39105Y45524D01*
G01X39199Y45247D01*
G01X39199Y45062D01*
G01X39105Y44785D01*
G01X38922Y44599D01*
G01X38737Y44508D01*
G01X38460Y44508D01*
G01X38275Y44599D01*
G01X38089Y44785D01*
G01X41231Y45801D02*
G01X41785Y44508D01*
G01X42339Y45801D02*
G01X41785Y44508D01*
G01X42948Y46078D02*
G01X43134Y46169D01*
G01X43411Y46446D01*
G01X43411Y44508D01*
G01X44112Y44970D02*
G01X44020Y44876D01*
G01X44112Y44785D01*
G01X44206Y44876D01*
G01X44112Y44970D01*
G01X45369Y46446D02*
G01X45092Y46355D01*
G01X44907Y46078D01*
G01X44815Y45615D01*
G01X44815Y45339D01*
G01X44907Y44876D01*
G01X45092Y44599D01*
G01X45369Y44508D01*
G01X45554Y44508D01*
G01X45831Y44599D01*
G01X46014Y44876D01*
G01X46108Y45339D01*
G01X46108Y45615D01*
G01X46014Y46078D01*
G01X45831Y46355D01*
G01X45554Y46446D01*
G01X45369Y46446D01*
G54D10*
G75*
G01X40707Y23285D02*
G02X40707Y28785I0J2750D01*
G01*
G75*
G01X45907Y28785D02*
G02X45907Y23285I0J-2750D01*
G01*
G75*
G01X34356Y36553D02*
G03X34356Y36513I-2250J-20D01*
G01*
G75*
G01X49088Y36553D02*
G03X49088Y36513I-2250J-20D01*
G01*
M00*
M02*
