G04 Layer: BottomSolderMaskLayer*
G04 EasyEDA v6.2.43, 2019-09-14T08:05:40+03:00*
G04 099efe80dd8e4075b8cc61d203687640,04130c9be27c403289d01f1062dd982b,10*
G04 Gerber Generator version 0.2*
G04 Scale: 100 percent, Rotated: No, Reflected: No *
G04 Dimensions in millimeters *
G04 leading zeros omitted , absolute positions ,3 integer and 3 decimal *
%FSLAX33Y33*%
%MOMM*%
G90*
G71D02*

%ADD35C,1.617980*%
%ADD36C,2.108200*%
%ADD37C,2.003196*%
%ADD38C,1.803197*%
%ADD39C,1.778000*%
%ADD41C,1.203198*%

%LPD*%
G36*
G01X26466Y20180D02*
G01X26466Y20789D01*
G01X28473Y20789D01*
G01X28473Y20180D01*
G01X26466Y20180D01*
G37*
G36*
G01X26466Y19519D02*
G01X26466Y20129D01*
G01X28473Y20129D01*
G01X28473Y19519D01*
G01X26466Y19519D01*
G37*
G36*
G01X26466Y18884D02*
G01X26466Y19494D01*
G01X28473Y19494D01*
G01X28473Y18884D01*
G01X26466Y18884D01*
G37*
G36*
G01X26466Y18224D02*
G01X26466Y18834D01*
G01X28473Y18834D01*
G01X28473Y18224D01*
G01X26466Y18224D01*
G37*
G36*
G01X26466Y17564D02*
G01X26466Y18173D01*
G01X28473Y18173D01*
G01X28473Y17564D01*
G01X26466Y17564D01*
G37*
G36*
G01X26466Y16929D02*
G01X26466Y17538D01*
G01X28473Y17538D01*
G01X28473Y16929D01*
G01X26466Y16929D01*
G37*
G36*
G01X26466Y16268D02*
G01X26466Y16878D01*
G01X28473Y16878D01*
G01X28473Y16268D01*
G01X26466Y16268D01*
G37*
G36*
G01X26466Y15633D02*
G01X26466Y16243D01*
G01X28473Y16243D01*
G01X28473Y15633D01*
G01X26466Y15633D01*
G37*
G36*
G01X26466Y14973D02*
G01X26466Y15582D01*
G01X28473Y15582D01*
G01X28473Y14973D01*
G01X26466Y14973D01*
G37*
G36*
G01X26466Y14312D02*
G01X26466Y14922D01*
G01X28473Y14922D01*
G01X28473Y14312D01*
G01X26466Y14312D01*
G37*
G36*
G01X26466Y13677D02*
G01X26466Y14287D01*
G01X28473Y14287D01*
G01X28473Y13677D01*
G01X26466Y13677D01*
G37*
G36*
G01X26466Y13017D02*
G01X26466Y13627D01*
G01X28473Y13627D01*
G01X28473Y13017D01*
G01X26466Y13017D01*
G37*
G36*
G01X26466Y12382D02*
G01X26466Y12992D01*
G01X28473Y12992D01*
G01X28473Y12382D01*
G01X26466Y12382D01*
G37*
G36*
G01X26466Y11722D02*
G01X26466Y12331D01*
G01X28473Y12331D01*
G01X28473Y11722D01*
G01X26466Y11722D01*
G37*
G36*
G01X19278Y11722D02*
G01X19278Y12331D01*
G01X21285Y12331D01*
G01X21285Y11722D01*
G01X19278Y11722D01*
G37*
G36*
G01X19278Y12382D02*
G01X19278Y12992D01*
G01X21285Y12992D01*
G01X21285Y12382D01*
G01X19278Y12382D01*
G37*
G36*
G01X19278Y13017D02*
G01X19278Y13627D01*
G01X21285Y13627D01*
G01X21285Y13017D01*
G01X19278Y13017D01*
G37*
G36*
G01X19278Y13677D02*
G01X19278Y14287D01*
G01X21285Y14287D01*
G01X21285Y13677D01*
G01X19278Y13677D01*
G37*
G36*
G01X19278Y14312D02*
G01X19278Y14922D01*
G01X21285Y14922D01*
G01X21285Y14312D01*
G01X19278Y14312D01*
G37*
G36*
G01X19278Y14973D02*
G01X19278Y15582D01*
G01X21285Y15582D01*
G01X21285Y14973D01*
G01X19278Y14973D01*
G37*
G36*
G01X19278Y15633D02*
G01X19278Y16243D01*
G01X21285Y16243D01*
G01X21285Y15633D01*
G01X19278Y15633D01*
G37*
G36*
G01X19278Y16268D02*
G01X19278Y16878D01*
G01X21285Y16878D01*
G01X21285Y16268D01*
G01X19278Y16268D01*
G37*
G36*
G01X19278Y16929D02*
G01X19278Y17538D01*
G01X21285Y17538D01*
G01X21285Y16929D01*
G01X19278Y16929D01*
G37*
G36*
G01X19278Y17564D02*
G01X19278Y18173D01*
G01X21285Y18173D01*
G01X21285Y17564D01*
G01X19278Y17564D01*
G37*
G36*
G01X19278Y18224D02*
G01X19278Y18834D01*
G01X21285Y18834D01*
G01X21285Y18224D01*
G01X19278Y18224D01*
G37*
G36*
G01X19278Y18884D02*
G01X19278Y19494D01*
G01X21285Y19494D01*
G01X21285Y18884D01*
G01X19278Y18884D01*
G37*
G36*
G01X19278Y19519D02*
G01X19278Y20129D01*
G01X21285Y20129D01*
G01X21285Y19519D01*
G01X19278Y19519D01*
G37*
G36*
G01X19278Y20180D02*
G01X19278Y20789D01*
G01X21285Y20789D01*
G01X21285Y20180D01*
G01X19278Y20180D01*
G37*
G54D35*
G01X39700Y26035D03*
G01X46913Y26035D03*
G54D36*
G01X48133Y12065D03*
G01X40513Y12065D03*
G01X40513Y16510D03*
G01X48133Y16510D03*
G54D37*
G01X32258Y38076D03*
G01X32258Y35075D03*
G01X46990Y38076D03*
G01X46990Y35075D03*
G54D38*
G01X40850Y6858D03*
G01X48049Y6858D03*
G54D39*
G01X47117Y2413D03*
G01X44577Y2413D03*
G36*
G01X41148Y1524D02*
G01X41148Y3302D01*
G01X42926Y3302D01*
G01X42926Y1524D01*
G01X41148Y1524D01*
G37*
G54D41*
G01X5461Y4191D03*
G01X5461Y5461D03*
G01X5461Y8001D03*
G01X5461Y9271D03*
G01X5461Y10541D03*
G01X5461Y11811D03*
G01X5461Y19431D03*
G01X5461Y20701D03*
G01X5461Y21971D03*
G01X5461Y24511D03*
G01X5461Y25781D03*
G01X5461Y27051D03*
G01X5461Y23241D03*
G01X5461Y18161D03*
G01X5461Y16891D03*
G01X5461Y15621D03*
G01X5461Y14351D03*
G01X5461Y13081D03*
G01X5461Y6731D03*
G01X5461Y2921D03*
G01X4191Y2921D03*
G01X4191Y6731D03*
G01X4191Y13081D03*
G01X4191Y14351D03*
G01X4191Y15621D03*
G01X4191Y16891D03*
G01X4191Y18161D03*
G01X4191Y23241D03*
G36*
G01X3589Y26449D02*
G01X3589Y27652D01*
G01X4792Y27652D01*
G01X4792Y26449D01*
G01X3589Y26449D01*
G37*
G01X4191Y25781D03*
G01X4191Y24511D03*
G01X4191Y21971D03*
G01X4191Y20701D03*
G01X4191Y19431D03*
G01X4191Y11811D03*
G01X4191Y10541D03*
G01X4191Y9271D03*
G01X4191Y8001D03*
G01X4191Y5461D03*
G01X4191Y4191D03*
M00*
M02*
